<mxfile host="app.diagrams.net" agent="Mozilla/5.0 (X11; Linux x86_64; rv:132.0) Gecko/20100101 Firefox/132.0" version="27.0.2" pages="4">
  <diagram name="Domain" id="Srr-PB7GzdfBu_JWQ3YN">
    <mxGraphModel dx="1637" dy="1270" grid="0" gridSize="10" guides="1" tooltips="1" connect="1" arrows="1" fold="1" page="0" pageScale="1" pageWidth="850" pageHeight="1100" math="0" shadow="0">
      <root>
        <mxCell id="0" />
        <mxCell id="1" parent="0" />
        <mxCell id="hF1h-VePGLgBySQFq1k3-8" style="edgeStyle=none;curved=1;rounded=0;orthogonalLoop=1;jettySize=auto;html=1;fontSize=12;startSize=8;endSize=8;startArrow=classic;startFill=1;" parent="1" source="hF1h-VePGLgBySQFq1k3-1" target="hF1h-VePGLgBySQFq1k3-14" edge="1">
          <mxGeometry relative="1" as="geometry">
            <mxPoint x="817.9556313993173" y="199" as="targetPoint" />
          </mxGeometry>
        </mxCell>
        <mxCell id="hF1h-VePGLgBySQFq1k3-1" value="Internetové bankovnictví" style="rounded=0;whiteSpace=wrap;html=1;" parent="1" vertex="1">
          <mxGeometry x="569" y="301" width="120" height="60" as="geometry" />
        </mxCell>
        <mxCell id="hF1h-VePGLgBySQFq1k3-9" style="edgeStyle=none;curved=1;rounded=0;orthogonalLoop=1;jettySize=auto;html=1;fontSize=12;startSize=8;endSize=8;startArrow=classic;startFill=1;" parent="1" source="hF1h-VePGLgBySQFq1k3-2" target="hF1h-VePGLgBySQFq1k3-14" edge="1">
          <mxGeometry relative="1" as="geometry">
            <mxPoint x="836.2662116040956" y="199" as="targetPoint" />
          </mxGeometry>
        </mxCell>
        <mxCell id="hF1h-VePGLgBySQFq1k3-2" value="Mobilní bankovnictví" style="rounded=0;whiteSpace=wrap;html=1;" parent="1" vertex="1">
          <mxGeometry x="705" y="301" width="120" height="60" as="geometry" />
        </mxCell>
        <mxCell id="hF1h-VePGLgBySQFq1k3-3" value="Pobočkový systém" style="rounded=0;whiteSpace=wrap;html=1;" parent="1" vertex="1">
          <mxGeometry x="841" y="301" width="120" height="60" as="geometry" />
        </mxCell>
        <mxCell id="hF1h-VePGLgBySQFq1k3-24" style="edgeStyle=none;curved=1;rounded=0;orthogonalLoop=1;jettySize=auto;html=1;fontSize=12;startSize=8;endSize=8;startArrow=classic;startFill=1;" parent="1" source="hF1h-VePGLgBySQFq1k3-4" target="hF1h-VePGLgBySQFq1k3-14" edge="1">
          <mxGeometry relative="1" as="geometry" />
        </mxCell>
        <mxCell id="hF1h-VePGLgBySQFq1k3-4" value="Bankomat" style="rounded=0;whiteSpace=wrap;html=1;" parent="1" vertex="1">
          <mxGeometry x="977" y="301" width="120" height="60" as="geometry" />
        </mxCell>
        <mxCell id="hF1h-VePGLgBySQFq1k3-15" style="edgeStyle=none;curved=1;rounded=0;orthogonalLoop=1;jettySize=auto;html=1;fontSize=12;startSize=8;endSize=8;" parent="1" source="hF1h-VePGLgBySQFq1k3-5" target="hF1h-VePGLgBySQFq1k3-14" edge="1">
          <mxGeometry relative="1" as="geometry" />
        </mxCell>
        <mxCell id="hF1h-VePGLgBySQFq1k3-5" value="CBS" style="rounded=0;whiteSpace=wrap;html=1;" parent="1" vertex="1">
          <mxGeometry x="605" y="185" width="120" height="60" as="geometry" />
        </mxCell>
        <mxCell id="hF1h-VePGLgBySQFq1k3-10" style="edgeStyle=none;curved=1;rounded=0;orthogonalLoop=1;jettySize=auto;html=1;fontSize=12;startSize=8;endSize=8;startArrow=classic;startFill=1;" parent="1" source="hF1h-VePGLgBySQFq1k3-3" target="hF1h-VePGLgBySQFq1k3-14" edge="1">
          <mxGeometry relative="1" as="geometry">
            <mxPoint x="854.5767918088736" y="199" as="targetPoint" />
          </mxGeometry>
        </mxCell>
        <mxCell id="hF1h-VePGLgBySQFq1k3-28" value="" style="edgeStyle=none;curved=1;rounded=0;orthogonalLoop=1;jettySize=auto;html=1;fontSize=12;startSize=8;endSize=8;startArrow=classic;startFill=1;" parent="1" source="hF1h-VePGLgBySQFq1k3-14" target="hF1h-VePGLgBySQFq1k3-5" edge="1">
          <mxGeometry relative="1" as="geometry" />
        </mxCell>
        <mxCell id="hF1h-VePGLgBySQFq1k3-14" value="Transakční systém" style="rounded=0;whiteSpace=wrap;html=1;" parent="1" vertex="1">
          <mxGeometry x="778" y="185" width="120" height="60" as="geometry" />
        </mxCell>
        <mxCell id="hF1h-VePGLgBySQFq1k3-16" value="&lt;div&gt;Middleware&lt;/div&gt;&lt;div&gt;emitted&lt;/div&gt;&lt;div&gt;for brevity&lt;/div&gt;" style="ellipse;shape=cloud;whiteSpace=wrap;html=1;" parent="1" vertex="1">
          <mxGeometry x="964" y="-13" width="155" height="108" as="geometry" />
        </mxCell>
        <mxCell id="hF1h-VePGLgBySQFq1k3-18" value="Tok dat systémy" style="shape=umlFrame;whiteSpace=wrap;html=1;pointerEvents=0;width=71;height=33;" parent="1" vertex="1">
          <mxGeometry x="549" y="-14" width="597" height="402" as="geometry" />
        </mxCell>
        <mxCell id="hF1h-VePGLgBySQFq1k3-27" style="edgeStyle=none;curved=1;rounded=0;orthogonalLoop=1;jettySize=auto;html=1;fontSize=12;startSize=8;endSize=8;startArrow=classic;startFill=1;" parent="1" source="hF1h-VePGLgBySQFq1k3-21" target="hF1h-VePGLgBySQFq1k3-14" edge="1">
          <mxGeometry relative="1" as="geometry" />
        </mxCell>
        <mxCell id="hF1h-VePGLgBySQFq1k3-21" value="Anti-fraud system" style="rounded=0;whiteSpace=wrap;html=1;" parent="1" vertex="1">
          <mxGeometry x="778" y="63" width="120" height="60" as="geometry" />
        </mxCell>
        <mxCell id="hF1h-VePGLgBySQFq1k3-26" style="edgeStyle=none;curved=1;rounded=0;orthogonalLoop=1;jettySize=auto;html=1;fontSize=12;startSize=8;endSize=8;startArrow=classic;startFill=1;" parent="1" source="hF1h-VePGLgBySQFq1k3-25" target="hF1h-VePGLgBySQFq1k3-14" edge="1">
          <mxGeometry relative="1" as="geometry" />
        </mxCell>
        <mxCell id="hF1h-VePGLgBySQFq1k3-25" value="Identity management" style="rounded=0;whiteSpace=wrap;html=1;" parent="1" vertex="1">
          <mxGeometry x="951" y="183" width="120" height="60" as="geometry" />
        </mxCell>
        <mxCell id="hF1h-VePGLgBySQFq1k3-29" value="Proces transakce" style="shape=umlFrame;whiteSpace=wrap;html=1;pointerEvents=0;width=77;height=32;" parent="1" vertex="1">
          <mxGeometry x="6" y="158" width="524" height="516" as="geometry" />
        </mxCell>
        <mxCell id="hF1h-VePGLgBySQFq1k3-34" value="Žádost o transakci" style="shape=document;whiteSpace=wrap;html=1;boundedLbl=1;" parent="1" vertex="1">
          <mxGeometry x="40" y="204" width="151" height="80" as="geometry" />
        </mxCell>
        <mxCell id="hF1h-VePGLgBySQFq1k3-35" value="Internetové bankovnictví" style="rounded=0;whiteSpace=wrap;html=1;" parent="1" vertex="1">
          <mxGeometry x="45" y="511" width="120" height="60" as="geometry" />
        </mxCell>
        <mxCell id="hF1h-VePGLgBySQFq1k3-36" value="Mobilní bankovnictví" style="rounded=0;whiteSpace=wrap;html=1;" parent="1" vertex="1">
          <mxGeometry x="45" y="440" width="120" height="60" as="geometry" />
        </mxCell>
        <mxCell id="hF1h-VePGLgBySQFq1k3-37" value="Pobočkový systém" style="rounded=0;whiteSpace=wrap;html=1;" parent="1" vertex="1">
          <mxGeometry x="45" y="582" width="120" height="60" as="geometry" />
        </mxCell>
        <mxCell id="hF1h-VePGLgBySQFq1k3-38" value="Bankomat" style="rounded=0;whiteSpace=wrap;html=1;" parent="1" vertex="1">
          <mxGeometry x="45" y="368" width="120" height="60" as="geometry" />
        </mxCell>
        <mxCell id="hF1h-VePGLgBySQFq1k3-39" value="Schválení transakce" style="shape=document;whiteSpace=wrap;html=1;boundedLbl=1;" parent="1" vertex="1">
          <mxGeometry x="196" y="204" width="151" height="80" as="geometry" />
        </mxCell>
        <mxCell id="hF1h-VePGLgBySQFq1k3-40" value="Transakční systém" style="rounded=0;whiteSpace=wrap;html=1;" parent="1" vertex="1">
          <mxGeometry x="45" y="301" width="120" height="60" as="geometry" />
        </mxCell>
        <mxCell id="hF1h-VePGLgBySQFq1k3-41" value="Transakční systém" style="rounded=0;whiteSpace=wrap;html=1;" parent="1" vertex="1">
          <mxGeometry x="211.5" y="301" width="120" height="60" as="geometry" />
        </mxCell>
        <mxCell id="hF1h-VePGLgBySQFq1k3-42" value="Identity management" style="rounded=0;whiteSpace=wrap;html=1;" parent="1" vertex="1">
          <mxGeometry x="211.5" y="371" width="120" height="60" as="geometry" />
        </mxCell>
        <mxCell id="hF1h-VePGLgBySQFq1k3-43" value="CBS" style="rounded=0;whiteSpace=wrap;html=1;" parent="1" vertex="1">
          <mxGeometry x="211.5" y="440" width="120" height="60" as="geometry" />
        </mxCell>
        <mxCell id="hF1h-VePGLgBySQFq1k3-44" value="Anti-fraud system" style="rounded=0;whiteSpace=wrap;html=1;" parent="1" vertex="1">
          <mxGeometry x="211.5" y="511" width="120" height="60" as="geometry" />
        </mxCell>
        <mxCell id="hF1h-VePGLgBySQFq1k3-45" value="Zapracování transakce" style="shape=document;whiteSpace=wrap;html=1;boundedLbl=1;" parent="1" vertex="1">
          <mxGeometry x="358" y="204" width="151" height="80" as="geometry" />
        </mxCell>
        <mxCell id="hF1h-VePGLgBySQFq1k3-46" value="Transakční systém" style="rounded=0;whiteSpace=wrap;html=1;" parent="1" vertex="1">
          <mxGeometry x="373.5" y="304" width="120" height="60" as="geometry" />
        </mxCell>
        <mxCell id="hF1h-VePGLgBySQFq1k3-48" value="CBS" style="rounded=0;whiteSpace=wrap;html=1;" parent="1" vertex="1">
          <mxGeometry x="373.5" y="373" width="120" height="60" as="geometry" />
        </mxCell>
        <mxCell id="hF1h-VePGLgBySQFq1k3-50" value="Proces transakce v2" style="shape=umlFrame;whiteSpace=wrap;html=1;pointerEvents=0;width=77;height=32;" parent="1" vertex="1">
          <mxGeometry x="549" y="400.5" width="861" height="433" as="geometry" />
        </mxCell>
        <mxCell id="hF1h-VePGLgBySQFq1k3-60" style="edgeStyle=none;curved=1;rounded=0;orthogonalLoop=1;jettySize=auto;html=1;fontSize=12;startSize=8;endSize=8;" parent="1" source="hF1h-VePGLgBySQFq1k3-52" target="hF1h-VePGLgBySQFq1k3-56" edge="1">
          <mxGeometry relative="1" as="geometry" />
        </mxCell>
        <mxCell id="hF1h-VePGLgBySQFq1k3-52" value="Internetové bankovnictví" style="rounded=0;whiteSpace=wrap;html=1;" parent="1" vertex="1">
          <mxGeometry x="585" y="703.5" width="120" height="60" as="geometry" />
        </mxCell>
        <mxCell id="hF1h-VePGLgBySQFq1k3-59" style="edgeStyle=none;curved=1;rounded=0;orthogonalLoop=1;jettySize=auto;html=1;fontSize=12;startSize=8;endSize=8;" parent="1" source="hF1h-VePGLgBySQFq1k3-53" target="hF1h-VePGLgBySQFq1k3-56" edge="1">
          <mxGeometry relative="1" as="geometry" />
        </mxCell>
        <mxCell id="hF1h-VePGLgBySQFq1k3-53" value="Mobilní bankovnictví" style="rounded=0;whiteSpace=wrap;html=1;" parent="1" vertex="1">
          <mxGeometry x="585" y="632.5" width="120" height="60" as="geometry" />
        </mxCell>
        <mxCell id="hF1h-VePGLgBySQFq1k3-58" style="edgeStyle=none;curved=1;rounded=0;orthogonalLoop=1;jettySize=auto;html=1;fontSize=12;startSize=8;endSize=8;" parent="1" source="hF1h-VePGLgBySQFq1k3-54" target="hF1h-VePGLgBySQFq1k3-56" edge="1">
          <mxGeometry relative="1" as="geometry" />
        </mxCell>
        <mxCell id="hF1h-VePGLgBySQFq1k3-54" value="Bankomat" style="rounded=0;whiteSpace=wrap;html=1;" parent="1" vertex="1">
          <mxGeometry x="585" y="560.5" width="120" height="60" as="geometry" />
        </mxCell>
        <mxCell id="hF1h-VePGLgBySQFq1k3-57" style="edgeStyle=none;curved=1;rounded=0;orthogonalLoop=1;jettySize=auto;html=1;fontSize=12;startSize=8;endSize=8;" parent="1" source="hF1h-VePGLgBySQFq1k3-55" target="hF1h-VePGLgBySQFq1k3-56" edge="1">
          <mxGeometry relative="1" as="geometry" />
        </mxCell>
        <mxCell id="hF1h-VePGLgBySQFq1k3-55" value="Pobočkový systém" style="rounded=0;whiteSpace=wrap;html=1;" parent="1" vertex="1">
          <mxGeometry x="585" y="493.5" width="120" height="60" as="geometry" />
        </mxCell>
        <mxCell id="hF1h-VePGLgBySQFq1k3-63" style="edgeStyle=none;curved=1;rounded=0;orthogonalLoop=1;jettySize=auto;html=1;fontSize=12;startSize=8;endSize=8;" parent="1" source="hF1h-VePGLgBySQFq1k3-56" target="hF1h-VePGLgBySQFq1k3-61" edge="1">
          <mxGeometry relative="1" as="geometry" />
        </mxCell>
        <mxCell id="hF1h-VePGLgBySQFq1k3-56" value="&lt;div&gt;Žádost&lt;/div&gt;&lt;div&gt;o transakci&lt;/div&gt;" style="whiteSpace=wrap;html=1;shape=mxgraph.basic.document" parent="1" vertex="1">
          <mxGeometry x="769" y="580.5" width="100" height="100" as="geometry" />
        </mxCell>
        <mxCell id="hF1h-VePGLgBySQFq1k3-65" style="edgeStyle=none;curved=1;rounded=0;orthogonalLoop=1;jettySize=auto;html=1;fontSize=12;startSize=8;endSize=8;" parent="1" source="hF1h-VePGLgBySQFq1k3-61" target="hF1h-VePGLgBySQFq1k3-64" edge="1">
          <mxGeometry relative="1" as="geometry" />
        </mxCell>
        <mxCell id="hF1h-VePGLgBySQFq1k3-61" value="&lt;div&gt;Anti-fraud&lt;/div&gt;&lt;div&gt;&amp;amp;&lt;/div&gt;&lt;div&gt;Anti-money-laundering&lt;/div&gt;" style="rounded=0;whiteSpace=wrap;html=1;" parent="1" vertex="1">
          <mxGeometry x="922" y="600.5" width="141" height="60" as="geometry" />
        </mxCell>
        <mxCell id="hF1h-VePGLgBySQFq1k3-68" style="edgeStyle=none;curved=1;rounded=0;orthogonalLoop=1;jettySize=auto;html=1;fontSize=12;startSize=8;endSize=8;" parent="1" source="hF1h-VePGLgBySQFq1k3-64" target="hF1h-VePGLgBySQFq1k3-67" edge="1">
          <mxGeometry relative="1" as="geometry" />
        </mxCell>
        <mxCell id="hF1h-VePGLgBySQFq1k3-71" value="Ne" style="edgeLabel;html=1;align=center;verticalAlign=middle;resizable=0;points=[];fontSize=12;" parent="hF1h-VePGLgBySQFq1k3-68" vertex="1" connectable="0">
          <mxGeometry x="0.0212" y="-1" relative="1" as="geometry">
            <mxPoint as="offset" />
          </mxGeometry>
        </mxCell>
        <mxCell id="hF1h-VePGLgBySQFq1k3-69" style="edgeStyle=none;curved=1;rounded=0;orthogonalLoop=1;jettySize=auto;html=1;fontSize=12;startSize=8;endSize=8;" parent="1" source="hF1h-VePGLgBySQFq1k3-64" target="hF1h-VePGLgBySQFq1k3-66" edge="1">
          <mxGeometry relative="1" as="geometry" />
        </mxCell>
        <mxCell id="hF1h-VePGLgBySQFq1k3-70" value="Ano" style="edgeLabel;html=1;align=center;verticalAlign=middle;resizable=0;points=[];fontSize=12;" parent="hF1h-VePGLgBySQFq1k3-69" vertex="1" connectable="0">
          <mxGeometry x="-0.1785" y="-1" relative="1" as="geometry">
            <mxPoint as="offset" />
          </mxGeometry>
        </mxCell>
        <mxCell id="hF1h-VePGLgBySQFq1k3-64" value="V rámci jedné banky?" style="rhombus;whiteSpace=wrap;html=1;" parent="1" vertex="1">
          <mxGeometry x="1101" y="590.5" width="80" height="80" as="geometry" />
        </mxCell>
        <mxCell id="hF1h-VePGLgBySQFq1k3-66" value="CBS" style="rounded=0;whiteSpace=wrap;html=1;" parent="1" vertex="1">
          <mxGeometry x="1277" y="479.5" width="120" height="60" as="geometry" />
        </mxCell>
        <mxCell id="hF1h-VePGLgBySQFq1k3-72" style="edgeStyle=none;curved=1;rounded=0;orthogonalLoop=1;jettySize=auto;html=1;fontSize=12;startSize=8;endSize=8;" parent="1" source="hF1h-VePGLgBySQFq1k3-67" target="hF1h-VePGLgBySQFq1k3-66" edge="1">
          <mxGeometry relative="1" as="geometry" />
        </mxCell>
        <mxCell id="hF1h-VePGLgBySQFq1k3-67" value="Transakční systém" style="rounded=0;whiteSpace=wrap;html=1;" parent="1" vertex="1">
          <mxGeometry x="1277" y="692.5" width="120" height="60" as="geometry" />
        </mxCell>
        <mxCell id="hF1h-VePGLgBySQFq1k3-74" value="Přímé kanály" style="shape=umlFrame;whiteSpace=wrap;html=1;pointerEvents=0;" parent="1" vertex="1">
          <mxGeometry x="562" y="452.5" width="183" height="364" as="geometry" />
        </mxCell>
      </root>
    </mxGraphModel>
  </diagram>
  <diagram id="1sUZIcGj-PZE0xMs899g" name="Domain-final">
    <mxGraphModel dx="1018" dy="418" grid="0" gridSize="10" guides="1" tooltips="1" connect="1" arrows="1" fold="1" page="0" pageScale="1" pageWidth="850" pageHeight="1100" background="none" math="0" shadow="1">
      <root>
        <mxCell id="0" />
        <mxCell id="1" parent="0" />
        <mxCell id="Bg78i5Ha4cM5heAlWPXI-7" value="" style="group;fontSize=13;" vertex="1" connectable="0" parent="1">
          <mxGeometry x="562" y="446" width="183" height="402" as="geometry" />
        </mxCell>
        <mxCell id="Bg78i5Ha4cM5heAlWPXI-5" value="" style="rounded=0;whiteSpace=wrap;html=1;fillColor=#dae8fc;strokeColor=#6c8ebf;fontSize=13;" vertex="1" parent="Bg78i5Ha4cM5heAlWPXI-7">
          <mxGeometry width="183" height="401.99999999999994" as="geometry" />
        </mxCell>
        <mxCell id="IrDmCPm-0OVPrX7uoP9J-22" value="Přímé kanály" style="shape=umlFrame;whiteSpace=wrap;html=1;pointerEvents=0;width=63;height=35;fillColor=#dae8fc;strokeColor=#6c8ebf;fontSize=13;" parent="Bg78i5Ha4cM5heAlWPXI-7" vertex="1">
          <mxGeometry width="183" height="402" as="geometry" />
        </mxCell>
        <mxCell id="IrDmCPm-0OVPrX7uoP9J-2" style="edgeStyle=none;curved=1;rounded=0;orthogonalLoop=1;jettySize=auto;html=1;fontSize=13;startSize=8;endSize=8;" parent="1" source="IrDmCPm-0OVPrX7uoP9J-3" target="IrDmCPm-0OVPrX7uoP9J-11" edge="1">
          <mxGeometry relative="1" as="geometry" />
        </mxCell>
        <mxCell id="IrDmCPm-0OVPrX7uoP9J-3" value="Internetové bankovnictví" style="rounded=0;whiteSpace=wrap;html=1;fillColor=#DAFAE4;fontSize=13;" parent="1" vertex="1">
          <mxGeometry x="593.5" y="494" width="120" height="60" as="geometry" />
        </mxCell>
        <mxCell id="IrDmCPm-0OVPrX7uoP9J-4" style="edgeStyle=none;curved=1;rounded=0;orthogonalLoop=1;jettySize=auto;html=1;fontSize=13;startSize=8;endSize=8;" parent="1" source="IrDmCPm-0OVPrX7uoP9J-5" target="IrDmCPm-0OVPrX7uoP9J-11" edge="1">
          <mxGeometry relative="1" as="geometry" />
        </mxCell>
        <mxCell id="IrDmCPm-0OVPrX7uoP9J-5" value="Mobilní bankovnictví" style="rounded=0;whiteSpace=wrap;html=1;fillColor=#4B917D;fontSize=13;" parent="1" vertex="1">
          <mxGeometry x="593.5" y="580.5" width="120" height="60" as="geometry" />
        </mxCell>
        <mxCell id="IrDmCPm-0OVPrX7uoP9J-6" style="edgeStyle=none;curved=1;rounded=0;orthogonalLoop=1;jettySize=auto;html=1;fontSize=13;startSize=8;endSize=8;" parent="1" source="IrDmCPm-0OVPrX7uoP9J-7" target="IrDmCPm-0OVPrX7uoP9J-11" edge="1">
          <mxGeometry relative="1" as="geometry" />
        </mxCell>
        <mxCell id="IrDmCPm-0OVPrX7uoP9J-7" value="Bankomat" style="rounded=0;whiteSpace=wrap;html=1;fillColor=#A0C7FE;fontSize=13;" parent="1" vertex="1">
          <mxGeometry x="593.5" y="666" width="120" height="60" as="geometry" />
        </mxCell>
        <mxCell id="IrDmCPm-0OVPrX7uoP9J-8" style="edgeStyle=none;curved=1;rounded=0;orthogonalLoop=1;jettySize=auto;html=1;fontSize=13;startSize=8;endSize=8;" parent="1" source="IrDmCPm-0OVPrX7uoP9J-9" target="IrDmCPm-0OVPrX7uoP9J-11" edge="1">
          <mxGeometry relative="1" as="geometry" />
        </mxCell>
        <mxCell id="IrDmCPm-0OVPrX7uoP9J-9" value="Pobočkový systém" style="rounded=0;whiteSpace=wrap;html=1;fillColor=#FFD6C0;fontColor=#333333;strokeColor=#666666;fontSize=13;" parent="1" vertex="1">
          <mxGeometry x="593.5" y="752.5" width="120" height="60" as="geometry" />
        </mxCell>
        <mxCell id="IrDmCPm-0OVPrX7uoP9J-10" style="edgeStyle=none;curved=1;rounded=0;orthogonalLoop=1;jettySize=auto;html=1;fontSize=13;startSize=8;endSize=8;" parent="1" source="IrDmCPm-0OVPrX7uoP9J-11" target="IrDmCPm-0OVPrX7uoP9J-13" edge="1">
          <mxGeometry relative="1" as="geometry" />
        </mxCell>
        <mxCell id="IrDmCPm-0OVPrX7uoP9J-11" value="&lt;div&gt;Žádost&lt;/div&gt;&lt;div&gt;o transakci&lt;/div&gt;" style="whiteSpace=wrap;html=1;shape=mxgraph.basic.document;fillColor=#dae8fc;strokeColor=#6c8ebf;fontSize=13;" parent="1" vertex="1">
          <mxGeometry x="769" y="580.5" width="100" height="100" as="geometry" />
        </mxCell>
        <mxCell id="IrDmCPm-0OVPrX7uoP9J-12" style="edgeStyle=none;curved=1;rounded=0;orthogonalLoop=1;jettySize=auto;html=1;fontSize=13;startSize=8;endSize=8;" parent="1" source="IrDmCPm-0OVPrX7uoP9J-13" target="IrDmCPm-0OVPrX7uoP9J-18" edge="1">
          <mxGeometry relative="1" as="geometry" />
        </mxCell>
        <mxCell id="IrDmCPm-0OVPrX7uoP9J-13" value="&lt;div&gt;Anti-fraud&lt;/div&gt;&lt;div&gt;&amp;amp;&lt;/div&gt;&lt;div&gt;Anti-money-laundering&lt;/div&gt;" style="rounded=0;whiteSpace=wrap;html=1;fillColor=#dae8fc;strokeColor=#6c8ebf;fontSize=13;" parent="1" vertex="1">
          <mxGeometry x="922" y="600.5" width="141" height="60" as="geometry" />
        </mxCell>
        <mxCell id="IrDmCPm-0OVPrX7uoP9J-14" style="edgeStyle=none;curved=1;rounded=0;orthogonalLoop=1;jettySize=auto;html=1;fontSize=13;startSize=8;endSize=8;" parent="1" source="IrDmCPm-0OVPrX7uoP9J-18" target="IrDmCPm-0OVPrX7uoP9J-21" edge="1">
          <mxGeometry relative="1" as="geometry" />
        </mxCell>
        <mxCell id="IrDmCPm-0OVPrX7uoP9J-15" value="Ne" style="edgeLabel;html=1;align=center;verticalAlign=middle;resizable=0;points=[];fontSize=13;labelBackgroundColor=none;" parent="IrDmCPm-0OVPrX7uoP9J-14" vertex="1" connectable="0">
          <mxGeometry x="0.0212" y="-1" relative="1" as="geometry">
            <mxPoint x="7" y="-14" as="offset" />
          </mxGeometry>
        </mxCell>
        <mxCell id="IrDmCPm-0OVPrX7uoP9J-16" style="edgeStyle=none;curved=1;rounded=0;orthogonalLoop=1;jettySize=auto;html=1;fontSize=13;startSize=8;endSize=8;" parent="1" source="IrDmCPm-0OVPrX7uoP9J-18" target="IrDmCPm-0OVPrX7uoP9J-19" edge="1">
          <mxGeometry relative="1" as="geometry" />
        </mxCell>
        <mxCell id="IrDmCPm-0OVPrX7uoP9J-17" value="Ano" style="edgeLabel;html=1;align=center;verticalAlign=middle;resizable=0;points=[];fontSize=13;labelBackgroundColor=none;" parent="IrDmCPm-0OVPrX7uoP9J-16" vertex="1" connectable="0">
          <mxGeometry x="-0.1785" y="-1" relative="1" as="geometry">
            <mxPoint x="-12" y="-10" as="offset" />
          </mxGeometry>
        </mxCell>
        <mxCell id="IrDmCPm-0OVPrX7uoP9J-18" value="V rámci jedné banky?" style="rhombus;whiteSpace=wrap;html=1;fillColor=#dae8fc;strokeColor=#6c8ebf;fontSize=13;" parent="1" vertex="1">
          <mxGeometry x="1099" y="573.25" width="116" height="114.5" as="geometry" />
        </mxCell>
        <mxCell id="IrDmCPm-0OVPrX7uoP9J-19" value="CBS" style="rounded=0;whiteSpace=wrap;html=1;fillColor=#dae8fc;strokeColor=#6c8ebf;fontSize=13;" parent="1" vertex="1">
          <mxGeometry x="1277" y="479.5" width="120" height="60" as="geometry" />
        </mxCell>
        <mxCell id="IrDmCPm-0OVPrX7uoP9J-20" style="edgeStyle=none;curved=1;rounded=0;orthogonalLoop=1;jettySize=auto;html=1;fontSize=13;startSize=8;endSize=8;" parent="1" source="IrDmCPm-0OVPrX7uoP9J-21" target="IrDmCPm-0OVPrX7uoP9J-19" edge="1">
          <mxGeometry relative="1" as="geometry" />
        </mxCell>
        <mxCell id="IrDmCPm-0OVPrX7uoP9J-21" value="Transakční systém" style="rounded=0;whiteSpace=wrap;html=1;fillColor=#dae8fc;strokeColor=#6c8ebf;fontSize=13;" parent="1" vertex="1">
          <mxGeometry x="1277" y="692.5" width="120" height="60" as="geometry" />
        </mxCell>
      </root>
    </mxGraphModel>
  </diagram>
  <diagram id="PHQHVo5JUG9VmnevGxZF" name="Flow">
    <mxGraphModel dx="1778" dy="964" grid="0" gridSize="10" guides="1" tooltips="1" connect="1" arrows="1" fold="1" page="0" pageScale="1" pageWidth="850" pageHeight="1100" math="0" shadow="0">
      <root>
        <mxCell id="0" />
        <mxCell id="1" parent="0" />
        <mxCell id="h0MbBJCDrWr-Iao-kwCE-30" style="edgeStyle=none;curved=1;rounded=0;orthogonalLoop=1;jettySize=auto;html=1;fontSize=12;startSize=8;endSize=8;" parent="1" source="h0MbBJCDrWr-Iao-kwCE-2" target="h0MbBJCDrWr-Iao-kwCE-3" edge="1">
          <mxGeometry relative="1" as="geometry" />
        </mxCell>
        <mxCell id="h0MbBJCDrWr-Iao-kwCE-2" value="&lt;div&gt;Data&lt;/div&gt;&lt;div&gt;Stage&lt;/div&gt;&lt;div&gt;Area&lt;/div&gt;" style="rounded=1;whiteSpace=wrap;html=1;fillColor=#dae8fc;strokeColor=#6c8ebf;" parent="1" vertex="1">
          <mxGeometry x="-442" y="-12.5" width="83" height="367.5" as="geometry" />
        </mxCell>
        <mxCell id="h0MbBJCDrWr-Iao-kwCE-8" value="" style="group" parent="1" vertex="1" connectable="0">
          <mxGeometry x="-127" y="134.5" width="74" height="121" as="geometry" />
        </mxCell>
        <mxCell id="h0MbBJCDrWr-Iao-kwCE-4" value="" style="shape=cylinder3;whiteSpace=wrap;html=1;boundedLbl=1;backgroundOutline=1;size=15;fillColor=#dae8fc;strokeColor=#6c8ebf;" parent="h0MbBJCDrWr-Iao-kwCE-8" vertex="1">
          <mxGeometry width="71.61290322580645" height="80" as="geometry" />
        </mxCell>
        <mxCell id="h0MbBJCDrWr-Iao-kwCE-7" value="&lt;div&gt;Mart&lt;/div&gt;&lt;div&gt;Controlling&lt;/div&gt;" style="text;html=1;align=center;verticalAlign=middle;whiteSpace=wrap;rounded=0;" parent="h0MbBJCDrWr-Iao-kwCE-8" vertex="1">
          <mxGeometry x="2.3870967741935485" y="91" width="71.61290322580645" height="30" as="geometry" />
        </mxCell>
        <mxCell id="h0MbBJCDrWr-Iao-kwCE-10" value="" style="group" parent="1" vertex="1" connectable="0">
          <mxGeometry x="-308" y="112" width="122" height="166" as="geometry" />
        </mxCell>
        <mxCell id="h0MbBJCDrWr-Iao-kwCE-3" value="" style="shape=cylinder3;whiteSpace=wrap;html=1;boundedLbl=1;backgroundOutline=1;size=15;fillColor=#dae8fc;strokeColor=#6c8ebf;" parent="h0MbBJCDrWr-Iao-kwCE-10" vertex="1">
          <mxGeometry width="122" height="122" as="geometry" />
        </mxCell>
        <mxCell id="h0MbBJCDrWr-Iao-kwCE-9" value="DWH Core" style="text;html=1;align=center;verticalAlign=middle;whiteSpace=wrap;rounded=0;" parent="h0MbBJCDrWr-Iao-kwCE-10" vertex="1">
          <mxGeometry x="31" y="136" width="60" height="30" as="geometry" />
        </mxCell>
        <mxCell id="h0MbBJCDrWr-Iao-kwCE-12" value="" style="group;fillColor=none;" parent="1" vertex="1" connectable="0">
          <mxGeometry x="-585" y="4" width="60" height="110" as="geometry" />
        </mxCell>
        <mxCell id="h0MbBJCDrWr-Iao-kwCE-1" value="" style="shape=cylinder3;whiteSpace=wrap;html=1;boundedLbl=1;backgroundOutline=1;size=15;fillColor=#dae8fc;strokeColor=#6c8ebf;" parent="h0MbBJCDrWr-Iao-kwCE-12" vertex="1">
          <mxGeometry width="59" height="64" as="geometry" />
        </mxCell>
        <mxCell id="h0MbBJCDrWr-Iao-kwCE-11" value="Transakční systém" style="text;html=1;align=center;verticalAlign=middle;whiteSpace=wrap;rounded=0;" parent="h0MbBJCDrWr-Iao-kwCE-12" vertex="1">
          <mxGeometry y="76" width="60" height="30" as="geometry" />
        </mxCell>
        <mxCell id="h0MbBJCDrWr-Iao-kwCE-13" value="" style="group" parent="1" vertex="1" connectable="0">
          <mxGeometry x="-585" y="133.5" width="60" height="110" as="geometry" />
        </mxCell>
        <mxCell id="h0MbBJCDrWr-Iao-kwCE-14" value="" style="shape=cylinder3;whiteSpace=wrap;html=1;boundedLbl=1;backgroundOutline=1;size=15;fillColor=#dae8fc;strokeColor=#6c8ebf;" parent="h0MbBJCDrWr-Iao-kwCE-13" vertex="1">
          <mxGeometry x="0.5" width="59" height="64" as="geometry" />
        </mxCell>
        <mxCell id="h0MbBJCDrWr-Iao-kwCE-15" value="CBS" style="text;html=1;align=center;verticalAlign=middle;whiteSpace=wrap;rounded=0;" parent="h0MbBJCDrWr-Iao-kwCE-13" vertex="1">
          <mxGeometry y="70.5" width="60" height="30" as="geometry" />
        </mxCell>
        <mxCell id="h0MbBJCDrWr-Iao-kwCE-16" value="" style="group" parent="1" vertex="1" connectable="0">
          <mxGeometry x="-580" y="245" width="60" height="110" as="geometry" />
        </mxCell>
        <mxCell id="h0MbBJCDrWr-Iao-kwCE-17" value="" style="shape=cylinder3;whiteSpace=wrap;html=1;boundedLbl=1;backgroundOutline=1;size=15;fillColor=#dae8fc;strokeColor=#6c8ebf;" parent="h0MbBJCDrWr-Iao-kwCE-16" vertex="1">
          <mxGeometry width="59" height="64" as="geometry" />
        </mxCell>
        <mxCell id="h0MbBJCDrWr-Iao-kwCE-18" value="&lt;div&gt;CRM&lt;/div&gt;" style="text;html=1;align=center;verticalAlign=middle;whiteSpace=wrap;rounded=0;" parent="h0MbBJCDrWr-Iao-kwCE-16" vertex="1">
          <mxGeometry y="71" width="60" height="30" as="geometry" />
        </mxCell>
        <mxCell id="h0MbBJCDrWr-Iao-kwCE-27" style="edgeStyle=orthogonalEdgeStyle;rounded=0;orthogonalLoop=1;jettySize=auto;html=1;fontSize=12;startSize=8;endSize=8;entryX=-0.002;entryY=0.486;entryDx=0;entryDy=0;entryPerimeter=0;" parent="1" source="h0MbBJCDrWr-Iao-kwCE-14" target="h0MbBJCDrWr-Iao-kwCE-2" edge="1">
          <mxGeometry relative="1" as="geometry">
            <mxPoint x="-443.83333333333326" y="108.00000000000023" as="targetPoint" />
          </mxGeometry>
        </mxCell>
        <mxCell id="h0MbBJCDrWr-Iao-kwCE-28" style="edgeStyle=orthogonalEdgeStyle;rounded=0;orthogonalLoop=1;jettySize=auto;html=1;fontSize=12;startSize=8;endSize=8;entryX=-0.007;entryY=0.786;entryDx=0;entryDy=0;entryPerimeter=0;" parent="1" source="h0MbBJCDrWr-Iao-kwCE-17" target="h0MbBJCDrWr-Iao-kwCE-2" edge="1">
          <mxGeometry relative="1" as="geometry">
            <mxPoint x="-443.83333333333326" y="243.00000000000023" as="targetPoint" />
          </mxGeometry>
        </mxCell>
        <mxCell id="h0MbBJCDrWr-Iao-kwCE-31" style="edgeStyle=none;curved=1;rounded=0;orthogonalLoop=1;jettySize=auto;html=1;fontSize=12;startSize=8;endSize=8;" parent="1" source="h0MbBJCDrWr-Iao-kwCE-3" target="h0MbBJCDrWr-Iao-kwCE-4" edge="1">
          <mxGeometry relative="1" as="geometry" />
        </mxCell>
        <mxCell id="h0MbBJCDrWr-Iao-kwCE-32" style="edgeStyle=none;curved=1;rounded=0;orthogonalLoop=1;jettySize=auto;html=1;fontSize=12;startSize=8;endSize=8;" parent="1" source="h0MbBJCDrWr-Iao-kwCE-4" target="h0MbBJCDrWr-Iao-kwCE-6" edge="1">
          <mxGeometry relative="1" as="geometry" />
        </mxCell>
        <mxCell id="h0MbBJCDrWr-Iao-kwCE-25" style="edgeStyle=orthogonalEdgeStyle;rounded=0;orthogonalLoop=1;jettySize=auto;html=1;fontSize=12;startSize=8;endSize=8;entryX=0;entryY=0.084;entryDx=0;entryDy=0;entryPerimeter=0;" parent="1" source="h0MbBJCDrWr-Iao-kwCE-1" edge="1">
          <mxGeometry relative="1" as="geometry">
            <mxPoint x="-442" y="36.370000000000005" as="targetPoint" />
          </mxGeometry>
        </mxCell>
        <mxCell id="pDZEcEHAVX1cfEA7XzoI-6" value="" style="group" vertex="1" connectable="0" parent="1">
          <mxGeometry x="10" y="134.5" width="80" height="121" as="geometry" />
        </mxCell>
        <mxCell id="h0MbBJCDrWr-Iao-kwCE-6" value="" style="image;html=1;image=img/lib/clip_art/finance/Graph_128x128.png" parent="pDZEcEHAVX1cfEA7XzoI-6" vertex="1">
          <mxGeometry width="80" height="80" as="geometry" />
        </mxCell>
        <mxCell id="pDZEcEHAVX1cfEA7XzoI-5" value="Reporting Portal" style="text;html=1;align=center;verticalAlign=middle;whiteSpace=wrap;rounded=0;" vertex="1" parent="pDZEcEHAVX1cfEA7XzoI-6">
          <mxGeometry x="4.197096774193554" y="91" width="71.61290322580645" height="30" as="geometry" />
        </mxCell>
      </root>
    </mxGraphModel>
  </diagram>
  <diagram id="BEdGNHlPbc5RL-_xWsJ-" name="Star">
    <mxGraphModel dx="2218" dy="1218" grid="0" gridSize="10" guides="1" tooltips="1" connect="1" arrows="1" fold="1" page="0" pageScale="1" pageWidth="850" pageHeight="1100" math="0" shadow="0">
      <root>
        <mxCell id="0" />
        <mxCell id="1" parent="0" />
        <mxCell id="Np0r6Iq8mCtXIfCm7xB8-53" style="edgeStyle=orthogonalEdgeStyle;rounded=0;orthogonalLoop=1;jettySize=auto;html=1;fontSize=12;startSize=8;endSize=8;" parent="1" source="Np0r6Iq8mCtXIfCm7xB8-18" target="Np0r6Iq8mCtXIfCm7xB8-24" edge="1">
          <mxGeometry relative="1" as="geometry" />
        </mxCell>
        <mxCell id="Np0r6Iq8mCtXIfCm7xB8-18" value="Transakce (fact table)" style="swimlane;fontStyle=1;childLayout=stackLayout;horizontal=1;startSize=26;horizontalStack=0;resizeParent=1;resizeParentMax=0;resizeLast=0;collapsible=1;marginBottom=0;align=center;fontSize=14;fillColor=#4B917D;strokeColor=#6c8ebf;" parent="1" vertex="1">
          <mxGeometry x="-380" y="-3" width="178" height="176" as="geometry" />
        </mxCell>
        <mxCell id="Np0r6Iq8mCtXIfCm7xB8-20" value="Kód Kanálu (FK)" style="text;strokeColor=none;fillColor=none;spacingLeft=4;spacingRight=4;overflow=hidden;rotatable=0;points=[[0,0.5],[1,0.5]];portConstraint=eastwest;fontSize=12;whiteSpace=wrap;html=1;fontStyle=5" parent="Np0r6Iq8mCtXIfCm7xB8-18" vertex="1">
          <mxGeometry y="26" width="178" height="30" as="geometry" />
        </mxCell>
        <mxCell id="Np0r6Iq8mCtXIfCm7xB8-22" value="Kód Statusu Transakce (FK)" style="text;strokeColor=none;fillColor=none;spacingLeft=4;spacingRight=4;overflow=hidden;rotatable=0;points=[[0,0.5],[1,0.5]];portConstraint=eastwest;fontSize=12;whiteSpace=wrap;html=1;fontStyle=5" parent="Np0r6Iq8mCtXIfCm7xB8-18" vertex="1">
          <mxGeometry y="56" width="178" height="30" as="geometry" />
        </mxCell>
        <mxCell id="Np0r6Iq8mCtXIfCm7xB8-23" value="Kód Typu Transakce (FK)" style="text;strokeColor=none;fillColor=none;spacingLeft=4;spacingRight=4;overflow=hidden;rotatable=0;points=[[0,0.5],[1,0.5]];portConstraint=eastwest;fontSize=12;whiteSpace=wrap;html=1;fontStyle=5" parent="Np0r6Iq8mCtXIfCm7xB8-18" vertex="1">
          <mxGeometry y="86" width="178" height="30" as="geometry" />
        </mxCell>
        <mxCell id="Np0r6Iq8mCtXIfCm7xB8-19" value="Datum (FK)" style="text;strokeColor=none;fillColor=none;spacingLeft=4;spacingRight=4;overflow=hidden;rotatable=0;points=[[0,0.5],[1,0.5]];portConstraint=eastwest;fontSize=12;whiteSpace=wrap;html=1;fontStyle=5" parent="Np0r6Iq8mCtXIfCm7xB8-18" vertex="1">
          <mxGeometry y="116" width="178" height="30" as="geometry" />
        </mxCell>
        <mxCell id="Np0r6Iq8mCtXIfCm7xB8-21" value="Kód Klienta (FK)" style="text;strokeColor=none;fillColor=none;spacingLeft=4;spacingRight=4;overflow=hidden;rotatable=0;points=[[0,0.5],[1,0.5]];portConstraint=eastwest;fontSize=12;whiteSpace=wrap;html=1;fontStyle=5" parent="Np0r6Iq8mCtXIfCm7xB8-18" vertex="1">
          <mxGeometry y="146" width="178" height="30" as="geometry" />
        </mxCell>
        <mxCell id="Np0r6Iq8mCtXIfCm7xB8-24" value="Kalendář" style="swimlane;fontStyle=1;childLayout=stackLayout;horizontal=1;startSize=26;horizontalStack=0;resizeParent=1;resizeParentMax=0;resizeLast=0;collapsible=1;marginBottom=0;align=center;fontSize=14;fillColor=#4B917D;" parent="1" vertex="1">
          <mxGeometry x="-371" y="238" width="160" height="206" as="geometry" />
        </mxCell>
        <mxCell id="Np0r6Iq8mCtXIfCm7xB8-25" value="&lt;b&gt;&lt;u&gt;Datum&lt;/u&gt;&lt;/b&gt;" style="text;strokeColor=none;fillColor=none;spacingLeft=4;spacingRight=4;overflow=hidden;rotatable=0;points=[[0,0.5],[1,0.5]];portConstraint=eastwest;fontSize=12;whiteSpace=wrap;html=1;" parent="Np0r6Iq8mCtXIfCm7xB8-24" vertex="1">
          <mxGeometry y="26" width="160" height="30" as="geometry" />
        </mxCell>
        <mxCell id="Np0r6Iq8mCtXIfCm7xB8-26" value="Rok" style="text;strokeColor=none;fillColor=none;spacingLeft=4;spacingRight=4;overflow=hidden;rotatable=0;points=[[0,0.5],[1,0.5]];portConstraint=eastwest;fontSize=12;whiteSpace=wrap;html=1;" parent="Np0r6Iq8mCtXIfCm7xB8-24" vertex="1">
          <mxGeometry y="56" width="160" height="30" as="geometry" />
        </mxCell>
        <mxCell id="Np0r6Iq8mCtXIfCm7xB8-27" value="Den" style="text;strokeColor=none;fillColor=none;spacingLeft=4;spacingRight=4;overflow=hidden;rotatable=0;points=[[0,0.5],[1,0.5]];portConstraint=eastwest;fontSize=12;whiteSpace=wrap;html=1;" parent="Np0r6Iq8mCtXIfCm7xB8-24" vertex="1">
          <mxGeometry y="86" width="160" height="30" as="geometry" />
        </mxCell>
        <mxCell id="Np0r6Iq8mCtXIfCm7xB8-28" value="Den_V_Roce" style="text;strokeColor=none;fillColor=none;spacingLeft=4;spacingRight=4;overflow=hidden;rotatable=0;points=[[0,0.5],[1,0.5]];portConstraint=eastwest;fontSize=12;whiteSpace=wrap;html=1;" parent="Np0r6Iq8mCtXIfCm7xB8-24" vertex="1">
          <mxGeometry y="116" width="160" height="30" as="geometry" />
        </mxCell>
        <mxCell id="Np0r6Iq8mCtXIfCm7xB8-29" value="Týden_V_Roce" style="text;strokeColor=none;fillColor=none;spacingLeft=4;spacingRight=4;overflow=hidden;rotatable=0;points=[[0,0.5],[1,0.5]];portConstraint=eastwest;fontSize=12;whiteSpace=wrap;html=1;" parent="Np0r6Iq8mCtXIfCm7xB8-24" vertex="1">
          <mxGeometry y="146" width="160" height="30" as="geometry" />
        </mxCell>
        <mxCell id="Np0r6Iq8mCtXIfCm7xB8-36" value="Týden_V_Měsíci" style="text;strokeColor=none;fillColor=none;spacingLeft=4;spacingRight=4;overflow=hidden;rotatable=0;points=[[0,0.5],[1,0.5]];portConstraint=eastwest;fontSize=12;whiteSpace=wrap;html=1;" parent="Np0r6Iq8mCtXIfCm7xB8-24" vertex="1">
          <mxGeometry y="176" width="160" height="30" as="geometry" />
        </mxCell>
        <mxCell id="Np0r6Iq8mCtXIfCm7xB8-37" value="Typ_Transakce" style="swimlane;fontStyle=1;childLayout=stackLayout;horizontal=1;startSize=26;horizontalStack=0;resizeParent=1;resizeParentMax=0;resizeLast=0;collapsible=1;marginBottom=0;align=center;fontSize=14;fillColor=#4B917D;" parent="1" vertex="1">
          <mxGeometry x="-85" y="144" width="160" height="86" as="geometry" />
        </mxCell>
        <mxCell id="Np0r6Iq8mCtXIfCm7xB8-44" value="Kód Kanálu" style="text;strokeColor=none;fillColor=none;spacingLeft=4;spacingRight=4;overflow=hidden;rotatable=0;points=[[0,0.5],[1,0.5]];portConstraint=eastwest;fontSize=12;whiteSpace=wrap;html=1;fontStyle=5" parent="Np0r6Iq8mCtXIfCm7xB8-37" vertex="1">
          <mxGeometry y="26" width="160" height="30" as="geometry" />
        </mxCell>
        <mxCell id="Np0r6Iq8mCtXIfCm7xB8-49" value="Název_Transakce" style="text;strokeColor=none;fillColor=none;spacingLeft=4;spacingRight=4;overflow=hidden;rotatable=0;points=[[0,0.5],[1,0.5]];portConstraint=eastwest;fontSize=12;whiteSpace=wrap;html=1;" parent="Np0r6Iq8mCtXIfCm7xB8-37" vertex="1">
          <mxGeometry y="56" width="160" height="30" as="geometry" />
        </mxCell>
        <mxCell id="Np0r6Iq8mCtXIfCm7xB8-45" value="Status_Transakce" style="swimlane;fontStyle=1;childLayout=stackLayout;horizontal=1;startSize=26;horizontalStack=0;resizeParent=1;resizeParentMax=0;resizeLast=0;collapsible=1;marginBottom=0;align=center;fontSize=14;fillColor=#4B917D;" parent="1" vertex="1">
          <mxGeometry x="-85" y="-61" width="160" height="86" as="geometry" />
        </mxCell>
        <mxCell id="Np0r6Iq8mCtXIfCm7xB8-46" value="Kód Kanálu" style="text;strokeColor=none;fillColor=none;spacingLeft=4;spacingRight=4;overflow=hidden;rotatable=0;points=[[0,0.5],[1,0.5]];portConstraint=eastwest;fontSize=12;whiteSpace=wrap;html=1;fontStyle=5" parent="Np0r6Iq8mCtXIfCm7xB8-45" vertex="1">
          <mxGeometry y="26" width="160" height="30" as="geometry" />
        </mxCell>
        <mxCell id="Np0r6Iq8mCtXIfCm7xB8-48" value="Název_Statusu" style="text;strokeColor=none;fillColor=none;spacingLeft=4;spacingRight=4;overflow=hidden;rotatable=0;points=[[0,0.5],[1,0.5]];portConstraint=eastwest;fontSize=12;whiteSpace=wrap;html=1;" parent="Np0r6Iq8mCtXIfCm7xB8-45" vertex="1">
          <mxGeometry y="56" width="160" height="30" as="geometry" />
        </mxCell>
        <mxCell id="Np0r6Iq8mCtXIfCm7xB8-50" value="Klient" style="swimlane;fontStyle=1;childLayout=stackLayout;horizontal=1;startSize=26;horizontalStack=0;resizeParent=1;resizeParentMax=0;resizeLast=0;collapsible=1;marginBottom=0;align=center;fontSize=14;fillColor=#4B917D;" parent="1" vertex="1">
          <mxGeometry x="-371" y="-182" width="160" height="116" as="geometry" />
        </mxCell>
        <mxCell id="Np0r6Iq8mCtXIfCm7xB8-51" value="Kód Klienta" style="text;strokeColor=none;fillColor=none;spacingLeft=4;spacingRight=4;overflow=hidden;rotatable=0;points=[[0,0.5],[1,0.5]];portConstraint=eastwest;fontSize=12;whiteSpace=wrap;html=1;fontStyle=5" parent="Np0r6Iq8mCtXIfCm7xB8-50" vertex="1">
          <mxGeometry y="26" width="160" height="30" as="geometry" />
        </mxCell>
        <mxCell id="Np0r6Iq8mCtXIfCm7xB8-52" value="Název_Statusu" style="text;strokeColor=none;fillColor=none;spacingLeft=4;spacingRight=4;overflow=hidden;rotatable=0;points=[[0,0.5],[1,0.5]];portConstraint=eastwest;fontSize=12;whiteSpace=wrap;html=1;" parent="Np0r6Iq8mCtXIfCm7xB8-50" vertex="1">
          <mxGeometry y="56" width="160" height="30" as="geometry" />
        </mxCell>
        <mxCell id="3TmoRv9RsZqvKPFa3vSK-3" value="Vek" style="text;strokeColor=none;fillColor=none;spacingLeft=4;spacingRight=4;overflow=hidden;rotatable=0;points=[[0,0.5],[1,0.5]];portConstraint=eastwest;fontSize=12;whiteSpace=wrap;html=1;" vertex="1" parent="Np0r6Iq8mCtXIfCm7xB8-50">
          <mxGeometry y="86" width="160" height="30" as="geometry" />
        </mxCell>
        <mxCell id="Np0r6Iq8mCtXIfCm7xB8-54" style="edgeStyle=orthogonalEdgeStyle;rounded=0;orthogonalLoop=1;jettySize=auto;html=1;fontSize=12;startSize=8;endSize=8;exitX=0.999;exitY=0.718;exitDx=0;exitDy=0;exitPerimeter=0;entryX=-0.005;entryY=0.739;entryDx=0;entryDy=0;entryPerimeter=0;" parent="1" source="Np0r6Iq8mCtXIfCm7xB8-19" target="Np0r6Iq8mCtXIfCm7xB8-44" edge="1">
          <mxGeometry relative="1" as="geometry">
            <mxPoint x="-192" y="95" as="sourcePoint" />
            <mxPoint x="-103" y="-70" as="targetPoint" />
          </mxGeometry>
        </mxCell>
        <mxCell id="Np0r6Iq8mCtXIfCm7xB8-55" style="edgeStyle=orthogonalEdgeStyle;rounded=0;orthogonalLoop=1;jettySize=auto;html=1;fontSize=12;startSize=8;endSize=8;exitX=1;exitY=0.5;exitDx=0;exitDy=0;" parent="1" source="Np0r6Iq8mCtXIfCm7xB8-20" target="Np0r6Iq8mCtXIfCm7xB8-45" edge="1">
          <mxGeometry relative="1" as="geometry">
            <mxPoint x="-192" y="95" as="sourcePoint" />
            <mxPoint x="-115" y="120" as="targetPoint" />
          </mxGeometry>
        </mxCell>
        <mxCell id="Np0r6Iq8mCtXIfCm7xB8-56" style="edgeStyle=orthogonalEdgeStyle;rounded=0;orthogonalLoop=1;jettySize=auto;html=1;fontSize=12;startSize=8;endSize=8;" parent="1" source="Np0r6Iq8mCtXIfCm7xB8-18" target="Np0r6Iq8mCtXIfCm7xB8-50" edge="1">
          <mxGeometry relative="1" as="geometry">
            <mxPoint x="-182" y="105" as="sourcePoint" />
            <mxPoint x="-105" y="130" as="targetPoint" />
          </mxGeometry>
        </mxCell>
        <mxCell id="Np0r6Iq8mCtXIfCm7xB8-57" value="Kanál" style="swimlane;fontStyle=1;childLayout=stackLayout;horizontal=1;startSize=26;horizontalStack=0;resizeParent=1;resizeParentMax=0;resizeLast=0;collapsible=1;marginBottom=0;align=center;fontSize=14;fillColor=#4B917D;" parent="1" vertex="1">
          <mxGeometry x="-627" y="66" width="160" height="86" as="geometry" />
        </mxCell>
        <mxCell id="Np0r6Iq8mCtXIfCm7xB8-58" value="Kód Kanálu" style="text;strokeColor=none;fillColor=none;spacingLeft=4;spacingRight=4;overflow=hidden;rotatable=0;points=[[0,0.5],[1,0.5]];portConstraint=eastwest;fontSize=12;whiteSpace=wrap;html=1;fontStyle=5" parent="Np0r6Iq8mCtXIfCm7xB8-57" vertex="1">
          <mxGeometry y="26" width="160" height="30" as="geometry" />
        </mxCell>
        <mxCell id="Np0r6Iq8mCtXIfCm7xB8-59" value="Název_Kanálu" style="text;strokeColor=none;fillColor=none;spacingLeft=4;spacingRight=4;overflow=hidden;rotatable=0;points=[[0,0.5],[1,0.5]];portConstraint=eastwest;fontSize=12;whiteSpace=wrap;html=1;" parent="Np0r6Iq8mCtXIfCm7xB8-57" vertex="1">
          <mxGeometry y="56" width="160" height="30" as="geometry" />
        </mxCell>
        <mxCell id="Np0r6Iq8mCtXIfCm7xB8-60" style="edgeStyle=orthogonalEdgeStyle;rounded=0;orthogonalLoop=1;jettySize=auto;html=1;fontSize=12;startSize=8;endSize=8;exitX=0.007;exitY=0.872;exitDx=0;exitDy=0;exitPerimeter=0;" parent="1" source="Np0r6Iq8mCtXIfCm7xB8-23" target="Np0r6Iq8mCtXIfCm7xB8-57" edge="1">
          <mxGeometry relative="1" as="geometry">
            <mxPoint x="-339" y="6" as="sourcePoint" />
            <mxPoint x="-181" y="-192" as="targetPoint" />
          </mxGeometry>
        </mxCell>
        <mxCell id="3TmoRv9RsZqvKPFa3vSK-1" value="" style="shape=image;verticalLabelPosition=bottom;labelBackgroundColor=default;verticalAlign=top;aspect=fixed;imageAspect=0;image=data:image/png,iVBORw0KGgoAAAANSUhEUgAAAoEAAAOHCAYAAABYfZkRAAAABHNCSVQICAgIfAhkiAAAABl0RVh0U29mdHdhcmUAZ25vbWUtc2NyZWVuc2hvdO8Dvz4AAAArdEVYdENyZWF0aW9uIFRpbWUARnJpIDA5IE1heSAyMDI1IDE0OjQzOjEzIENFU1Q1L+AjAAAgAElEQVR4nOzdd3RU1drH8e/U9F4h9BqadBGlgwgiqDRFEDt2xAb62i565drADghIUQEVLBRpIr1J770FQhLSy0xmkinn/WMgMKSHJJPyfNZyLZk55+w9ZzKZX569zz4qRVEUhBBCCCFEtaJ2dQeEEEIIIUT50548f8HVfRBCCCGEEOVMVWvARBkOFkKIMjS4Zyvee7K3q7shqqFko415O4z8vNuMMbv6fd37uKuY8VAArSJ0ru5KhTP+xGkZDhZCiLL2+/pDfPTDBld3Q1QzCQYb32/LZOEuU7UMgAAZZoWxi9I4lWB1dVcqJAmBQghRDhau3s8XC7e6uhuimriUZmfGlkwW7TWRaXF1b1wrIcPG2F9SuZhic3VXKhwJgUIIUU7mLN/FtN93uLobooqLSrIxa4uBP/dnkllNK4A3uphi48VfUknIkCB4PQmBQghRjqb/toPvl+5ydTdEFXUqwcrMLUaWHTRhquYVwBudTrDywq9pZJglGF8lIVAIIcrZV79sZf7qfa7uhqhijsVambXFyKqjJswyBS5PR2IsvPBLKtlWCYIgIVAIIVzikx82snjdIVd3Q1QRB6ItzNxqYO3xLAmAhdhzIZsXfk11dTcqBAmBQgjhIh98/w/LNx9zdTdEJbf7QjazthjZcCqbLKlwFcm2M9m8+Guaq7vhchIChRDChd6avpq/d55ydTdEJbXjrCMAbj2XLUOcxbT+hJnXf6/eQVBCoBBCuNhrX/7Fpn3nXN0NUclsOpXFjK0GdkZZJACW0MojZt5Zmu7qbriMhEAhhKgAXv5iGTuPXHR1N0Qlsf5kFrO2GNl3UQLgzfrjgIkPV2a4uhsuISFQCCEqAKvVzrjPl3HgVKyruyIquNVHs5ix2cDBGAsWWfauVCzcncnktQZXd6PcSQgUQogKwmjKZtznyzhxIdHVXREV1PJDZmZuMXDssg2r3dW9qVrmbDfyzUajq7tRriQECiFEBZKclsm4KUu5ECdLWAhnfxwwMWOLgdMJVqw2GQIuC9M3GZi5pfoEQQmBQghRwcQkpPPSlKVcTq5+w1Mib7/uMTFjs5GoJKkAlrUv1xv44d/qEQQlBAohRAV09lIyL01eSprB7OquCBdbsDOT7zZnEJNmRwqA5eOTNQZ+2WNydTfKnIRAIYSooI6dj+elKUsxZ8stIKqruTuMTN9sIMGgYLNLAixPH6xIZ8nBqh0EJQQKIUQFtu9EDC9NXopdkQBQnVhsCrO2GJm+yUhKpoLkP9d4a0k6q45W3Wq8hEAhhKjgdhy+wMuTl7m6G6KcZGYrzNxiZNZWI8ZsBcl/rvXab2lsOJXl6m6UCQmBQghRCWzYd5bxX69wdTdEGUsz2Zm51cC8HUYM2QpSAK4Yxv6Syo5z2a7uRqmTECiEEJXE6h0neWf6Gld3Q5SRJKOdWVszWbDThLHq5Y1Kza7Ai7+ksu9i1XpjJAQKIUQlsnTzUT6cs87V3RClLC7dzswtRn7Z7RgCFhWPyaLw0qI0jsVVnQu1JAQKIUQl8+vag3z20yZXd0OUkgspNmZtMfDbvkwyLa7ujShIstHO2F9TOJ9UNe7XJyFQCCEqoR9X7uXrX7e5uhviJp1NsDJri5ElB82YJABWCrFpdl74JZXY9Mq/areEwGrE18udf+eO4/NX7nN1V1zKy13PxeXvMve9Ea7uSoUh56RymrVkJzP++NfV3RAldOKylZnbjKw4bMJkkSHgyuR8kpUXf04h2Vi5g6C2rBtY8cVTtGpUo9DtElONtB01uay7U6UN79OGA6diOBEVn+fznu46wgJ9qF8zsJx7Vr4KOw9CVCXfLt6Om17DIwM6uLorohgOx1iYu93I+pPZZFWdKWbVyvHLVl78NZWZowLx1Lm6NyVT5iFw6eYj7D0enfPv+hGBdGvbkF1HL3L0bFzO4xmmqrkGT3lx02v577P9ee3LpfmGn7ikDHo9O5Xk9Mxy7l35Kcp5EKKqmbJgC+56HQ/c2drVXRFFsO9CNnN3ZLL5TBZyM5jK7UC0hRd/TuG7kQFoK+HYapmHwOm/Oc9ZGdStBd3aNmT1juN89/v2sm6+2ujTsQkeboX/KXL2UlI59MZ1inoehKhqJs1dj7tey73dW7i6K6IAO89nM2+Hke3nLBIAq4h/z2fz0q+pfPugv6u7UmxlHgJLasUXTxGTmMZTH/7Ks0Pu4JF7OhLq780rXyzhjw2HcrbTqFX0vS2SYX1a07ZJBP4+HqQZzGw9cI4PZ/9NTGJ6vsePS87g1c+X8MrIHvTrHIm/jwfR8aks3XSEaYu35nu/zl4dGvPkvZ1oVj8MH083ElIMHDoTyw9/7WbLgXO5tq8V6sdDd7Wj721NqVsjELVKxZlLicxZtpOFq/flew70Og1P39+ZQd1aUrdGANkWG1GxycxcsoM/NxzO2e6r1+7n3u4tAfh2/BC+HT8EgP/O/tspaHu56zm++A3+2XWKRycuzLfdwT1bMXpARyLrhaIocCY6kQWr9rJwzd58Fy4tz/OZn6Keh6usNhuNagfzxiO96NyqHipUnI1JYuafO1iy8XCu7QH63NqEOe8+yF0vfofFZmfiU3fRoXltYhLS6fHMt7m2rxnsy9gHu9GrQyOC/b1ISstk876zfPXLZs7HJufZxqP3dOSDZ/rz0uQ/+H39IafnQgK82fvjKyzbfITnPv4tz/3DAn2Y8EgvendsjJe7nlMXE/l+yQ52HLnA9u/H8vwnv7F005E89y3JOREVx7sz/sZNr6Vf56au7orIw9YzWczdbmTPRSvZVpkDWJVsPJXFK4tTmTK0cgXBChsCAUL8vZk4ph+j+rdn076z7Mq8kKuSpVKr+OiFAaQZzPy+/iAp6SZua1WXQd1a0Lx+GH2en5bvTbeb1Qvj50mjUalg2eYjqNUq+nRswisPdadhRBAvfPp7rn0GdWvBt+OHcPpiIgvX7MNqtVGvZiBd2zTg739P5tlO/9ub8eyQO1jz7wn+3HAYP293Huzblk9eHIgpy+IU6K7S6zQs/uhR2jaN4NSFBJZsPIxOq6F1k5rYb3g963afwmZXGNrrFn5cuYd9JxzD7wdOxhTpPF9v4ph+PD7oVs5EJ7Fg1V7sdoWubRvw8Yv3cFuruoz97I989y2v85mf4p6HsEAflnz2OLuPXWTusl0E+HlyX7eWfPP6YLw99MxftTfftjq2qMNrI3uQkmFi1fbjxCcbcm3TsFYQiz96FH9vD1ZuP05UXDI1gnwZ2K0F/TpH8uDbP3LwVPHfo4L4+3jwx6ePUTvMn3W7T3EiKoG64QF8OnYQWw8WHqhv5pyIimHCNytx12vp0b6hq7sirrPhZBbzthvZf8mCpWqsLiJusOZYFm8uSed/9/q6uitFVqFDYKtGNagZ4kffF77jdHRinttYrXaGvTGP0xcTc26w/s2iLcz/YCTd2jakdZMIpzmJ16sV6sfqHbE89eGvORWuj+etY9205xjYrQVvTVtBmsH5xtH3dW+JosCg174nw3htHqNGrcr3dfzy936WbzlK7HVVyVXbj/PnZ48ztFfrPEPg2Ae60rZpBD+t3MPb01bkG2QB/txwGB8PN4b2uoUdh87nW+UpTNc2DXh80K1sO3ieke/+hNXquOpJpYJvxw/l/h6tWLvzZL7HL6/zmZ/inoc2TSKYOHM1s5Zcu7py3vJdrP76aR6+u0OBgee9J/sye+lOPpzzd77V0U/HDiLY34sRb/3oVNGc+ecOlk95ki9fvY9ez04t1dtCjRvRjdph/kxZsJHPF2zMebx145r89vGjhe5/M+dEVBwvTVnG9Dfup3Oruq7uigDWHs9i7g4jR2KsEgCruGUHTbhr4b0BlSMIVuhpjDqthvdnrc43AF518kJCTgC8avN+x5dujaCC34hpi7c5fQmbsiys23UKtUpF3Rq5r6JNzTCjUkGPds5/ZdvsSr5BLd1odgqAAHuOR5NptlAjOO/+DevTBqM5m0lz1xYYAEvT8D5tAPhi4aacAAigKPDpj+tQFHiwb9sCj1Ee57O0GDKz+GnlHqfHTkTFcyY6kfo1gwrc91xMMpPmrM03wNWvGUjH5rXZcTgq15D2kbNxLNtyhEa1gunQrPZNvYYb3dutJQZTNjNuGP4+cCqGv7YeK3T/mzknomJ5afIy9p645OpuVHsrj5iZscXA4RgLFpsMAVcHi/aa+Gh1hqu7USQVOgQCxR4SVKlAq1GTmmECQKMpuKJ09NzlXI8lpRkBcNPlLpR+u3gL8ckGpk4YyqKPHuGeLs3RFvOSII1ahVajJiUjE406974+Xm7UDPbl1IUEp+pYWWvZMByAvSdyV07PxSSTlGakRYPwAo/hivNZUmcvJeU5TzE5PRM3fcFF8n92ncr1h8f1rp7LPcfyrkLvOnoRgOaFnM/iCPb3Itjfi5NR8RjNue9vefhMbKHHuJlzIiqWLIuVcVOWcfRs7s+kKB9LD5qYucXIyctWrFIBrFZ+2pnJF+tyTxOqaCr0b/VMsyXfiwmu8nTX8fjATtzVuSmNagXj5eGGqogjieZsK6as4i3RfiY6iV7PTeWJQZ0Y2a89094YSkKKgW8WbWHusl15BoP2kbV44t5OtG1ai/AgH7QatdPxbhTg4wk41k4sT54eegymbLLyOedJaUYa1wnJd//yOp+lJSmt5EvlXA22+fF01xe43dXHA3w8StyHG3l7uDmOnc8SQDcOxefdr6q7fFB1lGYw89KUZXz3xv00qCWV3PL0275MZm/P5FKKHWvlXk9YlNCsrUb0Gniuu7eru5KvCh0CC6NRq/j5w9G0bRrBon8OMHXxNuKTM7DY7NzVqSljH+xa4P43XmBRVGkGM1MWbOSrXzbT97amvDayBxPH9CPI14tPf1rvtO2dnZoy863hxCamM+OP7Zy8kIAhMwsFmJfP3RnSjY4v60BfzxL1r6SS0zKpGeyLu16bZ/gO9vfGmJm7wnRVeZzP0lSWATM53VGJDvb3yvP5q48bMotX6S3oZ+Jq9S+/YOmm0xR6/LI8J8I14lMMjJ2yjBlvDqZmSOWYp1TZLdydyZytRi4b7NgkAFZrUzcZcdfB47dXzCBY4YeDC9KxeR3aNo1g5bZjvPL5ElZuO8ae49EcPBVT7IpUSVhtdlZsPcaAl2eRlJbJ0D65F2p96r5OaNQqHnt/IXOW7WTrgXMcOBXDkTOxeHu65Xnc1AwTialGmtQNzXebG1398laX4IKKqw6ddgwXts9jnlr9moEE+XlyqAhDiiVVlPNZmNI4D6XhyJlYFIV85/xdffzQmbhcz2VfmTnu5ZH7vW9YQDUnIcVASoaJxrVD8hy6bVAruEh9F1XPxcupjJ28lGSp9Ja5H/818t1mI3EZEgCFw5R/jCzYWTE/e5U6BF4VHZ/m9G+dVsPdXZqVSVt5VXbsioLFast3GBVy97Ff52a4FzDH6o8Nh/D20DP2gdzVTH0eFZ2rlaemdUPzPWZhfv57H4oCLz3Y1WnIGuDVkT0A+OXv/Nc1LImSns/8lMZ5KA0xiels2HOaW1vUoUvr+k7PRdYLZWCXFpy9lMSuIxdy7XsuxrF+4G0tc1/ZOap/+wLb/WvLUfy83Xn4hu3Cg3y478oaiqJ6OnUxkbFTlmI05V/NFyVnsyt8v83A9M1Gko12yul6PlFJTFqdwW/7Kl4QrNTDwYfPxBKfbGDEXe2IikvhzMVEaoX5M/ruDlBGH8BPxw4kPMiX/ScvcSk+DQ83HX1va0p4kA/vz1qTa/t/dp2ic6t6fPP6YH74azcajZrOreoysGsLLl5OzbedKfM30K1tA54dcju3tqjD3uPR+Hq5E1kvlI17zuQaJt1+6DyZZgtj7uuMt4cbialGTl1MYEURrgi9au/xaL78eRPjRnRj9ddPs+bfE9hsdrq3a0ibJhEs23wk1+LFN6u457MwpXEeSsub3/7FH58+xg8TH2LppiOci0mmZogv93ZvidliZdyUP/Mcft15JIqTFxIY2LUFqRkmNu47g7tey33dW1InLKDANqcs2MidnZrwzpN9adu0Fsej4okI8WNg1+acj0nOd3haVA+HTscxdvJSpr9xPzpt4dMDRNFkWe3M3Z7JnG1GjNll9vUjKrn3lmfgplVxT6vSmwt+syp1CDSYshn17nwmPNKL10f1xF2vJSouhfmr9rD4n4Mc+vn1Um9z4Zp9PD7wVgZ1a4GXhxsp6ZmciIpnzKRFrNyWO2jM+GM7Oo2G4Xe2YdbbwzGYstl+8DzD35zHqP7t6d2xSb6vbdCr3/PCsC7cfUdzHhnQEbuicOzcZXYcjsq1fWqGicfeX8g7T/RlZL92ZGRm8ckP64r9+ibP38DRc5d5YtCtPDqgI1qthlMXEvi/qSuYf8PSIaWhuOezMKV1HkrDpYQ07h43k7EPdOXOTk0Z1M0R6lZvP8GXP2/K9xZ+NrvC8Dfn8eqonvRo35ARd7UlMdXIP7tOMf7r5Syb8mS+bSakGLj31dlMeKQXPdo3ol/nSM7FJDFpzlqsNjufvTSorF6uqCR2H4tm3OfL+Pb1+1zdlSohI8vOvO1GftppwiBFVlGIN/5Mx12npk9k0aZ6lTVVrQET5Y8WIaqBxwfdysQx/Xj6f4tcUhkVFUvvjo2ZMm6Aq7tRqaVk2pm3w8jCXSaM2fJVKopu2gh/ujZybRAcf+J01ZgTKIQo3NV5kpeTKscipqJs/bPrFP83dZWru1FpJRhszNrimPAvAVAU10uL0tgV5frSsYRAIaqQ8CAfQgNzL0UQWS+Uob1ak5phKtMrvEXl8tfW40yc9Y+ru1HpXEq1MWOLkUX7TGSW/UIUogrKtiqM/TWVQ5dc+wNUqecECiGctW4cwfQ3h7L90HnOx6aQmGKgVqg/A7u1QK/T8O53/+QsQSMEwO/rD+Gm1/DG6B6u7kqlEJVkZe4OI8sPmTFJABQ3IcOsMHZRGjNG+tM4xDVxTOPbpOd/XNKyEKLUZZqz0WjURNYLpW3TCLq1bUid8AD2n7zEezNWs2TjYVd3UVRAh8/EkZVt47ZWdVzdlQrtVIKF77dmsuKwGXPxV7ASIpfMbIVtZ7Lp3tgNP4/yHZz9OylZLgwRQgjh8MyQ23h28G2lesyrdxJSq1UoioKqqPf1rGCOxVqYu8PIP8ezJACKUtcoRMvMkf6E+JTf0k3jT5yWSqAQQgiH3cei0es0tGsaUaL9rTY7yWmZmC1WLiWkczYmmaxsG2djkomOT0OlUqPVqknLMKHWqHMtSl9RHYi2MHu7gfUnLWRJABRlIDnTzu4LFvo1d8dNWz5/KEklUAghqrmubRowrE9rOreqR3iQj6u7I0SVs/u8mVWHDfy4I40Mc8H3EmxfR8/Mkf7oyyEIjj9xWkKgEEJUR3VrBPDfZ/rTo30jV3dFiGoh3Wxn5qZUZm5OId2Ufxi8vaGeGQ8VfHeo0lBh1wnsc2sTLi5/l6cHd3Z1VyqkFV88xYnFb7q6G0KISkiv0/DKQ91ZN/U5CYBClCNfdzWv9g1k0/h6dG6Y/63jtp3J5sVf08qlTxUyBAohhCh9GrWKSc8N4OWHuqPXyb2DhXCFUB8NP4+JoGtjz3y3WX/CzOu/l30QlBAohBDVxDNDbueBO9u4uhtCVHs6jYpZj9SgWY38bx238oiZd5aml2k/JAQKIUQ10LlVPcaP7uXqbgghrvBxV/PpsFB0mvwvAvnjgIkPV5bdrT7LdYnqe7u35OH+7YmsF4ZOqyEmMY3V20/w0by8b1tktdrpc2sTnh92By0b1iDDaObouct8+uN6DpyKyXMfjVpF39siGdanNW2bRODv40GawczWA+f4cPbfxCTmTtVe7nqOL36D92etYdO+s7w2qgedW9VDo1Zx9lISM5fs4M8NeS+yezP7XjW01y08OvBWGtUOxmKxsf/kJb7+dQs7j1wo5IzmrVeHxjx5byea1Q/Dx9ONhBQDh87E8sNfu9ly4FyJjimEqNyeG3o76nJeo6/uhNNE+GuxK9A4TM/k4WGEluM6aHnZcdZE8xpu+BayMO+aI0b6tvByemzAVxf55ekIvN3Kp37y+qJ4dkeZuOcWb17tG1QubZaGJfsz+GJtMsYsOzqNijHdAnjkdr+c5y02ha/+Sea3PRlo1Cp6RXoy8d6QfI+XaLDxn6UJ7Ikyo9OoGNcnkMHtrl3JnpBh4+kfY4nPsFEnUMt3D9fAx11dpLaOxWZxz1cX8fN0/FwObe/D/90dXNqnJF/t6rjTK9KT1UeM+W6zcHcm7joVr/bJfUvQm1VuIfA/Y+7iiUGdSEgxsHHvGQymLJrWDcXHM/9SaO+OjenQvDZ/bT3GtgPnqR8RyIAuzbn9lnr0f2kmJ6Lic+2jUqv46IUBpBnM/L7+ICnpJm5rVZdB3VrQvH4YfZ6fhs2e9wXRd3ZqwisPdWfP8Wh+WrmHQF9PBnZtztevDcbLXc/8VXvz7WtJ933niTsZc39nth44x4zft+Pt6ca93Vqy6KNHGPPhIlbvOF7ImXU2qFsLvh0/hNMXE1m4Zh9Wq416NQPp2qYBf/97sljHEkJUDaGB3nRvV/4XgXjoVGx7sx4An6xKYsqaJD4aElru/bjetA0p/Pe+kAJDoMWmMHlNUq4QOGN0jXILgKmZNjaeNLLzrfrl0l5p2XbGxMcrk1jwVAT1gnUkG208MjsGT72KYR18AUexpn6wns0T6qGgMHhqNP+eM9Gpfv4XS9zX1odvHgon0WCj52dRDGztnVNB+3hVEkPa+zCykx/frEth1uZUXr4zsEhtJRvtDO3gy8cu/Ll85Hb/AkMgwJztRtx0Kl7o7lXgdsVVLiHwjtb1eWJQJ/afvMSod+eTZjAXbb829bln3CynG94/fPA8k54fwIN92zJx5upc+1itdoa9MY/TFxOxK46w982iLcz/YCTd2jakdZMI9h6PzrO9zq3q8f6sNcz8c0fOY3OW7WTlV2N4+O4OBYbAkuzboVltxtzfmW8XbXWqhn67aAvrpz/PB8/04+9/T+S8jqK4r3tLFAUGvfY9GcasnMc16sq5Sr8Q4ub17tgYV9+oo3tTT776J9npsYU705m9JRWbXWFEJz+e6uqf89yrv14m1FfL+uNGDFkKL/UOyAkRAEkGG68tusyFZCtaNXxwXwi3XhciBnx1kUdv9+N/K5P4aHAofVt48dueDLadMfHsT3F0rO/BewPzrvj8d3kiJy5nM2RaNCNu9WNoe0fVadi0aP5+pQ5eV4Lgq79eJiJAx8YTmaSZbIzvF8SS/RmcjrcQ4qPhh8drOq33VtDrvV5mtp0Jv8WTkmlnyLRoPhkaSsMQPb/tySA6xcKGE5moVPD7c7UARzXrzd8TsNkVtGoV3z9ag0AvR2UrNs3KSwsvU9Nfy6FLWTQO09OnmRcL/k0jNs3KO/cEc3eraxWmvRfMvPtnAmarQouabkweHor2yvfHot3prD+RydSR4fm+zz9sS2XcnYHUC9YBEOil4a0Bwby/LDHn/VOruK6SpyLCX0eWJf/vuWBvDX2aeeX8v16jwmqHq9c2bT2dyX8GOd7L+9v58NS82JwQWFhbKZk2AjxdW53u0TT/C0SuN32TATcNPNWl9IJgufxJM6x3awA+nreuyAEQYMv+s04BEOCvrccAqF8zMN/9Tl5IyBWcNu93DIPWCPLNaxcAMoxZ/LBit9Njx85f5mx0IvVrFlyKL8m+w/s4Jmgv2XiYGsG+Of/pdVp2H71AjWBfGtUuXlk6NcOMSgU92jV0etxmV/KtgAohqraCfu+VB5sdlu43OFV6opIs/LornZXjavP3K3X5Y28GR2OynPaLSbWyalwd/ny+FpNWJJFosOU8N2lFIt2bevHPq3WY/nANnp8fh/W633GpmTaOxWaz8616ORW9Ie19aBiiY9qo8HwDIMD4fkGE+mj47dlaOQEwPxeSLCx5oRafDQtjzA+xvNY3iH9erYOXXs3Gk5nFer1XeerV/GdQCA1DdPz2bC0ahuhznpu7LY1PhobmBECARqF6Fj8bwbIXa9OlsSd/7HOeQ7b9bCbj+gTyz6t1SM20sf64kd+fq8XsR2vw5VrnYD5hcTyzH6vJ2lfq4O+hZu7Wa1eodmrgwUO3FvyzdCreQqsI5xG+FjXdOBGX92tNMtg4GptF+7ruBR73qs2nMmle0w0P3bVwbcyy51Row3w1xKXnfVuXvNrKtir8tied3pMvMGx6NPsvFj2juMKX6w388G/BVcPiKJdKYGQ9R5l197GLxdrv2Lncw73J6Y4PlZu+aF1XqUCjVpOaYQJAU8AEzLMxSWRl5/7hSUrPpEGtgsNYSfa9pXENANZ883S+xw0J8ObkhYQC277et4u30L1dQ6ZOGMroAVHMW76LVTuOY7UWvEq5EKLqCgko/blERWGyKHT9OIoEg5V+Lbx5rue134X/njNxPsnCfd84RmbSzXYupVppXvNagOh9XfWnfV13jsVm5Syrsf2siXcHOuZ21Q/WUcNfy8m47Jz9FQUe7+KfU8UqK72u9LFJmJ6IAB2NwxyBrUm43im0FuX1FkWPpp45bVx1Oj6bb9alYLMrRCVb6dPMubLUIESfU5lrEqan5ZWQ1jjMuY/RKVbOJVp4fI5jzr3JonBn82u1ojqBOuoE6orVXwCFvEejLDaF5xfE8dbdwTnV1YJcSrUycVkisx+t4fS49rrvdUUhz4JHfm0NbufDvW180Khh+xkTT82LZdfbFXsI/pM1Bty0ah5on//weVGVSwgM8PXEaM7GnEdIKkhSWvHTrqe7jscHduKuzk1pVCsYLw+3Ig+DJKdlFr5RKe4b4OuJ1WrnqUm/5rvNsXOXi3XMM9FJ9HpuKk8M6sTIfu2Z9sZQElIMfLNoC3OX7SrW0LIQompISDG4pF0PnYrNE+qy46yJD5YnOl2YoihwZ3MvPhlawFys635fWWwK1/8qt0KwHRoAACAASURBVNqUXJveeJVlgGfZD3ZdX5HS39C+cl3/i/R6iyCvocsn5sby/aOO5UZmb0klJdPm9Pz1fQSc7k17/Vm0KwrhflqWj61d4v41CdNzMDrLaemTI5eyaBruHFztCry4II5+Lb1zzb3MS5LBxpPzYvl0aGiuIOrrrsZwpRoYn2EjzNc52hTW1tVbWHdu6IFarSLdZC/0wiFX+2BFOu46uPeWmwuC5fIq0w1mvNz1Ra7eXVXcwKJRq/j5w9FMeKQXpy4m8soXS7n/9dkMeHkWX/28udTbu9l90wwmtFo1+05Es3bnyTz/u1r5LN5xzUxZsJFOj33B0/9bRGqGiYlj+vHqyB7FPpYQovK7GJ/q0vZva+BB7UAd83dcG1q8tb4Hfx81EpfmKA6kZNqw3BDs1h5zFAKSDLZcweL6Yc/ziRYSDbacaldBPHRqUjILHhnRa1UYsxSn4eWbVZTXW1LpZjuNQh0ha8tpU4mPUztAh8WmsOnKMLbFppB6XaC8kGxhy6mCv5NGd/bjy3+SOZ9kARzv3aQViTzexXn+4/jF8bSMcOfR664azk+G2c7jc2N5e0AwbevkHjbu3cyLP6/8LPy+N51uTZwroQW1dTHZwtW3ed8FM25aVbkHwCSDrfCN8vDWknRWHb254etyqQSeuphIZL1Q2jWtxfZD58usnY7N69C2aQQrtx3jlc+XOD3XrU2DMmu3pA6fiaNZvTB6tm/E4nUHS/34VpudFVuPsX73abbPfomhfVrz6U/rS70dIUTFtn73aVd3gXfvCWbg1xcZcIs3gV4a6gfr+L+7gxg6/RJaNXi5qVk4JsKpmuemVTNkWjTJRhtvDwgmyPtaFeyde4J5aeFlftqRhodOxdcjwgtcb+2qJ7r68+S8GHo0zb8qp9OoePBWX7p9EsWz3QN4uHPhQaUwRXm9JfVczwCGT7+En6eayPDiDS9fT6WCGQ+HM+G3eN7+U0GnUfHxkFA61HOc93/Pmlh/IpMuBdzponNDDyb0C+KxOTGkm+wkGW18cG8I97e9Nrdy13kTC3emEeytYebmFAD6tfTO9wrd2VtSORBt5rn5164ReHtAcM6FJs/1CGDMj7FMXZ9C3SAdM0ZfGy4urK0NJzKZsSkVnQZ8PTRMG5X/RS9lZemBkq8D+NpvabjrVPRoXLL3vVxC4B8bDjGwa3NeG9WDEW//SLblWurV6zRO/y4N0fHOt1rRaTXc3aVZqbZRGhau3svQXq15dVRPNu0/S3yy85BNg4ggzl5KKtYxg/29SEx1Hka3KwoWqy3POYtCiKovMdXIym3H6H97+f4ePP7faxeo1fTXsucd57lWwzr4Ol3xe6O7WnrRp1newSDAU8MPT9TMd9+rS9Pc6J5bvLnnlsLnSL5zTzDv3OM8n/vGY04eHpbz/74eajZPqJvz7wn9cl8QWNjrvV4NPy2rxtVxemxIex+G5HGhynM9AniuR0CRjvP+dWvkadUq9t7wnrSu7Z6r3eL2/942jnl2VrvCMz/GcTo+2+n5jvU8uPRp40KPc9VLfQJ5qU/+F4MGeTsu4slLYW093NmvVEL+zZi56eYq9WN/SWXGyABuq68vfOMblEsI/PvfEyz65wDDerdm/bTnWL/7NGq1iro1AtCo1Tz41o+l0s7hM7HEJxsYcVc7ouJSOHMxkVph/oy+u4PzxIcKYtfRi3z9y2bGPtiVDdOeZ9X24ySnZxIa6E3bphGkpJsY9Or3xTrmp2MHEh7ky/6Tl7gUn4aHm46+tzUlPMiH92etKaNXIoSo6L78eXO5h8CbJVOYKzetWsW0UeHM3JTK8bhsIsOLH1KqujlbU3OGzkvKrsCLv6QyY6Q/bWsX7xyX22LRr36xhF1HLzCibzuG9G6Nu07LhcspzPtrV6m1YTBlM+rd+Ux4pBevj+qJu15LVFwK81ftYfE/Bzn08+ul1lZp+fSn9ew/FcNj93Sk962N8fP2IM1g4sDJGH5du7/Yx1u4Zh+PD7yVQd1a4OXhRkp6Jiei4hkzaRErtx0rg1cghKgMjpyN48M5a3nrsT6u7oqoRnQaFc/1zLtKWd2dT7Lw4V/FG+3Lj8mi8NKiNL57KIBm4UWPdqpaAybK31pCCFFNfPBMfx69p6OruyFEtRadYmXItGguJt9cFfBGNfzUzBwZSL2gwhfAHn/idPlcHSyEEKJieGf6St6ZvtLV3RCi2lp7zMjdX14o9QAIEJtm54VfUolNL9rawBIChRCimpm7fBd3PPk1yzYfdXVXhKg2tp42MWpWDKO/j3FapLu0nU+y8uLPKSQbCw+CMhwshBDVWLC/F/f3aEXXNg3o0Kw2Pl4lX2JECOHsWGwWm05m8tOOdM4kZBe+QylqXUvHzFGBeOazfOb4E6clBAohhCgFClC2d2gruHmvcJTASBTPUFAVPh9KiOqgUz09340MQJvHuK/MCRRCCFE6VK6rJyjeNVGCmksAFOIG/57P5qVf81+HUEKgEEKIm+eiDKj41HIEQI8QCYBC5GHjqSxeWZx3EJQQKIQQ4uapyn8sWPGtgz2oBYp7EKjk60yI/Kw5lsWbS9JzPS6fGiGEEDetvAuBil997EEtwM1fAqAQRbDsoImJfzkHQfnkCCGEuDmKUq4pUPFriD2oOej9JAAKUQyL9pr4aHVGzr/L7bZxQgghqiDFjt1mQaXRUR51BcW/MfagSNB6uWQIWojK7qedmbjrVBAhlUAhhBAlpNhtWM0ZgApVOVTklICm2INbgE4CoBA3Y9ZWIyCVQCGEECWg2K1YTRmode6otfoybk2FEhiJPagZaPS4dEFCIaoQCYFCCCGKRbFZsZrTUWn0qHVlfIcRlQZ7YCRKYOSVACiEKC3lMhx87s+32T77pZz/6tYIKJM2Nkx/nvXTnmPNN0/Tr3NkqR27RrAvK754qkjb+vt4sGXmiwT5eQLgptey9ttnqBnsC8DLD3VnwiO9crYf1b897z/dL+ffv0waTbe2DXP+/e34IfS/vVlpvAwhhLhpis2C1ZSGSqNDo3Mv22FgtQ57UHOUnAqgEKI0lUsl0JRlofPjX5Z5Gz2e+RaAFg3C+f6dB1i1/XiZtpmX1AwT3y7ewoTRvRn/9TKeHtyZPzYcIibRcVn21MVbWfHFUyxcvY/UDBOPDbyV+16fnbP/W9NWMHXCEO5+6Rxtm9bC18uNlduOlfvrEEKIG9mt2VjN6ai1bo4AqCm9rxCtRs3c90YwbsqfJKYaQePmqAAGNAZ1Pjc/rWA+HRbKl2tTiE6xuLorRRLgqWHS4BDCfLUoCsSkWnn7z3jSTHan7Z7q6s/T3QPo8N9zBR6vdzMvHr/DH4tNwa4oPD8/DpPFcdm4r7uarx8KR6WCdJOd1xZdxnzluYL206jh4H8acORSFgDz/01nyX7H1a0jO/nhrlPx/Zb874ghCuby4eAhvW7h6cGd0Wk0bD8cxbvTV2K1OX4AawT7MnHMXSSkGOl/eyR9np9Ocnpmocf08tBzKT7N6bFm9cL48Ln+aNRqrDY7T334a86xagT7MuXle4lNSKdZ/TAsVhtjJv1KXFJGrmN3bF6Hd564k4fe+QlDZlae7f+8Zh/D+7Thzk5N6dc5kntfvRbysrKt/Hf237z3ZF+i49OYtngrGcZrxzl9MZGNe87w+KBODLijGeOm/Fn4SRRCiDKWEwB1bmi07leuBi49A7u2YO/xaEcA1Ho4AqB/w0oTAAFeXxRfZsduXdudnk09+WJtcqkd86sRYSzZn8HiPY7vuqHtfZg8PIwn58XmbDPiVl90GhVpJluhxzsRl81jc2PItiq8dlcQg9r48MsuRwHkqW7+rDpsYOHOdJ7o4s+IW/2YszW10P38PDTsPm/mkdkxudpbuDONlePqsHBnOpnZ9lzPi8K5NATWDvPnheFdGPjK9xgys5g8bhCj+rdn7vJdOdv07tiEcVP+4K1pKwo8lrubltVfP42Xux53Ny2j31vg9Pyp6ASGv/kDVpudlx/qzn09WjJ76c6c52+/pR59X/iOE1HxjBvRjRF3tePzBRudjtGwVhAfPNOPR/6zMN8ACI4ls979bhXLP3+SRycuxGJ1/vCs332a0Xd34JbGNXhvxqpc+3++cCMbv3uBPzYc4lxM6X3ghRCiJOzWLKxmAxqdO2qtW6kHQIB+nSP5YuEm0Hk5AqBfAx7oFMiDt/pizLIzb1safx91XNHYMsKNN/oHkW1VUKlUTFh8mfgMx+/Zp7r607ymG1q1ijpBWn7fm0H7uh7U9Ney7riRqetTctpcNa4Oe6JMhPpo0WtVvLAgjgyzI0wEe2uYPDwMs0Uh0EvDk/NicipkT3X1J8BLQ8d6Hizek54TWOY8VpMP/0rkdHx2zr9PXc6mVoCW2oE6/rM0gT1RZsBxcfNnw8II8tKQkmmjQYiOx+bEkmzMHbbcdSrG3xVEiI+GWgFaXrsSNv081HwyNAyN2lFp+2R1ErvPO47furY7bw0IYvj0S3mebz8PNU3D3Vi851q4Wrwng9fvCsLLTY0xy/FaF+50vLZhHXwLfQ+vr4B6u6mdKopt67izaHcCAJtPZfLaXUE5IbCg/fw9HecnL3YFdpw1cUcjj5yfDVE85RICPdx0bJj+PADZVit9X/gOgA7NarNp79mcQPXnxsM8MqCDUwiMT85g2eajhbZhzrJy14uO497SuCaz3n6Abk9/g9Xq+GFqXCuE54begUajpm64P//sOuW0/9lLSZyIcnywjp2Lp3v7hk7P63UaZr/zIG988xeXk3NXCG/UvH4YMfFptGpUg/W7Tzs9p9NqCA/yxd1Ni5+3O2kGs9PzNYJ9MWVZaNkwvNB2hBCiLNktZqxZRkcA1LmhUpfN10aDiCDOJGQ55gD61sPPS8/zPQPoPfkCFpvzStT/GxzKsz/FEZ1ioV9Lb17vF+RUhcvMtvPWHwm0r+vOJ0ND6TPlAhqVin9ereMUAusEann4+2QSMmw83zOAh2/zY+oGx/OJBhuPzolBUeDtAcF0aezJXwcNOfu2jHBj+HfRKIUskn00NotJKxLp0tiThzr55YTAXpFeqIBH58TgplWx8636+R7DbFFYeiCDGn5ap0rg8z0DWXvMyKLd6YT4aPjl6Vr0+izK0W5MVoGVySBvLZfTrbkej8+wEeSlyQmBJdEkTE+7Ou58+FdizmPebuqcgJ1hthPolfs+z3ntp1VDqwg35jxWE7uiMGVNMkdirhs9i8+mcaheQmAJlcuFIVfn6/V45tucAAig1To3r0JFtsX5By8lw1Ts9g6eiiEr20rd8GsXoMx8azjfLt7Ccx8vZvG6g7n7aHaew3HjAgQ1g/1Yue04Y+6/rdD2fbzceOq+2xj02mzu79GKiBA/p+efGdyZ5VuOMHf5Ll4f1TPX/hPH9OPlKX+SbjQz4I7mhbYnhBBlwW4xYcsyotGXbQAEQKXGFtgMxbceqB2Vs9Px2bkCIECojyanenT4Uhb1g50vGjl12VGJSzPZOZdoQVHAalew33CoVJOdhCsVxGOx2dQJulbhjAzX87/Bobx/bwi31vdwLK57nfXHMwsNgOAIYwApRhte+mvHqB+sywkzWVaFMwnZhR/sBo3D9DnHSMiw4aFTob7ShMWmEJWU/9zERIOVcL/c72eYr5ZEQ+FDv/mpG6RjygNhPPtTrNN7l2y04evh+M739bgWCAvb7+TlbHpPvsBjc2KY9FcSX40Ic9pPUZAVg26CSxeL3nEoim7tGuDt4fgAD+rWgu2Hzt/0cRvWCiLI34vYxGv3yPPxcuN0tOOvizta1yv2Mc/HJvPRvH+w2uw8fHeHArd9bWRPZi/dSUKKgS9/3sS7T/bNea5GsC+DurVk5p87mL9yD51a1qV5/Ws/1P06R5KSbmLP8Wg+nL2WCY/0wsOt8syJEUJUDbZsE7ZsE2q9h2MIuAwDoOIeQFSKQoP6DeFKOzGpVhqF6tGqc3/DJxhs1L0S2FpFuHEiznl6zvVhr6Cg5u+hJszX0V7bOu5Ooem/94cye0sq7y5J4NAlc659bTcmynzkt9n5RAuRNRzffRo11A4s+Pe81a7g5eb8lX0mPptWEY4lekJ8NKSb7TntadUqagXkf8x0k53jsVlOw7zDOviy/6K5xPPrIvy1fDUijBcWxHEp1bnKuOOsidsbegBwRyNPdp03FWm/69/+NJMNyw35tEGIjnMJleNCnIrIpXMCL15OZeqirSyZ/ATZFht7j0ezcM3eEh3L3U3LP1OfRa1SYbXZeeXzJWReV92b9ts2fvlwNGkGE8ejEkrc5wlfL2f550+y7eA5zkQn5Xq+ad1QOjSrxcSZqwFYsvEwj91zK13bNGDz/rO888SdTJ6/gewrP8mT5q7lg2f6M2TCXNz0Wl5/uCej3p0POM7Pqu3HeXF4Fz75cX2J+yyEEMVhy87EbjHnLARdpgHQIwglIJJVx630b+3H8b8dw53JRhvfb0nlpydrYrUrLNyZnjMcO2FxPJ8ODSXdbEdR4I3fS3ZBRmqmnZfvDCTcV4tKBS8siMt5btVhA2/0D+JiihVf99xDlzdr3XEjA27xZtYjNUjJtGHMshcYWLeeNvH4Hf5MHRnOc/Md/fx6XTJTHgijX0tv9BoVb/x27Ty0iHArcE4gwEs/X2bS/SE82NEXXw815xMtvLbocolf0xcPhhPkpWHyMEdh42C0mYnLHMWXH7enMXl4GHe38sauwPPz44q0X5fGnjzRxR+bXcFDr+b/rnuvVSro0siTz/+WufMlpao1YGI53vZbCCFERWbLMmK3ZqHRe6DS6FGpSz8AXaV4hqAERKJ410Cn1TLv8Zq8uDCOpJsYjiyOTePr0u2TqHJpqyBatYq1r9ah9+QobC66yHVga28e7+LPqFkxNzUfsDw90NEXPw81MzbJEjElcffwDNcvESOEEKJicATAbDR6T1QaXRkHwDCUwEgUrzBQabDYFB6amX/Vqiy48vbDnno100aFY7Ep+Hqombkp1WUBEGDZAQOKAh3qurPxZOFLsVUEV6/KFiUnlUAhhBBYzQYUu8VRAVSXcQD0quEIgJ4hoCq7doQQ+ZNKoBBCCKzmDBS79coQsA5VGQYzxTvCEQA9gqEsbzknhCiUhEAhhKjGrOZ0FLv92hBwGQYzxae2IwC6B0oAFKICkBAohBDVlNWUjqLYr6sAlmEA9K2LPbAZuPlJABSigpAQKIQQ1Y2iYDWng6Kg0Xug1ujKNJgpfg2wB0aC3kcCoBAViIRAIYSoRhTFjtWUjkqlciwEXdYB0L+RIwDqvF17Oa4QIhcJgUIIUU0odhtWc4YjAOquBsCyC2ZKQBPHELDWQwKgEBWQhEAhhKgGFLvNUQFUqx0VQHUZB8DAyCsB0A25uasQFZOEQCGEqOIUmxWrOR2VWota7+6oAJZVMFOprwXAsmxHCHHTJAQKIUQVptgsjgCo0aHRuaMqy2Cm1mIPjEQJjAS1rmzaEEKUGgmBQghRRdltFqymdNRaHRqdx5UAWEY0ekcADGgiAVCISkJCoBBCVEF2azZWczpqrdt1FcAyonXHHhCJEtBIAqAQlYiEQCGEqGLs1iys5gw0OnfUWreyDYA6T0cA9G8gAVCISkZCoBBCVCF2ixlrlrGcAqC3YwjYrz6o5etEiMpGPrVCCFFF2C1mbFlGNPorAbAMg5mi93XcB9i3rgRAISop+eQKIUQVYMs2Yc/OdKwBqNWXbQB083cEQJ/aEgCFqMTk0yuEEJWcLTsTu8VcPgHQPdARAL0jJAAKUcnJJ1gIISoxpwCo0ZVtAPQIdgRAr5qg1pRZO0KI8iEhUAghKilblhG7NQuN3gOVRo+qDIOZ4hl6JQCGg0oCoBBVgYRAIYSohGxZBuxWCxq9JyqNrmwDoFe4IwB6hkoAFKIKkRAohBCVjNVsQLFb0Lh5oFKXcQD0rukIgB7BEgCFqGIkBAohRCViNWeg2K3XKoAqdZm1pfjUcgRA9yAow3aEEK4hIVAIISoJqykdRbGXTwD0rYM9MBLcAiQAClFFSQgUQoiKTlGwmtNBUa5cBFLGAdCvHvbAZqD3lQAoRBUmIVAIISoyxY7VlAEqJWcZmLIMZopfQ+xBkaDzAZWqzNoRQriehEAhhKigFMWO1ZSOSqVCrfO8EgDLLpgp/o0dAVDrJQFQiGpAQqAQQlRAit2G1ZyOSqV2VADVZRwAA5piD2oGWndAAqAQ1YEqKi5NcXUnhBBCCCFE+Xk/6jQy41cIIYQQohrKdzj483UZ5dkPISqNl3v5uLoLQogr5LtKiIK1q62ne2O3PJ/LNwT+siezzDokRGUmIVCIikO+q4QomEpF8UOgEKLkxi1OcXUXhKjU+kS6c09LD1d3Q4gqTUKgEGVgx7lsV3dBiEqtSah8PQlR1uTCECGEEEKIakhCoBBCCCFENSQhUAghhBCiGpIQKIQQQghRDUkIFEIIIUSxPNsjgFmP1HB1N8RNksuvhBBCiDwMae/D1yPC833+2Z/iWLK/ai9WvWpcHUZ/f4n4DJvT4/sumEnJtOWzV9nrGenJq32DaFHTjSyrQlSShZmbUli8p2q/H6VNQqAQQgiRhzVHjHT7JAqACH8tC8dEMGpWDBeSLQDEpVld2b0yF+arpWVE3osM7zhrYsdZUzn3yKFhiJ4fHo9g9tZU/u/3ePRaFZHhbiQaXBdKKysJgUIIIUQeMsx2MsyONT+tdgWAC8kWTsc7rwP61oBgdBoVu86beP/eENQqaPv+uZzn727lzbM9AmgcpsdmV1h3LJPXF1/GbFGcjuGpV5GSaWfUbX546VXsu2Bm/OJ4zidZcrbTqOHN/sEMbudDoJeGuHQr83ek8/W65JxtfD3U/GdgCHc08iDUV8v5RAsfLE9k3XGjU791GhVjewfwQEc/Qn00xKRaeXFhHHuizDSr4cYfz9dCrYL97zUAYMwPsSw/aMjpb7s67gyZFu10zGBvDRPvDaF3pBcaNeyOMvPekgROXnY+Z8vH1mb+jjS6NPbkzuZeZFsV/j5q5M3f453OS15a1XLDrij8Z2kCypVNd58359pu8vAwfN3VPPVDbM5j97bxYdLgEFq8e9Zp2yBvDe/cE8ydzb1w16k5GZfFsOmXMGTZnfZ9sVcAjUL1pGTa+GJtMvO2pTkd48P7QugZ6YWiwMrDBt5bkkC6+doxgr01TBocSpdGHrjp1JxPzOZ/K5JYe+zaezOsgy8v9AygbpCOVJOdHWdNPPdTLPaCT0uJSAgUQgghblL3Jp60qe3GuJ8vk2R0rkglG218tjqJwzFZhHhr+OnJCB6/w5+pG5zvLPRQJz/+2JvB8OnRqFXw2fAwJg0O5aGZl3K2GdbBl4GtvXlo5iUSDDYahehR3zC732C2s/+imakbUkjIsDKmWwBTR4XT6r2zWGzXksTb9wRzbxsf3v4jnpOXs2kSpufUlYB7LDaL+765yLrX6tJm4tlcw8H5mTG6BooCw6ZHY7IojOnmz2/P1qLHZ1Ek3VCp++C+EP63IomPVyZRJ1DHd6PDOZPgzzfrCr7j0uFLWahVKgbe4s3SA4Yi9asgahXMfzICq13hibmxpJnsNA7VOQXAu1p48dWIMP63IokNJ4yE+mqJT79WCVapYO5jNbmUaqXPlAu4aVV8NSKMT4aG8sxPcTnbvTswBDetij5TLmBXoHUtN6c/KuoF6ZgyPIyHv7/E/otZ1PTX0ihEVyYBECQECiGEEDetXrCODv+NzhV0AKdh0ySDjQ0njDSvmXuYNcui8Mbv8WRbHd/4321M4ZOhYU7beLupUatVpJnsJBlsJBlyD8naFfhh+7UK1Y870nj5zkAiAhxVQQB3nYpRt/nxf7/H51T3bqzWFVf7uu50qu9Bp0nniU5xtPPm7/H0jPTigY6+TF3vHO7+PWvm+y2pgKPCumS/gbZ13Att53R8Nq/8eplPhoXxeBd/FvybzpL9GWRZS5aUbq3vwS213Lht0vmcof5jsVlO2zzZNYA/9mUwfaPjNRyPcz5X7eq4c0stN0bMuFY9nLImmTmP1cRTH09mtuMxbzcVKpXjDwOzRck1pcDTTY1aBWaLQmqmjdRMG0djnPtSmiQECiGEEDfpSExWngEQoF9Lbx67w486gTo0ahX+nmo2nsjMtd3ZxOycAAiQmmnH2825zDd/Rxrt67qz9Y16LNmfwYxNqbkCS7C3hhd7B9KlkQe+HhpUVx5316pytqkVoMND5xhyLi2Nw/QkGW05ARDAZoeD0WaahecOvcfinPudlmmjUYiuSG0t2p3OikMG7mvjw5Nd/ZnQP4gn58WW6PU0CdOTZLDlBMD8tvnrYP4XnTSv6YZGrWLrG/VyHtNqHMP3IT4aopIcIfD9ZYnMGF2DnW/V56cdaczdmupUZT0ak8VHK5NY8FQEO8+ZmLk5lXXHjTnD3qVNQqAQQghxk7LymcfWvYkn3z0czrM/xbHmiBGrXeHTYaH4e2hybWvKLvyb3mRRePanOJqE6Xmyqz+rxtXmfyuScipUALMfrUmaycbIWTHEpVkJ89Wy7936Tse5GgdLM1zoNao8H1eB0zD0VUV5vQUxZtmZ/28aC3am8cUDYXz+QBg9Po0qcB93Xe4+qlRQWE8K20atgnSTjTun5G7/+ukB55Ms9P38At2aePJM9wC2vlGP0bNj2H7mWkX363XJLNiZxsO3+fHViDB2njPzxNyYMhkSlnUChRBCiDLSrYkn+y+aWXHIkHNxSZ3AolW7CnLycjbjF8czfnE8r/YNzHncU6+mQz13ZmxKzRlqzKu96BQLWVaFNgUMv14NHWp13uHuRkdjswjy0lD7uvY0arillvtNDzUXRFFg2xkTIT7OwdqQZcdD79z3RqH6XPufibcQ5KWhVkD+78uZhGza1M7/XB2PzcbfU4Ovh4b4DJvTfzZ77u03nczkoZmXWHHIwDPdA3I9n2RwXHhynbSstAAAIABJREFU95cXuauFV75Xad8sCYFCCCFEGYlOsVIvSE+QtyOgDG7nw20NPEp8vG5NPOnR1JNQHw0hPhpa13bnXOK1YczMbDvJRhsd6jkCS4iPhgn9g3Idx2RR+GVXOm/2D+LO5l7UC9bRM9KThiHXQlJcmhWrXeHeNj4EeGrw9Sg4MuyJMrPzvIkvHgijeU036gXp+PD+UNy0Khb8m1bgvsVxdytvRnbyo2M9D5qE6enf0ptxfQJZfdj56uf9F8x0qu9B03DHa2pd250HOvrmOt72s5mcuJzN1w+F0b6uO41C9dzf1ge364bP52xNY3A7Hx67w58GIXo61HPn9obX3sed503siTLz3cPhdGnkSe1AHZ3qezC6s59TW8M7+NK2jjt+HmrqBeuoH6x3ev/qB+sY3M6H2oE6fD3UdKrvgcWmcCm1bJYjkuHgYlo+tjbrj2cyeU2Sq7tSqTzbI4D2dd15cl5s4RuLMtGhnjtTR9agy8fnneYdVWS1A3X8+3/1uP2j8zkT2kXRyGeuYpj/bxrt6riz8fW6ZFsVNp3K5J0/E+ja2LNEx9NrVLx9TzB1AnVkWxV2nTc5XX0K8MKCOD64L4RHb/cnJdPGB8sTqemf++v+3SUJGLPsfDI0lEAvDReTLTx73bHSzXYmLk3khV4BjO8XxIsL4lhxKP+rcRUFHpkdw38GhrD4mQg89Gp2nTfxwIxLTsuk3CyLTWH07X7UDdLhrlURk2rlz30ZfLE22Wm7JfszaF3bnV+ergXAyctZfPhXIu8ODHbazmaHh2Ze4v17Q5j/VAQ6jYqjMVmsPHzttS7dn4G3m5pnuvvzn0HBJBttfLwqiW1XhnEVBUbNusTb9wQzdVQ4vu5q4tKt/Lor3amtcD8t4/sFEeKjISXTzpojBj5ZdS1PKAo8crsf/xscilaj4mRcFo/Nic13vunNUkXFpeX5bXDbp5fLpMHiKIvV2vNb/byoihMCb7atyii/13xbAw/qBev4eWd6PntWHjteDyt0m9L4/Fz/868okJJpY8dZE+8vSyxwAnN+wv20PNLZj49Xlc0fMHc296JPMy8m/BZfascsbgisbp85X3c1S16oTc/Pcs9DquyfudGdPHmum0+h21WE7yohKrIHO3gyrmfuz9L7UacrdiWwtFdrL2j189JWnm1VFBV1dfnKzJBlp+/nF9CqVdQJ1PH6XYHMe7wmvSdHFXuScFyatcwCIEDvZl5lduyiqI6fuZ6RXmhzX18AyGdOCFG4Ch0Ci7pau1at4pW+gTzQ0ZcgLw2n4rP5bHUSq49cmx9Q2OrnRV1hvSgKa6tnpCdv9g/mhQVxfPNQOJE19PT+7ELOIp2yunzJV5f/f/buO7yp6o0D+Pdmjzbdgw5aRtlLlqBU9hIEURQcOHErioK498At6k8cKCiiIIgoirJk773L6qQ7bdO02eP+/kib9jZpm7RpkzTv53l8pMnNuSdpb+571ntcycbuT6ws7D1gl4qMKNVYsOHJRCRHipBeXPMZuZKpfmQ3GVbMjkfcvIucc7jyWgDoHS/Gy5Mj0T9JArMF+PdMJZ5aaeuF+WRGjH2uzayhIThfYOT0Trl6jjHd5Xh5ciSSI4W4VGR0OWh15e+voR0d5o4Nx9R+wWgfLkSZ1oLvd6vwvzo5zbxxzTW0i8FtgxV4f3oM+Dwg78MUAECvV9NRWrUSsb5rrk+CGK/cEIUBSRJojVb8e1qD1//k/i7EAgYZCztj+uIrmD8hAv0SJVBWWvDdLhVnFSpgy4/2yg2R6BUvhsliy682d1Uhskpo+J4QX+fTQaCr5o4Nx8xBCjz9ayHSi00Y3V2Ob+5qhzu+zcPuS7ZcTI1lP3c1w7orXMm0nhguxCczYvDl9jJkKE2cmwhll296dvnGsrH7u+rfh7BW74+rmeqdcfW1caECrH4kARtOVuLNv65AJGAgFdX8Ic1dVYggMQ+lGovDcLCr54gPFeC7e9rhm50q/LC3HPGhArw3Pdqlz8WVv7+GdnS4XGzC3FWFSC82YnAHKb6/Jw57L+scco615jXX2C4GvxxUQyLk4b5hIUh9r+G0GNXCZHyseigBvx1R49k1RVBIeHjzxigsvTfOIVgEgEW3xeKFtUU4m2fAiK5yfHBLNA5VTYCv9vVd7fDLgXLctywfCgkPQzpJkddCk9gJIZ7l90Egnwc8PCIMz/1WhO1VyTeX7lFhQJIED48ItQeBjXElw7onhUh5+HRLKTafdeyhouzyTc8u31g2dn9WPaH4cKae89m7mqneGVdfO3OQAiqtBfNWF7o9DO3qOW67OgS5KjPe2aAEy9pSWCzaUor/3VH/vGB3NLSjw5+15hZvPqtBTqkJ3duJHYLA1rzmXNnFwF13DglBmdaCl/+o2XN1zi8F2PNcMq5qL3F4v8v2qOzfUSsOlOOB60LRL1HCCQKDxDxYWds1V6qxcBq0hBDf5vdBYHXW8+N1vryOZevx6EjH3Dv1cSXDuqftvOA8QKXs8k3PLt9YNnZ/o5DwcOmdTuDzGIgFDNYdq8CTKws5CV5dzVTvjKuv7RIjwokcQ5OSlbp6juQIIU5eMXDeW92tmZqjvh0dBDwGD1wXisl9ghCtEIBlgRgFn5MeolprXnOu7GLgrpQYkcNnnKE0oVxnRbdYkcP1XffzL9dZECzhvt9HV+Rj0cxYTO0XjO/3qLD6sJozRYMQ4rv8PggU1pehnIFbaTBcybDuac72OaTs8s3LLu9KNnZ/Ur0wBAA+vy0WDAOotNxAxtVM9c64/FqGaTSjfnPPwTBw+APzZCqb+nZ0mDc+HNOuCsZ9y/JxNt8WINUOWGtr1WvOhV0M3CWqZxFJ/ddc42k9tqVpMfCtDEy7KhiPjAjDQ9eF4ubFuShUt51eeBLY9j6fjOQIW4eD0cwiQ2nCj/vKsXSPqknltUQmhaby+2TR2aUmVBqsDsOC/ds7ZiivL/u5qxnW3eFupvVqlF3eM9nlG8vG7i+qF4ZkKk14elUhru8dhOt7B3GOcTdTfVNee7nIiD4JYlug1kBd+U6+UVw9R6bS5DDtoXO063/7Tb3mhneRYe3RCpzJswWAQj6DdiHNbx8395pzZRcDlmXBb+iXUsfZfCP61vk9dowSQSHlNeuaM5ptiYfHVzVYpl3VeGoXQvzJoi2luGZhJqZ8kYPfj1XgzRujMKVf0/7OvZ1JoTa/DwKNZhZLdqmwYGIEUlNkiAsV4O5rQjCpTxBnwQBQf/ZzVzOsu8PdTOvVKLt887LLN5aN3Z9dLDLi0y2lWHizLbFrNVcz1Tvj6mt/PaxGjEKAd6ZFo1usCD3ixJjchxuM5pSZMLSTrYwYhcDtc6w8pEZShBDzxkcgLlSA/u0leGpMOFzVnGuub6IEQj4DkYDBa1Mi60274gpPXXOu7GKQU2ZGfJgAgztIERXMr3dkpNovB8uhkPLwxtQoJEUI0StejE9nxGDnBS1OXmnafMOHh4ehS4wICgkPveLFCJPzka5sO4uxCAFsc14zlSacvGLAZ1tLsS1Ngwk9HYO5uWPDsX1+EtLf7YwjL3fAY3WmpX0yIwZ3DQ3BrKEhyPswBdvmJXGe5/OABRMicOyVDrj8bmf8+nA8Upxsdecpfj8cDAAfbiyBzsji4xkxiA7m43KxCY//XIBDmdwhwIayn7uaYd1V7mZar0bZ5ZuXXb6xbOz+7ov/yjC5TxDevSkaDy237QThaqZ6Z1x9bVaJCbd9k4sXJ0Vgw5PtYTSzWHe8wr5ICAC+3anCVYm2v920AgOuX5Tj1jlySk24c0keXrkhEo+NDEN6sRHP/FqEtY8muPTZNPWae+tvJT6ZEYNjr3SAxmDF8v3lWH3YvST0tXnqmnNlF4Pt5zVYe7QCP94XBwvLYsxH2chvYDFUcYUFN315Ba9PicLWZ9rDbAE2ndXg1T+Km/x+B3eQ4PFRYQiW8JCrMuPzrWXYdMY/UzIR4iqzFRA4aXQ1lmmgoUwKAPDcxEiM7i7HXd/lobjSgnnjwrHigfgW2+nJp3cMIcQXtdaOIZ5WX55AQnwR7RhCfMXe55OxdLcK3+5SQchnMLq7HIvvjMX9y/IbzSW897lkfLGtjDO69e1d7ZwGgUI+gzNvdMSDP+bbs53IxTxceKsT7liSa3/MXX67YwghxHN4DNPoHEFCCCGOXpociQUTIyAR8lCmseCh5Y4BoDuZBpxpHy5EkJiHL26PdfiujvXAPGVnKAgkpI0LEvMgFTFITZFxdhkhhBDimi+3lWHVYTX6Jkjw2W0xyCl1nHbhTqYBZ6rXtD3wYz4u19nkoKlTpBpDQSAhbVy/RAl+mh2HogpbsmdCCCHuqV4Ykqk0YUx3OT6dGYNJi3LsWTwAbqYBoP5MA/VlUsguNUFrtKJztKjV0pr5/epgQkjDdl/SIvm5Sxj8dka9CcoJIYS45pU/itEuRIA5o7krf13NNFBfJgWDmcX3u8vx/MQI3NTftpd573gxHh0RBlELbVxBPYGEEEIIIS4q01rw0rpifH5bDP49o8HZqp4/VzMN1JdJAQDe+1cJtd6C+VWpslRaKw5k6Dy6UUNtFAQSQgghhNTjmnczHR7783gFZ89xwJZK66YvrzRaXqHajJsXOz/OYrWlAqub57il0HAwIYQQQkgAoiCQEEIIISQAURBICCGEEBKAKAgkhBBCCAlAFAQSQgghhAQgCgIJIYQQQgIQBYGEEEIIIQGIgkBCCCGEkABEQSAhhBBCSACiIJAQQgghJABREEgIIYQQEoAoCCSEEEIICUAUBBJCCCGEBCCBtytACCEtQSHhYVr/YAzrLEOveDHC5XxIRQw0BhaZSiMOZOix6pAa5/INrVKOuyb1CcKMQQr0SZAgTMZDhd6KDKUJ609UYPm+cuhMrF+WQwjxHRQEEkLaFImQwROjwvHQ8FDIRI6DHSFSBn0TJeibKMHs1FB8t1uFN9YXw2JtmXKaUv+v7myHcT3lnMfD5XyEy/kYkCTBrKEhuOu7PGQoTX5TDiHE93g1CFRIefjqznYY0VVmf2ze6iL8fKDcpde3Vsv0wtudECR2beT8xv9dwcEMnUvHNvX9U8+EZ8shbUuYjI/7U50HbnXxGOCB1FBoDFa8/29Ji5Tjrg+mxzgEXHV1ihLhx/vjMPHTHFQanEedvlYOCRwjusowY5ACA5KkiArmQ2e04kqZGf+labDigBo5pa41FjxVjqv6JkowY5ACQztK0S5UAKmQQanGgrN5Rmw5p8EvB8uhb+C+IhUyeGJ0OKb2C0Z8qABaoxUHMvT4aFMJTufWfz8e11OOZffGAQC0RiuuXZiFQrXZo++tPl4LArvEiLDs3jgkRwrdfm1rtkyFfMblANAdTXn/1DPh2XJI25RfbsZrfxbj41tjAABGM4tdF7XILDGBAdAnQYKByRLOax5IDcVnW0s5X/CeKscdg5KluHlAMOex9GIjtqZpkRwhxJjucjCM7fFOUSI8NDwMH21yDDp9rRwSGILEPHx+eyzG1/luFgv4CJXx0StejEdHhuGDf0vx+X+lLV6Oq4R8Bu9Pj8aMQQqH52IUAsQoBBjZTYY5o8Nw37J8HMvWOxzH5wE/zY7H0E5S+2MiAR/je8oxoqsMM7/OxQEnHUR8HvDC9ZH2n7/eoWq1ABDwUhA4rqccX9we2+TgqjVbpqEyzweATX3/1DPh2XJI27XyoBrjeshxqciEL7eXQaW1cJ5/ZlwEnhkXbv9ZLuYhOUKItAJji5TjqnuuDeH8fLHQiImLcqA12v6G544Nx/zxEfbnq4NOk4X16XJI28cwwOI7YzG6e8PfzQIeg+evjwCfB3y6xTGA81Q57nj3piinAWBdMQoBVj0Uj9T3HHvqbhmo4ASAVtZ2HwYAsYDBJzNiMOy9TFjrXBozBoWgS4wIAFBSacHi7WXNei/uatXVwQwDPDUmHEvviWtyAFhfy/TbXSpsPqsBW+sDrm6ZNkeYjM/5WW9isfGMpt7/yjSWekpq/vuv7pmoZjSz2HpOg+92q/D9bhUOZzq2Th5IDYVEyLh9rmqe+rx9rRzS9t23LB/vbFA6BG4A8MtBxykX9YUtnirHFakpMs7PS3ar7AEXACzeXsaZ5qCQ8nBtZynq8rVySNs3uU+QQ+CWXWrCt7tUWLy9DHkqbtD0zLgI9IgTt1g5rooPFWDmYG5jZ1uaFjO+zsXERTl48y8lp2c/SMzDQ8NDHcq5uX9NEKmstKDf6+l46y+l/bHkSCGu6cS9niRCBvPH1zQiP95c2uqdFq3WEygT8bBoZgwm9QmyP2axAiYL61aQ0tot07pBYHqxEfcuzXO7HE+9f+qZoJ4J0nwiAfea0xqtSC92f+qAp8oBgHYhAkQGcb9v9l3mDh/pTSyOZOowrFZwNrSTFNvPa322HBIYbqsTSJ3KNWDa/67Yv5s/2VyK3x9LQM+qgI3PA+aMDsfDy/NbpBxX9YgT23vsAKBQbcY9S/Ps94wTOXp7r2O1nnWCToYB+iXWPLb5rAbKSgt+OajGS5NrhnoHJkuw+1LNtfHgdWGIUdjCsMwSE37a79p6CE9qtZ7ABRMjOAGQycLisZ8LUFzh3th3a7dMw+TcL8Hiyvp7+hriqfcPUM+EJ8ohgYvHAHNGhXMeW7a33O2GgqfKqda9HffGwrJAVoljQHmxiNugS4kW+XQ5JDAMqjM/9ov/SjnfzZUGK95Yr+QcM76nHOI6DSlPleMqo5l7vRaUmx2u4aw6C1D4PO65FBIe5LVG96oXrJRpLZyevfiwmn63MBkfj42sGalauEHplc6KVgsCP9pYgsyqSfoqrQW3f5uLP49XQCJ0vQrutExrqz1O766wOnMCi5o4YdMT798V3uqZqK3u5+1r5ZDAES7nY2q/YEy7KhizhobgpUmR2D4/CTMH1wzd/HG8Au/90/C8WU+V05C6849VOovTm0JRBbfxlxDGXVzma+WQtk8m4gZBAHCpyPG+s/eyFoZaQZdYwKBXfE1jw1PluON8oZEzT69HnBjdYrkNmUm9gzg/H6+zMKRuAFp7+FhrrPm3tNb9fu7YcARLbD8fz9Fj/cnKJtW/uVptOFitt+L+H/LxyYwYPLw8H5lVLUp3ond3Wqa1hyea0zKt2xMoF/Mwa2gIooP5MFlsrYb96TpkN7JU3RPvvzHe7Jlo6PP2tXJI4OgcLcLiO2OdPncsW4/vdquw9mhFq5XTEIWEe/OrffOoTVNnzlDd+cW+Vg4JTEK+42MWK2AwsZz7XlKEEEeyHOeze7qc+hSUm/HbETVuGaioOh+DtY8m4NU/ldh9UYt3bormrFJW6634fo+KU0bda0MmqqmXvNa/q3s024cLcfc1NcPeb/2l5Mxnb02tujr4XL4BExdlc94s343vC2+0TMPrzAm8vncQrq/TKgCAXRe1WLCmyB7cOdPc98+pl5yP1BQZeAwQJOEhKVyIcT3l6Fwr4KGeCeflEGI0s6g0WJEQJkSMQtDklAyeKgcApHVW/ZvrabzVfbzunGJfK4e0fVqjFRV6q71nCwCGpchw8go3N97YHnIopPU3NjxVjrte/qMYPeLE9rl+oTI+Fs2MgdnKQlBr6LdMa8GdS/IcFqdUGqwo01rsawiSImz3nKhgPqdns7qz6LmJERDybeVuPafB3ss6DOkoxcPDw9AzXgwBD7hcbJsjuO5Y8xqXjWn1FDF1o13Gje8Lb7RM6/YE1ic1RYaNc9tjyhc5ON/AIozmvP/aqGeCeiZI04kEDFJTZEhNkeGpMeF4dk0h1hxx/3rxVDkAOMNbACDgO/9yqPt47flSvlgOCQyHMnUY1a2mx+ypMeEorrBUZW1gMblPMF65IbKBEjxbjjvUOiumL76CRTNjOenHageA/5yuxEu/FyO/3HlDb3+6DhN72TqIxvUMQnJkKW4dyE07cyhDj97xYkztZ8twYWWBdzaU4Ia+QfjqznaceCBGIcA1naTokyB2mAPpSX61bZw3WqbZpSZOvp+GBEt4+GZWO4z4MMtrXbvUM0E9E6TGwQwd4uZdBI+xzTeKUQgwMFmCx0aG2XvNJUIGn8yIRXqxCUedJIH1ZDkNqdt4qT2kxH2cex2o9dzX+Vo5JDD8sLecE7wFiW0ZMeqqez+tu7OTp8pxV2OdBckRQsSGCOoNAn/cW24PAkOkPOx9Lpnz/MVCIw5l6rDywXh7sLf6sBqZSiN+fSi+3g6hh4eHYcOpSqcp4DzBr7pIvNEyXbSlFGM/zsaTKwsx+qNs9HglHUkLLmHQWxlY8FsRlHVWC6fEiDCss6ye0lpedc/EcxMjsO/5ZEyvk1PPHb7Wo0A9E6SprKxtyOZysRGrDqkx9YsrqKgVrPB5wF3XhDRQgmfLcSa3jHtzCZHyOT0R1aKCuaMTKi3379vXyiGBYfNZTaNbnp7JM+CvOgsg6nZUeKocdwxIkmDLM0mcXkCjmeXcO7q3E2P9E4l4os68+2o7Lmjx4z7n9dabWDyzuhDXdZHZ56sbzCw+2FiCUd3liKi14PH19UqM+jCLc+5ZQ5r2neIKvwoCvdUyPZdvwOrDtr14VVrbPLRclRnL95Vj5je5DhnAB3eQOC/Ig6p7JhLmX0SXFy8j9b0szF1ViEu10jVU90z0b9+0+vhajwL1TBBPKdNacKGQO22jU5T7C4g8VQ7gmGqFx9TMLaqtc52FTmfzuPOlfK0cEjjmrynCG+sd05dZWdtw6i1f5TpkeMgpdQzePFWOKzpGibDqoXiE1JpjuPuSFte9n4XU97Kw6YzG/jiPAZ6/PgL3DXNMFg0Az/1WhDm/FGDPJR2ulJlxsdDWWBz3STaOZunx0qSaYezvdqmQpzLjqlr3Z7OVxQ97VUgrMGLHhZp8goM7tFyGC78aDq6vZWquE4W1Zsv0bJ4B5/INnOSRsSGt97FW90xUFhtxudiITWc02P9Csn1ibXXPRFOGpzz1eftaOYQwTgKapmTq91Q5gK0nI1Np4uwnfnVHKS4X1wRjIgGDgUncRt2JK9xr29fKIYGDZYGvdpRhyS4VesWLEa3go1JvxeViEwrVZgj5DPom1NwrKw1WZCgd59B7qhxXPDk6jNNxsC1Ni7u/z7PfV+5ZmocXJ0Vycvq9cH0E1hxWO+1gWHOkwum84OkDgu07m6i0FnxWtedxfGhNvFCottjTy2TW2vc+MbzlFjf6VU+gr7ZM6/ZQ1U0+2ZqoZ4J6JgLd8C4y3DZYwVlhWNfTY8MdehLS8rl/J54qxx3/nOYOcc2us+3jA6mhnNWGZivrkCvTF8shgcVsZXE8R49NZ2wrX6uHakd2k3H+XvZd1jmMpLVEOQ2puwHBwn+UDh0Lb/+txLFaHSkyEQ+pXVyf9iUSMHh2Qk0v4Gdby6DW2eKG2rkDdbWGgGsPB/MYz6aTq82vegJ9sWUqFjDoVid/Xd0eq9ZEPRPUMxHokiKEWHhzNBbeHI3jOXqcyTOiuMK2C0BUsABDO0odEsuyLPDTfnWLlAPYeuRr37QsVsfGIwB8v1uF2amh9vQR3WJF+Pep9thyToP24UKH9FQbTlY6zEv2xXIIkQgZznAogCZlsPBUOdXqZgCpm2KsWlaJiTN0W3dL2Ybcd20oEqp2C8lVmTl5BmsHe7U3j6i9ENLKAsYW2k3Er4JAwNYyfWRETbfs7NRQrD2qtneherJlGi7n46VJkfj5YDmOZOkdVvzKxTy8dWOUQ+qSnRdbZt/M4V1kiAsV4K+TlZzJ6LW1RM+EJz5vXyuHtH1CPoNByVIMSm58Ps3Cf0o4jQlPlzOiqxzL74+z/5yhNOHahZkOx+WqzPhsaymeGVezT2mXGBG6xDj25qt1Vry9wXkeUF8rhwS2diECLLm7HWeUJr3YiL/d3CXD3XI6R4vwxKgwxIUKcTxHj0+3lDo0vkoqLYirNSR7fe8gLK2TDFoh5TnsPJWrcm0nLoWUhzmja+5Z7/2j5IwWXqnVaRSj4EMkYGA0s0isld82t8zUYhlH/C4I9FTL1JWWuYAHzByswMzBCpRqLDieo0dOqa0noF2IANd0ljq0BvZe1uF0bssMP1LPBPVMkMa502JW6614758Shy99T5YDAJ2iuL3zuxtoKH68uRRRwQLcNbT+FYEqrQX3Ls2371HqD+WQtm/W0BBEBvFRXNWbFh3MR99ECYZ3kXG2NDVbWSz4rchh2NXT5Sy/P84+MnZtZykkQgYvryvmHLPzgpaz/eOrN0QiIUyAnRe00Bit6BQlwsPDwxCjqAmXSjUWHEh3bYRpzqhwhFbFCWfzDA69lgczdABsQaKQz2Bqv2DsvKDF8FrDzU3ZCcVVfhcEeqpl6mrLvFq4nM/JXeRMqcaCeasLG3kHzUc9E9QzQeq38qAaaflGjOkhx8AkCTpGiRARxIe4qoWtrLTgQqEBuy/qsPqIGiX1NBI8VQ4AzsIxAA3uE8qytlWGf5+sxB1DQjAwSYKoYD6MZhaZJSb8l6bBkl0q+w3SX8ohbd/VHaS4qX/DacnMVhbPrinCnkv1j9B4opwQKc9halTfBMdMGZ9uKcXkvkH2PIEiAYNHRoRxRpzqevMvpUupx+JCBbg/tWYl8Vt/Kx3mLu64oEWuymxfILJoZgxMFtbe0QEAqw45duR4it8FgYBnWqautMwtrGNCyvqcyzfg4eUFnBU9nkY9E54th7Rdx3P0OJ7T/Nazp8rpXevmU1Buxt5LjU8Z2XVRi10emFria+WQwJVWYMQLa4uwP715U3RcKUett6JcZ+WkfnG213x2qQkzv87FV7Pa2eftNVTma38WuxyUzR8fYV/QsfuiFtvPO14/JguLeb8WYvnsOHseztoB4LpjFZx0MZ7ml0GgJ1qmrrTMSyotuHZhJqb2C8bQTlJ0quoJEPEZaIxWFKnNOJ5jwN8nK7D5rKbJq5NcRT0Tni2HkNagkPA4PdUrDqhb/LuCEG9QVlpgMLMQCxiYLCzKtFZxRgWkAAAgAElEQVQUV5hxMEOHbWlabE3TuDS3zRPlsCzw6Ip8vD4lCglhQhzO1OGdDc63Xzuarcfw9zMxrb8C43vK0SNOjAg5H3yebYTvUpHtvrLqkBqlGtfuK93biXFL1bZxLGvrBazPjgtaTPvfFTwzLgL9kyQQCxhkKE349ZAaS3Y578jxFCaroNzpRznkg5Yf1vSm/+YloVus7Yu5oNyMgW9lBNQXc6C//+bYP99xC6O62vr1Q1w3vIsMvzwYD8A2hDXorcxm7W4QKO66WoZHr2t8xyO61ghp2MyBMjw10vFaeiPrkn/lCfSUQG+ZB/r7J6Q1DUyuGQreeFpDASAhxGf45XBwc13VXmKf52e2svhpf8P7FLY1gf7+CWlNH20qxUebSr1dDUIIcRCQPYGB3jIP9PdPCCGEkADtCQz0lnmgv39CCCGEBGhPICGEEEJIoKMgkBBCCCEkAFEQSAghhBASgCgIJIQQQggJQBQEEkIIIYQEIAoCCSGEEEICEAWBhBBCCCEBiIJAQgghhJAAREEgIYQQQkgAoiCQEEIIISQAURBICCGEEBKAKAgkhBBCCAlAFASSev3vjli8e1O00+ckQgYKScN/PjEKAX57JAF7n0926XzPTohA3ocp6Jso4TweFyrA33MSceLVjnh9ahTnufnjI/DBLY51TE2R4ejLHRqtIyH+pqHrUiHhQSJk6n3t2kcTkPdhCue/R0aEcY6h6434o66xIqS92QmJ4UKnz0cE8cFv4M/zvmGhOPBCMjIXdsaGJxNxVXtJ/Qc70dj9zlevK7piiVOpKTKM6S7Hwn+UTp+/daACb9wY5fS56tdvnNseZivr0vnG95RjVDc5TBbH4x8bGYY9l3QY/HYGxnSXY0CS7eKMCxXgjiEheO+fEofX7LqoxalcAxZMjHDp/IT4g8auy/enR2Nqv+B6Xx+jEODVP4ox6sMs+38rD6o5x9D1RvzR+9Oj8f0eFXJKTU6f/++ZJMSFOg8QJ/UJwiuTI/H+xhKM/TgbhzP1WDE7DqEyvkvnduV+56vXFQWBxKnZqaH4/VgFynXWJr1+Qi855q8uxOrD6kaP7RwtwsKbozF3VSGEfMdejG6xYuxL18JgZnEgXYfe8WIAwEuTIvHNzjIoKy1Oy122V4UZgxQIpt4J0kY097qMDubjcJYeaQVG+39lWu71Q9cb8Te948Xo316KH/eVN+n1dw8NwYoD5fjtSAUuFhnxyh/FUOutuHVg/Q2q2ly53/nqdUVXK3EgFTIY2U2Gv09WNrmMF38vxuazGvB59Q9NAUCwhIfv7m6HF38vxsVCo9NjrCzAwFYOwwAsgAFJEvRrL8GSXap6y95xXgsrC4zoKmvy+yDEVzT3upSLeZCLefjyjlicfK0jtj7THvPGRzgMH9P1RvzNpD5BOJqtQ0G5uUmv75Mowf50HeexfZd16J8kden1rtzvfPW6ErRIqcSv9U6QgM8wOJ6j5zw+rLMMX98VCwAQCxgIeAzG9pADAD7bWoavd5S5dR6GAT67LRZ/n6rEhlOVENRzAZ3I0WN4VxkOZeowtJMUP+wtx1vTovD230q8ekMkJvQKwskrBjz5SwHU+poeEisLHMvWY0CSFOtPND2gJcQX1Hddzh0bjtmpoQCAIDEPo7vL8coNkQCAWUvycDTbdrzGYMXNi69Ab2JRqbeiZ7wYr0yORGKYAE+uLLSXR9cb8Tf920twNEvv8PjPD8Sjb6Ktxy1Uysemue1hZVmYLUDf19MBAAKebX57qYbbE1dSaUH/JOfDx03hq9cVBYHEQVyoAGq9FRV67pDTwUwdxnyUDQC4eUAwesdL8NqfxQDgcKwrnh4bDj4P+HCj41yI2r7cXoYvbo/FtnlJWHNEjU7RQhhMLMp1VlzbWYZhCzPxzk3RmJ0aio83l3Jee6XMjPhQ+jMn/q++63LJLpV9Xt+7N0Vj72Wt/WZRd4hp3+Wa3o6LRUaYLCy+ntUOz/1WBJ3JNp+Jrjfib+JCBdh4RuPw+BO/FEBUNcVo09z2uGdpHvJUZtSeucerGg9l607nY2wBmKf46nVFVytxECzhOQ3qjGYW+VXd7WqdFTqT1f5zUzw8PAxSEQ9Z76VwHv/riURsPafBPUvzAAClGgtu/zYXgG1IbMezybhvWR6GdZZh32UddCYWW89pcOsghcM51DoL3ZRIm1DfdVlRKzDUm6wo17l+XV4sNILHADEhAmQqbRPq6Xoj/iZIwkelwfHaKKnVCLKyQFGFxeHaMJpZqHVWRARxF4FEyPkOvYPN4avXFV2txIHGYEWQuOG5fJ5w/aIczpJ9Ho/Blqfb47GfC3AkU+f0NY+ODMeui1qczjVgWGcZLFVNNbMVcDaaHCThQWNs2iR6QnxJS1yXPeLEMJjZeudS0fVG/IHWYIVc3PQlDkey9Li6A3e4dUhHKZbvb9pCk8b40nVFQSBxUFBuRoiUD7mYB42T1hUA/LivvMkrsapdLOIuBKmeE5hVYkKuyvGmFBsiwF1DQzDm4ywAwOlcA67vHQTANifkTJ7B4TXxoUKkFztfcEKIP3Hlunz4p4J6Xz8sRYY+CWLsvqiFSmtFv/YSvDYlCt/vVkFvchz3ouuN+Iv8cjPiGukpq54D6Mz3e1RYcnc7HM3W4+QVA+4cEoLIID5+O1LBOe7ZCRG4vncQxn6c7TSdmSt87bqiIJA4OHnFABbAVYkS7L6k9XZ17F68PhLf7ipDcYWti37PZS3SCoKwaW57lOusePinfM7xPAbonyRxKU0NIb6uudelssKMEV3C8PjIMEiEPGQojfh0c0m9jTm63oi/OJajt+fda4qt5zR49Y9iPDcxElHBfKTlGzDruzwUqrmdEXweIGhmThVfu66YrIJyp+HskA8KnT1MAsTKB+ORrjThhbVF3q5Kkw3vIsOy++Jw1RsZUGk9N7dj//yYRo+h64e0BF++Lj19vd11tQyPXtd4nja61sjAZAnWPpqAQW9lOgRu/s4T19XMgTI8NdLxWnoj6xLlCSTOfbNThZv6B0Mh9d8/kXuuDcXqw2qPBoCEeJMvX5d0vRFvOZypx6krBswaGuLtqnhcS19XvvdNQnzCf2kabEvTYMEE/9wG6ppOUvRLFOPtv51vr0WIP/LV65KuN+Jt81YX4f5hoW1qdXprXFdt59MiHvdIA5PMfd3eyzpc9UaGt6tBiMf54nVJ1xvxtnP5BnR/+bK3q+FRrXFdUU8gIYQQQkgAoiCQEEIIISQAURBICCGEEBKAKAgkhBBCCAlAFAQSQgghhAQgCgIJIYQQQgIQBYGEEEIIIQGIgkBCCCGEkABEQSAhhBBCSACqd8eQ/fNjWrMehLQp13UWe7sKhPi1jhFCl46jexUhTUfbxhHSAt6fFurtKhBCCCENouFgQgghhJAAREEgIYQQQkgAoiCQEEIIISQAURBICCGEEBKAKAgkhBBCCAlAFAQSQgghhAQgCgIJIYQQQgJQs/IEHs424pdDWqQVmlBpYBGr4GNAeyFu6idD5yhb0Y+sLMOxHCMm9ZLi5YkKj1TaVwz5oBAA8PJEBSb1ktZ73JI9lViyV4NYBR/rHopsreq5zNX30VKvJ4QQQkjra3IQ+MthLT7bVgG21mNZpWZklZrRN15kDwIJIYQQQojvaVKkdq7AhM+32wLAQUkiPDUyGCEyHtIKTNh6Xo+RXRy3zOIxza2q/2PoMyCEEEKIj2hSELjysBZWFpCLGLx3YyhkIlt0M6yTGMM6Od8zVSRgsHhXJf48qYPBzKJnOyGeHBnM6THUGFn8ekSLnZcMyFVZYLayaB8mwG2DZBjfXcIpb8gHhQgWM1h2VwQWbavAoWwjxAIGQztUBaXSmumO1UPS394ejk1pemxJ08NgZtEjVoinRgU79FpeLDLj692VOJFrgsHMonOUAHdfLcfwlObtByviM9h5yYBF2ypQVGFFj3YCLBirQMfImvNXDx3PHxOMjpECfLS1AulKM9Y8EIm4ED4AYPsFA5Yf1OCy0gwBD+iXIMIjqUHo1MTPsi4WwEt/lmPreT0i5TwsuTMcsQrbuU/lmvDR1gpcVpoRq+Dh6dHBCBIzqDSwDuVcKDLjm92VOHHFCKMF6BAhwG0DZRjfw3Z+ixUY/0URKg0sFoxTYFpf21Dy7UtLkK40g8cAW+ZEQyZicKnYjDuXlQAAfnsgEvGhfPtn9eTIYAj5wMojWhRVWJEYxsfsa4KcNkYIIYQQYtOkhSEHMo0AgFFdJfYAsDGbzunxw34NKg0stEYWh7KMmLdWBaO5JngQ8oBVR7RIKzAhSMxAJmKQVmjCq3+VY0+6waHMCgOL+1eUYuclA8wWQKW14p8zery/ucJpHeavU2H1Ua29DoezHetwWWnG7BWl2H3ZAIWEQedIAc7mm7BgnQr/nde78zE5UFZa8PwfKhRVWGGysDhxxYQ5q8ugMToGUP+e0+OpNSpcKjbDygIKie1Xtf6UDs/9ocKZfBM6RAgQKuNh92UDHvy5FLkqS5M/y9o+/a8CW8/rIRcx+GR6mD0ALFBbMGd1GdIKTTBZWOSqLJi/VgWz1bGMC0VmPFD1OVYYWJitrO38f5dj2X4NAIDPAwa2FwEAjmbb/qbKdVZkVAWAVhY4lWcCABzKsj0fH8pHfCifc64fDmjw4ZYKFKqtMJpZXC4246X1KlwuNjf6OyGEEEICldtBoNHMQqWz3fXr3owbojFYseiWMOx6OhpzRgQDsAUVl5U1N2qRgMFrk0Lw+0ORWPtgJH5/MBKJYbZz7LjgPHAR8RmsfTASO+ZGY0RVT93eDOfHqnU1dXhypPM6fLunEgYziwHtRVg9OxLfzwrH7GvkAIClVcFLU2mMth6vXU9H4/VJIQAAZaUVW50El6dyTUgI5eOFCQp8fmsYgsQMrCzw5c5KAMD918ixdFY4fr0/EgPbi2w9f0e1NZ9LEz5LPo/BTwc1WHVECyGfwcIbQ5ESXdO7+MdJHXQmFgyAT6aHYufTMZgzMhh6k2MQ+81u2+dYvRhm+1PRuKW/DICtt7P6b2hwsu13dizHFuQdu2ICC2BkF1tv4fErtscPVwWBQzo49u6ptFbMvkaO7U9FY+mscPAYWy/j/qrGCiGEEEIcuR0EWmvd7/luzHHr2U6Iq5NtvT6ju9XcyJWV3G6kIR1EiFXwUWlgodazSAq3BSFFlRY4M7GnBHEhfPAYYHiKLXDQGVmnvWu16zCqq/M6HMk22cv4YLMa721SI63QFiSmK5vXsyQVMriht23Ic3wPCSKDbB9/WoHJ4Vg+D1h0axim9JZiUJLIfv4yra2uF4vMeG+TGh9sVtuHYuvWz93P8ky+yR5kvjRRYT9vtbQCW/m94oUY2kEMAQ+YfpXMaW/w0aqgbkIPCWIVfAj5DO4cbAsCzVbgSHZ1UGc7h1JjRVap2R4M3jZQBgEPOH7FBIsVOFYVDA5JFtU9Ffg84I7BcvB5QPdYIdpVDZsr63mfhBBCCGnCnECJkIFUxEBnZFFQ4WQcsB7VQ4oAIBbUBA21g8qsUjM+316Jg1lGzhCt6+XWPG518vLG6mBlgQq97T2dLTDhbJ3gzGK1/cdvYnbFYAkPtcOlcBkPykqr04A1Qs5HpJx7onJdzee985Jjb56h1mfWlM9yzVGtfbW3xskcv0qj7fzRQTWfI48BwuU8aI01AZeVBbRV7ymi1nsIl9X8W1UVzMaF8JEYxkdOmQWnck04ccUEmYhBj3ZCdIkW4ky+7fegNbIQ8IAB7R2DwFApD1JhzSdb/bt19jdACCGEEJsmLQzpEyfEgUwjdlzU4+lRwS4FRSJB492Gz/5ejqxSM+JD+bjrajmignhYfkBr7wVyWq7rI9KN1oHH2AK1Cr0VD6cG4Z4hctcLd4FKZ7UHkSxsvV8AECR2/ACdraauvdjl29vD0TteWO+5mvJZykQMhnQQY+t5PRZtq0DfBCE61Vq0Iq/q8SvVcIP/ch032uIxtrqW66woqXVs7X/Xfi9XJ4uRU6bF+SIz0kvM6BMnBI8B+sQLcbbAhG0XbMPlveNFTnsdhe50SRNCCCEEQBMXhkzpYxvSVFZa8fqGcuSqLKgwsLisNGPVES3yy90fhjOaWWSV2oYbZw6QYWofKQYni+1zx1pL9RDonyd1nGHiArUF55wM27rDaGax+pgWFiuw/qTOHkx1j3EtFu8QIbD3Dv54UMPp4TtXYEKB2mI/T1M+yydGBOONySHoESuEwczilfXlnHN0i7EFnSdyjfa5en+f1tl7T2urHub996weBWoLzFZgxSHbnEV+1Yrmuscequq17BVnO0/Pqv/vz6h/KJgQQgghTdOknsDRXSXY3s2AzWl6bDpn+6+2PvE187JcJRIwaB/GR3aZBd/v0+BErgkXi8woqmjdeV0PpwbhYKYBeeUW3PStEgmhfFTorVBWWnH3EDm6x9bf++aKT/+rwGfbKuxDldHBfIzq2nDKlmp8HvDkqGC8sr4cuy4ZMOnLYkQH81GisUKls+LzW20reZv6WQr5tnO8OkmBu34oxWWlGYu2V2L+GNsimil9pFh5RAu9icXDv5RBJGDA59nmOurqLA558Nog7L1sQIHaghu/VoLPsw2lA8Cdg+X2+ZCAbYhXyGeQWWILXPtU9XD2qPqsq+c6VgeLhBBCCGm+Ju8d/PrkEDw7VoEesUIEiRmIBQziQviY1EvKmXvnjremhKJ3nBCaqhQy/RKE+Pr28KZWsUnah/Hxw10RmNBDAoXYFphojSwGJomaHYSkdhZjXHcJ5CIGQj6D/okifH5rqMtpdgBgbDcJPrs1zLbAhWGQUWIGwwDjukuQFF7zuTfns0wKF+Dx4UEAgN+Oae3zD+NC+Phkum3FsJDPICGUj8+mh2F0N8cgNj6Uj+9nRWBUVwkUEh54DINOUQIsGKfAI6lBnGOlQga9q3r9GMD+7/hQPkKr5hGGynjoEtO8AJwQQgghNZisgnKaPk8IIYQQEkDeyLrU9J5AQgghhBDivygIJIQQQggJQBQEEkIIIYQEIAoCCSGEEEICEAWBhBBCCCEByCFPYGJ0MBiGdmAgLUdnMKNYpXV4vH2Mwgu1IYEku1Dt8Fh8VDD4zrboIcRD9EYzisroO4+0PmffebVRTyAhhBBCSACiIJAQQgghJABREEgIIYQQEoAoCCSEEEIICUAUBBJCCCGEBCAKAgkhhBBCAhAFgYQQQgghAcghTyAhbZHeZMSeS2dwOPMizuZloURT4e0qkSphsiAkRURjfK+BSE3p5e3qEEJIwGiVIFDPGqGyVqLCqmuN0xE3CcFHEE+GcH4weGh7SXPXHduL5fu2wmA2ebsqxIkybSXKtJU4npOOXw/txJwxU5ESHe/tajVLiQZIK2CRWQKYrd6uDalLLgKSI4Du7RjIRd6ujYdYzUDJFUBdDBgdE1MTHxAcBYTHAbJQb9fErkWDQBMsUJpVqGT1LXka0kwmWFBmrYDaqkGsIBwyRuztKnmE2WLBp1t+x/bzJ71dFeKiDGUBnln1DZ4YPRVje/T3dnXcpjUCR7JZpCu9XRPSEI0ROJMPnMlnMTCJQc923q5RM1WWAnnnAYvR2zUhDakotv0nDwdiOwEimbdr1HJzAk0w44qpmAJAP2KBFblmJYot5WC9XRkPWLRlHQWAfsjKsli0ZR1WHPgPrB/9JWqMwL9nKQD0N4ezWBzO8p+/MwflhUDOKQoA/YmmFMg8DugrvV2TlgkCjawJOaZimGFpieJJC1NZK1Fu9f4fZ3Ms27MJ286f8HY1SDOsPLADx7Iue7saLlHrgX9Os6igNq9fOpMPHMr0w0CwLA/IS/N2LUhTWExA1glA1/Devi3N40GgFVbkmUtgAU2E8WfFlnLoWf9sWaYX52Pt0T3ergZpJhYsPty4BjqjwdtVaZDJAmw7z0Ljn5cLqXK2ALhU7O1auEFbDhRc9HYtSHNYzcCVM4DZe18eHg8CyyyVMFEPYJuQby6F1Y+G4wDAylrxyebfYWX9q97EObVei+X7t3q7Gg26WASoaM1bm3Agg0Wlb7c5bKwWIP+8t2tBPMFsBIozvXZ6jwaBVrBQ+fkwIqlhhsXvhoUvFOYiQ1ng7WoQD9qWdsJnV3ZbrMDpPGpwtBVmK3A23w9+n+WFgJFaHm1GeaHXegM9GgSqrRq/6zkiDSu1VPjV7/SfU4e8XQXiYRV6nc8u8MkoAXS+GZ+SJrpYZBvi92mlV7xdA+JJrNU2v9MLPBoEllspN1FbYwXrN3MDrSyLA+k0RNIWHczwzd/rpWL/aSAR15itwBWVt2vRAH0l9QK2ReWFXjmtx4JAE8wwstQkbosq/STJd1ZJISoNrte1ND0Hfz/5JgpOcQOMK4dO4u8n30RFfpHLZeUePoVz6zbX+3zBiTSc37Dd/rNepcbuD5e4XL4zG55+G9vf/hI73lmMXe99g4KTnlsl2ND7Magrsf+L5R47lyvO5Ga16vlcYTADhd5d2EdaSJ7Kh4N7tT+tXiEuM+lti31amceCQJ21/t6iN+e+jO7SJLw+50W3ytz616bmVssjDu06ALWq4W/7I3sOom9YF0zoPQLjew3H7aNuxuU0z63c+uPntVi44E2nz21a9w8+fe0Dj52rLoOfBPfn8nPcfk1IYjvkHT7NeSzv8Gko4mPdrwBT/24rUT06o8Pwwe6X2QC+SIgRLz6K4S88gr53TsHZta1zvYgVQeh759RWOVc1d4L71tJWAsBTBzZizvWxsFjM9scObFmFZ6Z1wNM3JuH+YSI8M60DnpnWAQXZF+zH3D9MhJ8/ncspq6QgC/dew8eWNV+0Wv1bQn7r34tdp/fdLS9Ffcag26RZ6DH5bvSddj9+37LLa3W5UliMgbc86LXzN4mu9f/wPLZjSENDhi9/8ibW/bQGr372tsvlmYwmfPHmJxg9eZwnqtcsSz5ejFc+fROKUEWDx109fCi+WfcDAGDZZ0vw9fv/w/vff9ri9btu/EgMGnZ1i5XvL8PBGoP7SdoU8bEoy8iB2WCEQCyCQV0J1mqFSC7lHMeyLM6t24ySC5mwWixIHj4YSdcO4ByjVZbh4OKfoVdXIKJzEnreNAHVu/AVnDgH9ZUCdL9xbL11UWXl4sxvG2E1m6GIi0Gf228Aw3OtnWbWGyEND+E8lnv4FDJ3HQJrtiI4Lhp975jCea4s4wq0yjLoysqhiItBv7ungXESyKZv3YfKQiX63H4DAFsv5pElv2LYvNn2Y3Z98C3a9euBwlPnYdYb0Gv6RER0SbY/X3IpC2fW/Au+WIjYPt1QdPoChj55j0vvzVcVV/pwb5Eb9v7zExThMThzYBP6XHM9AODqMTNw9ZgZqFAp8ebsoXh/jWODNjqhM07u+wcz53wIHo9vK2vjCiR19b+dXury6XQ/PhwEyqRipP1tGyU4nnYJUx97EdPGpHq5Vn5E1/q/W4/1BLqbF7AgNx93T5iJ52Y/jRsHT8Atw25AYV7Nqs4PXngbF8+ex51jpmPdit/sj584eAy3DLsBUwaOw7P3PQWLuab1+sfPa7H43c9w+6ibccfomzmPvz7nRdw/+Q5M7DMST93xKKzWmvparVa8/uRLmDpoPKYMHIeDO/dzXntgxz48dcejePfZN1x+f9pKDeKTEjiP/fHzWtyaOgXTrp6IBffPdXiuoTrWtuSjxXj+gWfsP2/8fQO+/uB/nGNuHDwBX7/3BW4ZdgMm9B6B/du4efMO7tyPyVeNxq2pU/Dth4tx28ibXH5vvkrThN4ilrUipncX+1Bq3tEzaHdVD7B1Pvu8I6ehL69A6rMPYti82cjafRjqPO4cjsqiEgycfStSn30QmqJSFJ65AHecWrXB/nqhXIrMXYcbPN5qNGPX+99g25tf4NgPa9Hz5gmc52P7dMO1c+/DsPmzoStVOdRXmZaO/vdNx/DnH4FBo0Hp5WyHc+QfOwvlpUz0njmpwbqY9QYIZRJc+/R96D1jEi5u3Gl/jmVZnPxlPa665yZcO/c+WE1mP1pqVD+jufFjfJ1eV4m0o9sx5d4XsfffFW6/vlPPITh3ZJv956M7/kDPwfU3dIgHWPzjD69Co0VSXAznsatnPIIf/9iIhJHT8Wete9LchV/g2jseR++p92Lxyj84r5n98gd466vlSL3zCXQefzs+XvYr5/nCkjJMeHA+Oo+/HT0m3w2dvibHj9lswb0vLsTgWx/GkJmPILfQx7fzMbd+fiKP9QRaWPeXUx3Yvhd/HtmMLj274ou3PsGv3/2MJ15+GgDw1GvzsXndv/hpyxrOa1557DksWf8TomKj8M681/DT4h9w9xP3259f8dUP+GHjSnTqlsJ53e7NO7Du4L+QBclx94SZOLz7IAZfNwQA8OfPayGVSfHHoY1QFhbjpiHXY9ul/eDz+Zh6+0344bMl+HTFl4hPSmzw/RzefRBTBo5DSbES8e0T8N1f3C/VcTdOxNTbbcHWrLG34Pypc+jau7tLday2Yc167N+xF1+vXdpgXSrVFVCEhWD17vU4tOsAPnvjQwwZeS0AW9D7woPPYPHapUjp0QWfv/kx2DaQV69M24R0NiwQ178X0v7cioRBfZB/7CwGPTQTeUe4Q8Qll7IQ178nwNiGYWN6dkHJxSwoan3JRXRuD57QdklF90qBKisXMb26uFQNXWk5NMUlOLzE9gVnMZkQ07Ph1/JEAqQ+axvuKM/Ox5HvfsWIFx8Dw7e17YrPpyP30EkwPB60JSqYtNye0siuHSAQiwAAinbRMFRwP7/KQiWuHDqJkS8/7lKPZGyfbgCA4LhoGCo09scN5RUQiEQIjo0CAMT06Yri8+mNlufrjL6+gtQFR7avRfcBI9Hv2slY/uHj0GsrIJEFu/Raq8WMIeNmYv+mX9Bz0BhkXTiGmITOEArbxt7jxH06vRH9pt2PSq0OOoMRG75+j/N8mboCJy+kI3PLKgj4fPvjb726yDoAACAASURBVD81GzKJBDq9AV2uvxOPzORONzlzKQM7l3+GCo0WnSfcgTmzbra//tkPv8L11w3BnDtvhslshlBQE9acvpSBVR+/hq4dEvHWV8uxZM1fePWxe1ruA2guLwT4HgsCzaz7O4Qkp3REl55dAQDd+nTHrk07Gjw+N/sKMi9l4NHp9wEAdFodRk3mtjqHjR3uEAACwDWjUyEPDgIAdO3VDcrCmkn/+7fvxbH9R3Bol60HkM/no0KlRmhEmFvvZ+Cwwfbh4J++XIoXH5qHz1Z+bX9+z5YdWPfTbxAIBMhJz4aqlLsEraE6AsDltItY99MabDm3G3xB47+6sVNtPUNde3dHcUHNZOKi/EJI5TKk9LAFGeNunIg9W703d8NTwmRBTXqdIj4GenUFSi9nQxQsh1AmdTiGtdT9+2bBq/UlVvUQ998NzBF0KJ9lIQlV4Nqn73P5NbWFtG8HnkAAbUkZ5NER0JWqkPbHFgybNxsCiRhHvl/t8Bq+SFh//QHoyysRmdIB2XuPouOooY3WoXZ5tRsVLGAfFgfg+Ln5qbaQGmbvPz9h1M2PQCSRoUvfVBzevhbDrr/bpdeyLIseg8bgp4/mwGwyYN+/KzB0/O3IONdwDzZpu6QSEY7//h0A4PDp85j2xEs4v2G5PTCzWq144o6bOAEgy7L4bPlaHDqdBqFAAGWZ47y4G0engmEYKILkiIuKQIlKjZiq+/OOQ8fxyXOPAQAnAASALkmJ6NrB1nnTK6UDNu4+6Pk37Un+HAQKGT5MrHtvQCaXcX5urDeKtbKIiYvF6t3r6z2mvsBN2sC5rFYrnnh5LibPuLGxKrts4vQbsHjhZ/afc7Ny8P5zb2Pt/g0IUgTj8VsfcKuOAFCUV4ghI67FqiUrcP/TDzdah9qfL+emzLKcuV/CusGAn5KLHYM3V7Xr1wPHf1qHblNGO30+sksy8o+eRWzvbrCYTCg6cwn97uL+vSgvZsJiNIEnFKDw9AUkXzfI5fPLwkNhNVugPJ+OyK4dYbVYYDEYnQakzmiKSmCs1EBSNW/VWKmDNCwEAokYFqMJqsxc4DqXqwPA9p5TJlyH3R99h8iuHaGIj2n8RU5IQoJh1huhVZZBFhmG4nP+sR9wY6R+ftmolHlIO7YD+dnn8fOnT8Oo10CnUbscBAIAny9Az8FjcWzXepw+uBm3PPouBYEEADCwV1dIRCKk5+TbAzEAiKgzt/6n9ZtxPO0SVn/yOng8BhFDp9QtCnKphPMz934Gp3OZAdscRe7r3H4brUskafwYD/PYnEAe49kd6ERiMTQaDWfOX3xSAkxGE/Zssc03MhlNKC9tfkKnq4cPxa/f/wKjwTYbuLhOahCJTIqykjK3ytzx73+cHskyZRnatY9HkCIYOo0WJw4ec7ueQ0cNw1uL38Oq735G2smzbr++WkxcLDQVlchOt6Xd2Llxe5PL8iVN7QkEgLgBPWHS6BDTq6vT5+MH9oE4JAg7F36FvZ8uQ1LqQAS3i+YcE9m1Aw59uxK73v8GQTERjQ7ncjDAgHunI239f9jxzmLs/nAJKgtLGnyJ1WjGzne/wo53FuPI0jXoe8dUe2+cIjEWQpkUh77+BSd+/hORXTq4XpdaBBIxes+YhOM/rYPV1LRWKsMw6D1zEg5/9yv2LVoGfSMr7f2FvweB+zauwPAps/Hxuix89HsGPlybgeyLx1FWnOtWOUPGzsTKz+cjpc+14Av8/EPxB4x/9KSfz8hBUWkZEqqmgdSnsKQMvVI6gMdjcOL8ZZSWu/f9cM1VPfHzX1sAAEaTCVarr0d6DeB5rF/OZR47o5gRohLOJ+a//cyr0FZq8cZTL+OVT52nOXGomFCAm++egQm9R+D+px/GzAfuBMMw+Hzl13jlsefw5txXIBAK8Mb/FqL/0IHNqvu0Wbfgwuk0TOg9AhKpBL3698b7SxfZn7/r8fvwxK0PYti44Xjzy/fqLefQrgOY1G8ULBYrIqIj8PZXNWlbelzVC6FhoXhg6l2Qy+UYOmpYk+oapAjGW4vfx7x75uC3vX9DLHF//g2Px8Nbi9/Ho9PvR3CIAn0G9WvweL7nt5huEb0T3At0wjsmIryjrYUqjwzH+PcX2J8b8sRd3IMZoMe0+leqxw/sjfiBvV1+XhKq4KyuBWxDunUfa8jEj1+o9zmGYdD/3pvrfb5ufXrcNL7e5yM6J+G6BQ81WPeRLz9u/7dQKsGIFx/lPB/ZpYO9jIq8Iqhz3UuMGhUc0vhBrSxYwsBhDN2P7P13BR5542f7z2KpHKmT78X+TT9j4h3zXS4npe8wsKwVQ8fd1hLVJHVJ5IDONxtSOr0RvabcA6uVhUDAx7J3nnfoxavrtutHY8Yzr+HImfNIiI3CAHcazwA+evZR3PXcO/h8xVqIhELs++XLRs/ps8TyVj8lk1VQzvkWS4wOrrdrtSE61oArZh9feUOcunA6DW/Pew0//LvS6fNyRoI4QYTHzqczmFGsctxdpn1Mwyl4XHHv0o9QXOHLSb4CU2WhEkExkQCA839vg8VoajCormtCr4F4fJTjMJG7sp0k94uPCgaf5/53XqkWWH/Sf4NAUr8YBTChh/t/E/XRG80oKvPQd17hZdo2rq1K6AUEe+5eCzj/zqv2RtYlz/UEShgx/LtdHFjSz19Cx66dAQB/r/4T3WqtUq5LxvOf1X6pKb2w9uiexg8krSpn/3EUnjoPnlAASUgw+t3hXrLpYSm9WqhmTRcuA8QC284hpG1pp/BcAOhxQREUBLZV8tYf8fBYEMgACObJoKb9g/3C6qUrsfXPjRBJxIiNj8V73zlPas2AgYInc/qcLxrd/SoKAn1Q96lj0H3qmCa9NiEsEn0TmzansaV1jATOFTR+HPEvnRuexuZd8lCALwQsbWB5OqkRFOHfcwIBIJQXREGgn1iw8CUsWPhSo8cF86Tg+cmcQABIiojGgKQUHMny3JZ9xLtmDBoOBr7ZM9MlhsG5Ahr/aEtiFIDc1wc/wuIApe/tp02aITzOK6f16N1dzAghY3z96iHuCOc3f55ea3vguomcPFTEfw1K7oKR3fp6uxr1CpUCyZ6dwkO8rE+8bzY4OCISvNJrRFqIOAiQh3vl1B7v4okWhHq6SOIl4bxgCOF/wVRCWCRuGUD7Vfq7UKkcT47xXO7OljIwiQHfD+IG0riUaCDO9xaiO+IJgKhkb9eCeEo7xw0uWovHg0AhBAjnubbtEPFdUkaMCD/sBax2x5BRSPXBxQTEdc9OvBWhzcj92FrkIuCqRIoC/V2IFBic7Ee/x/B42zwy4t/C4gCp9+61LTLZK4KvQAiv9fPdEM8QQoB2Au90TXvSgom3UiDoh4LEUrw17R70cTPvozf1jAN6tvN2LUhTiQTAyC4MBP4z/dkmvjsgd297U+JDFFFArPd6AQEPLwypLZofCgHDR4nFN5NaEufEjBDxgki/SRDdmAUTb8W1KT2xbM8mFJS7t+sLaX3XdOqBR0ZObtbuL94yMImBVAgczqaFIv4kQg6M6MIgyB+ns/P4QGIvIP8CUO5eAnbiZWFxXg8AgRYMAgHbnDI5I0GpRY1KVt+SpyLNxAcP4fxghPL87+bbmGGde2JY5544m5eNw1kXUKRWoVRTAavPbyTZ9okEAsQqwpAcGYvBHboiMsh/pyAAth7BxHAGx3JYZDa86x/xMonQNozfJbrxY30awwPiutmCipIrQEWxt2tEGiIPB6KSvDoEXFuLLy8SM0K0E0TAChY61gAza4EFVs4G0MS7xDwhghipt6vR4nrEtUePuPbergZp4xQSYHgKg2s6AkUVgMYA6EwAS6n0fUaYjEGS/8944ZIqgIQegNlo21bOpAcslMncJwhEgFBs+x3xfWt/7VZbY84DAzkjgY+m+yKEEI8S8oF4TrIE+vIjrUAgAoIjvV0L4ifaxsQvQgghhBDiFgoCCSGEEEICEAWBhBBCCCEBiIJAQgghhJAAREEgIYQQQkgAoiCQEEIIISQAURBICCGEEBKAWi1PYEvQGq0Y+3E2MpQmh+ey3+8MAc/1vFznC4zYfFaDvZe1yFCaUKqxwGBmESbjIzqYj4HJUqSmSDGmh9ytcgvVZny7U4Vt57XILTPBYGYRFczH4A5SzBoagqs7uJ6k+fP/SvHuhpptCBgG2DAnEX0TJS6XQQghhBAC+HkQ+OofSqcBoDsuFhrx1t9KbDmngbNNTArVZhSqzTiVa8DSPSokhgv/z959xzlRrnsA/016skm290JbmlQBQboUURArir2L7VgRr72fYzu2c6woFjiKiFhAQQEB6YiC9LYLbO+76T2ZuX9kN5tsZiu7OynP937uvZhNMs8m784887wN889PwNXntL7ly9Y8K27/ohxmBxvweInOjRKdCd/vNeGuyfF47uLWF/asNnnw7obAvW/njNBQAkgIIYSQDgnbJHD9EQu++sNwRu+xNc+KeYvLYbSzrT+5XnGdCw9/U4lDpQ68cGkymisKlurduPXzclidLb/3ws06JKvFuHdKfIvPe/3X2oBkUill8MQsWhVeCBUGN34/bsWuUzYcKnNAZ/HAYGPh8nCIkYuQpBajb4oMo3spMHOIGjkJZ75NUKnejfVHLNhTaMPxCicqDG6Y7CycHg4cB4gYQKsU45Ob0jE+t+XqMlWnw1+t2YO7vyzH9nxbwOPn9FRi5X1ZHXrPg6UO/HrIjD2FdpyscsJkZ2FzcUiIESNZI8bQLAUuHqbG+Fwl9YaQdrn3qwr8+Lcp6PFv7srExL6qVl+/v9iOL3YYsOuUDVVGN0QiBhlxEkzup8K8iXHIbsc59rpPSvH7cavvv1M0Ymx/vCdi5NE5Oi4sk8AaswePLK88o/c4Ve3ELZ+Vwebq2H6en27TIz1OgnvP40/e3lhb22oC6HvuulpcOUqLFI2Y9+dHyx1Y9mdgwnvPefFIjw3Lry9s/Vlgw0e/67HuiBmeZr5avdUDvdWD/Confjlkxos/1+CSYRo8e3FSh76vAyUOvLexDmsOmsG20FRZzntsk93T4vtRdTr87Sm0Y96SclQYOmdf2M0nrHhlTQ0OlDh4f97QG3Ko1IGlfxiQmyLDm3NTcE7P1pM3am/kx79NvAlgW727sQ6v/VLb5PzHIa/SibxKJ77cZcA7V6fikuGaVt9r4zFLQAIIAI/PTIraBBAI04khjyyvRI255Ytda97fpONNAEUMMGuIGi9emow3rkrBvIlx0Cr5P6Z3N9TB5Ql+D4ebw+oD5qDHP7whDX8/2wvn9g48edpdHFbsMTYb6/OragKSjlStpNXKIek8DjeH+5ZW4NL3SvDLoeYTQD4cB6zcZ8IFbxfhUCn/RZaPm+Xw0s81uPCdIvx8oOUEsK0aqtNNL8hNLdyswwebdC0+B6DqtBC+2GHAFR+UdEoCaHGwuG9pBa79uLTZBJBPfpUTl71fgmW7mz9nAdTeCFCmd+Px76s6/PrVB8x4ZU3TBDCQ3cXhH0sr8FeBvcX3crMcXvipJuCxQRlyzG3D0K5IFnZJ4JKdBqw/Yjnj99nWpBsF8HYtLLwxHYtuTscdE+Nw3ZhYvHBpMjY/2oO3imOwsThcFnzyPFjiCDrxjemlxKXDNUjVSvD4zMSg12w5YQ16DPB2e2/NC/zZE7MSoZKF3VcXtuQSBu52JH58aswezFtS3qbKs8PN4dqPS/Hh761fGNujvdXpKlPzN1pUne5eNheH+7+uwJPfV/HeeLbX0XIHLnynGN/v7ViFhuOA/1tRFdQd7Y/aW3TjOODBZRUw2jp28uQ44J+ra1p/IgAPCzzRSrL5v50G5FU6Ax57/pLmh3RFi7DKJE7XuPDCqmrffzMM0DtZ1qH3qrMEn3D6pcpw0VB10OOpWgmuHc1/t1DLU5E8URmcGI7s2dhlcXaOAuImn/wRnmTS5eHwYpM7lyGZclw1MrrvXITw+pUpyIoPvuAwDBCnEqN3sgzZCdIWx0oV1rp4K8RNPbSsssWLa4pGjLF9lLjsbA2uHa3FVaO0uHCwGgPT5ZBJ+I9P1enwVVDjwuz/FuO7PR3vUmvqZLULp2qcrT+xBW6WwxPfV/FOqKP2Rj7arGvxPNaavwptKKwNnPiZECPGb/NzsOGRHCSpA4dPHS5zYF8xfzXQaGPx5rq6gMcuGBTT6vjpaBA2t1Fu1tsl519JuWCQGi4Ph1PV7T+ZqeUiWJpU6xJj+MfkAUCimv9nfF3FOmvwnU+qtvGjlooZxKvEAV3aOmtwMrl4hwEnm/xuL1yaDCbK71yEoFWI8MH16bj8g2J4WGBSPxWuHa3F5H4qxKka24bdxeHbv4x46odquHn6MP4qsOHKkc2PXVm224iV+4Iv9hIRgxvHxuKmsbHon9b+G5+WqtMA8PjMRFz2fknAz7ecsPKOeaXqdPdZd9iCB76uaNfktbaYPVSNZ2cnBXWPZSdIce1oLS4YFIMeiVKwHLC/2IFX1tRgb1HwBTa/yom9RXaM7BE4Lo/aW3Q7Wu7Aa7/Wtv7EFuw8GZxA3jwuFmdlyAEAt02Iw+tNjrHlhBXDecaIvv1bXUDhRypm8OzFyWcUX6QImyTwrXV1+NvvJCSTMHjqokQ8srxj4w2GZsmx/kjguJq9RXZUGt0BCVuD344Gd0FLxQwG1TdIf3ZX8AlbJg7M3JpWbDys9+5ZXv+4wcbirfWBdy6zhqiD7qBJ9xnVU4F3rk7DgHQZ7/cOAAqpN1kr1rnw3sbg7lw9T7LfwOpkeU+cyRoxltyWcUYD4NtanfavtlB1Wjgs5x0D9+7GOt5K23n9VUED3NvrrsnxKNG58ek2PVQyER69IAG3TYiDtMm5anyuEkvvzMSUfxeinGcs4r7i4CSQ2lv0cro5/OOrCjjdjQ23T7IsqKDRmhOVwc/3b2ejegSfD/naUEGNC59t0wc8duv4WPRKOvNVGyJBWNxK7Sm0492NgQnR/VMT0CdZ1uYxJ03xrfNnd3G47pOygMqiy+MdTLrpWPAJ9+pztLx3o0pp8GPOJuN4/P9AAEAsgi8BBIA319UGJAxSMYOnZ9MgaKHNGalpNgH011yynqRp/r5rxR4TKo2BF1mxCPj81jNLAIG2V6cDX0PVaaEU1brw6TY9bwJ41+R4vHBJ51QxXrg0GfdPTcBv83Nw1+T4oASwgVYhwnn9+Zfy4BvzRe0tev1rdQ2OVTR+Z6laCS4f0frM3ab42oN/G+Ir1tRZgtvdiz/XBIyjjVOJ8fD5wePyo1XIVwItDhb3L60IuGM8K0OOB6Z5uw1szo4Nkp41RI0LBsVg7eHACt/RcgfOf6sI95wXj0GZcryxtg5Hy4PvLvqmyppNyvi6jqv8Lu4uDxfUwBP8uqJPVTuxeEfgIOjbJ8ShZ6IUOqsHn2zRY/0RC4p1LjhcHFK0Eozro8Qt42JpuYQQUd3MIPeWxqDwjYm67GwNRuSc+XdK1enw0jNJinevTcXti8t9iaBUzOCflyXjxrGxONiOmeYtETHertW2SFLzXy6ajs0CqL1Fq615VixqUnV7YlYiCjqwqYOdZxKdfxviG//ctCi086QNvx4KHJu6YEYCYptZ8SMahXwS+MzKahT4DQ6Vihn855pU3x0r37irtvroxnTc/FlZ0Mxcm4sLOvn4G9NLiS9uy4BWwd+Q+CpF/uNp9hc7gpYZ6Z/W+JoXfgq8c0mIEeOh6QnYV2zHDYvKgia1FNe58E2dC9/+ZcRjMxNx/9SEZmMnXU9n9fDO7O2XKsOMs4InHgHeiUp8Sxxc6rf2VV6lEztO2lBucMPmZJGoFmNQhhzjclVQSlsujVB1OvxcOFiNBTMS8e+1tUiLleCTm9J93WGODq5veiYKa/m78/gW6qX2Fn0MNhYPLqsMqF6Pz1Vi7igtnveb0NlWrbWhpu0HQEDPHMsBzzU5bp9kGW4aF9vuWCJZSCeBvx4yB61F9cC0+IAk60zWT5NLGCy+LQMv/lSDz7frW32+Wi7CQ9MTMG9S8LgZfwPT5UjWiAOqQbtOee9IxvZRBQ1mBYCJfb13t9vyrUFL4Cy4IBEsx+HGT4MTQH8sB7yyphZpWgmuGkVjZrqL081Bb2NRUOPE1jwr/rfTELTcRZJajE9vSQ+aFd5gT2FwAigVM5jUV4USnRuPLK8MGhzfQKMQ4a7J8bh/avPdeVSdDk8PTffe0N1wbiyS/RaTb5pQdTWTncUGniExGoUIY/sEV+aovUWfx1ZUBqxfqZKJ8ObcVADo0KYMfBXmKqMHgzK8/640BY9PTfB7zbd/GYPWZn324iRIRAyOVTjx+XY9tuZZUWlwQyxikBkvwbQBMZg3KY63qzlShexvWmXyYMG3gZM+vN3AgVUujm/QTDvIJQwen5mIYxUO3tlI/qYOjMEN58a2mAAC3jvaa86JDRjHyHHAbV+U8z5fKmZwxQit985lZeAg6H6pMtxwrhav/VLLuxwNnxd/rsGsIeqoXgW9q015oxDHK9o20HlCXxXeuToVGXHN/7nxde9lxktwstqJKz8s5R0f08BkZ/HG2lpsy7M2W6Gm6nR4Yhjg4fODPzu2M1YPb4d/r60NWk0BAC4Zpgmo3jWg9hZdVuwxYdX+wG7Xpy5K9G2Z2ZG1Lc/ibUM2TBngHZu6l+fGeUD9yglWJ4tXfwkstkzsq8L5Z8Xgqz8MePL76iYxcThe4cTxCu8OJB/flI5J/Vrfzi4ShGyWMP+byqAp3f7dwJ1l1T4TJrxW0GoC2PDcia8XtGmB1funxbd40fc3b1IcMuMk+Hq3IWj84bMXJ0HMMFjBs0bY21enYu8zvXB2kzFjtWYP1hxsfT060nW0ChEuHa7BN3dlYvldma22heK64DEzCgmDeUsqWkwA/e06ZcPDy/i3U2yoTjd9/q+HzDDY2C6vTn/7V8u7S5D26c4UcN1hS9DsSsDbM7LgAv5ki9pb9CjRufHUD4EFG29VNs733x2p1UzmScKW7PROFDpV7cTn2w1BP2/Yh/i9jbqASXYiBnj+kiTsOmXDYytaXnDdaGdx6+dlyK86s3U0w0VIJoGfb9dj47HAk8AD0xLaNCuzPd5eX4e7v6zgHcSfFivhrahUmzy4b2kFHlpW2WJDUstFWHZn6xf/y87W4ImZSTA7gk+M5/VXYeqAGByvdAbNGh2cKcfV52iRFivBghnBA7v5lrQh3cfl4VBc58JvRyzYfbr1Gwy+pTeOVTjbvQbmL4fM2MDz3TdUp/01VKcHPnMS2/IDu/raUp1+f5OuXdVpvkoSCW37i+34x9IK3mE3T8xKbLbbjNpbdGA54IGvK2DyW8dSJRPhratTA2ZwdyQJ7J8mC1p6qNrkwcTXCjHhtcKga2Juivf5ZXo3PtocOCb7ujGxGJguxz9/rmnTEDKbiwsaTxipQi4JzK9y4qWfA08C/rOBO8tb6+vw77XBd6NyCYOnL0rCzid6YueTPXHj2FjebWWW/2XEw9/wV10a5KbIsPnRHnh8ZiKGZSugVYggkzBIj5XgoqFqLL4tAx9cnwaxCHh3gy4gGRWLgOfqF7M8XhHcVTi6V+M4nHN6BY+Bac8+taTz2Vwc9hbZ8clWPS57vwSXvV/S4gw5UwuLASulDB67MBE7Hu+Jgldz8fezvfDKFSlQN9Pdv2gr//hWqk6T9jhW4cS1n5TxJlPXjNbi1vFxPK9qRO0t8n2wSYddpwJvcp+eneTrBj5TL12W3OIuTP6eu9g7aehfq2sCZhar5SI8ekEiTlY7gxY81ypE+OXBbKx9OCdoxvDvx60o0Z35Ht2hLqTGBHpY4L6lFUFTw2NkIjz6Lf+i0HzrAgHAI8ur0NB0Lh2u8Y0jALzbz721LjgBTNVKsOT2DAzJ9FYc5RIxXpuTgqtGajFvSXnQncf3e02YOiAGV7SwBlKMXIQHpiUEjWX0V6Jz4+MtgXcu149p3BmCb7P4DL89M9VyEbRKUcB6XWX6yG+8QrpkmAYVvdzgOG/Vz2BjUapz4Xilk3fW2u7TNlz4nyKsui8b/VKDd/ywNbPeZYxchB/uzcLgzMYqeKpWgpvHxSJJLca8JcHjTHedssHl4YKGTjRUp6/5uLTF9tGW6vSxiuar0wCwYEYirl9UGvDz345aaMJSmMirdGLuRyW8i5tP6qfCa3NSWn0Pam+R7VCpI6iQMj5XiZvHdt7s2+HZCnxwQxoe+Do4L2ggETF4/pIkTBsYg7+L7PixyY5LD0xLQLJGjJ8PBN9EXDNa65tIdMO5sXh/U+N1mOO8beiWCJ9NHFJJoMXB4kBJcAXrzwIb/ixo3x6E/mNC+qfJApLAZbuNvCXhj25M8yWA/kb1VGDFPZm44O3ioHWI3t+kazEJbIt/rq6Bwy9x0Ci8dy4NLDxrIaqaVIFiZIFJoMPN8SYCpHPwDdYHvG34h79NeOnnmqDqntHmXfPy14dy2rzY7X1T4gMSQH8XDVWjf5osaIKKw80hv8qJgenBr2uoTn+6TY9fDllwutoJu5tDYowYI3ooMHeUFuefFQOAqtPRKr/Kias+KgnY1rLBpH4qLL4to83nFWpvkcnh9m7j6j8kqmE2cGcv5D17qBpDs3rg4y16/H7cinK9CwzDIFUrxvhcFW6bEOebEPLcquqArufsBCnmTfJWrI/xTOTzb0OjeykDkkAAOBwFbSikksDusrcoOKHslSTFmF7NL0LaJ1mG68Zog7rajpY7YLKz0DSzZmBr9hTasarJncuD0xMClljg+5tqOiua7x6JVtXvfjFyEW44Nxa9kmS46qOSoJ8fLHXw7rXa3Ezuyc3s0tDgrHQ57yzl2hYGz1N1mjTnWIUTVy8s4R0nPW1gDBbdnM47G7gl1N4iz79W1wRt65aiEeOtdfzr6zY3LvqDTTp8V9/NPyhTjnkT+YcY5CRI8c/LWt4lZ9U+U9Baq0/NSvS1V742lO7XhjJ5hi6UGdq/yHW4icokkK8L2X+NqubwLYoK68OopwAAIABJREFUeBuXRhHcxdcajgOeWxk4+LRHohR3TAj8Q+BLMJvulNK0QqmQMm0eS0E63/hcJdJjJbwTPvYUBieByc1sJ9faIOaUZgbm83VJtwdVp6PPwVIHrlnIvxzR5Wdr8J9rU7vsnELtLbzs4FlNo6DWFbCxQ1ts9tuoYbolptkksDUON4d/rQnsmh7VU4FL/Bbb59ti1v/mu2l7Aloeqx0pQm5iSHfgG1B/tNzZ6hf+d1HwukQAf5LWFj/8bQoaqPrURUlB2+FkxfPdoTQmF2YHG7R/Z0YcbY4ttObaBd84qz7J/N/XiVbWIuR7L8C7P2ZHUXU6+uwptOOqj0p4E8DbJsThvevSuiwBpPZGztTHW3QBy2wxDPB8k/21GZ5WFNCEeBoQ32siTUhVArVKEcre6Nuu14z+12neGTxFr+c2e9LKTZEGjTG0OlnMX16Jd69Ng4JnC64f/jYFnagA7yD9tNj2f4x2F4eX1wTOgh7dS4nZQ4O3FeNbGudPv/I633ZjA9PbX5kkncfm4lDYzF0xX3LINx4FAH46YMI1o5sf3N7cjUl6B9okQNXpaLTrlA03fVoGM88s4McuTMSD07tu4WVqb+RMVZs8eHdD4Lnzcp4919U8bci/zfBVCjta4AknIZUEdpdLh2vw9e7gxURXHzBjT2EBZg1Ro0+yFGIRg0qjG1vzrLyJFgBcP6Zjs88+2qwLGLPCMMALl/Dvi5mdIMWANFnAwNaDpQ78+LcJk/ur8Nb64JnO0wbEdCguEqxU70ZhrQvjeLbHas77G+sCurf88U3YGNdHiRi5KGg5jk3HrNhw1IJpA4O/zw1HLUHjcgBve+loEkjV6eiyNc+KWz4rC9rWSywCXr8yFde2cAPSGai9kTP12q+1ATcwCimDJ2cFX0v52lC5wY2z6/9dyjOGtK1LHIWzyP8NeUzq590+pumq9IB3fB/f6vh8+iTLcO+U9q9fWGl0B1V95ozQtLjn5Y1jY/HUD4F3zPd+VcH7XK1ShFlDgiuKpGNKdS5c+WEJ+qbKcOEgNaYMUGFwppx3WEFBrQuLtuqbbUNapYg3mYyRizB3lJZ3D+u7v6zAa3NScPnZGjCMt3qy5qAZj3zLv07lhYM6dgNA1eno8ttRC+5YXB40fpRhgKcvSsLY3soW17b0l6IVQyVrX9WE2lv4+m1+True/9CySizn2cXlm7syfbt8dMTRcgeW7Q7cOeTuyfzrU/K2oQK771rJtwJJNLShqEwCAeDda9Nw/aJS7OHZf7At+iTLsHReRrtPfADw6i+B+3AqpQye4Llz8Xfj2Fh89YcRR8pan7L+yIxEaJWRX8bubnmVTuRV1uHdjXVgGG+Xa0KM9+Jnd7Eo1btb3dHgzknxQVWOBg+fn4Dv9hqDKhoWB4v7llbgqR+qkBUvRYWx+eNIxQzuPq9jC6tTdTp6rD1swZ1Lynl3PeI47969L/xUw/NKfp/dko4LB7fvxpPaGzlTz60K3AEkVSvBP5opzEwdEAOxCAF7Vi/bbcDV52ghYoCvdgUnqVOjoA1FbRKoVYqw4p4svLdRhw9/1/GOB+CjkDK4eVwcFsxIaHZZj5YcKnUE7Wt575T4VrvvJCIGX96egas/LkUeTxdggzsmxnV4hhVpO47zLkHRnmUoRuQocP/U5hO0JLUYb1+dijsWl/Nus2SwsTDYWr4JePbipA51BVN1Orr88LepxW0vuxq1N3Km1h+xYFte4PaDj12Y2Ox1OVkjxoWD1Vh9oHEnGYONxdQ3CnmfP66PEj0SI39IQdQmgYB3i7hHZiTg7slx+PWQBdvyrThS5kC5wQ2TnQXLeZeOSVSLMShDjin9VTivv+qMZl4+v6o66M7lnjZWbtJiJVj/cA4+367HT/vNyK92wu7ikKwWY1RPJW44Nxbjc9s+bo10nwm5Kiy6Ob3V5SpmDlbjjatS8X8rKgPuWNvi7snxuH1Cx24AqDpNuhO1N3ImXB4OLzapVA/KkGPuOS2PYX3qoiRsPm7lnQTlTypm8PTslttjpAj7JHD3U73O+D1i5CLMGanBnJFntvNHW6y4J+uMXi+TMLhrcjzumty5eymT5mXFSzG5nwrb8q3tTswy4yR4cHoCrh8T2+blKq4drUW/VBke/64Kh9twwUuLleDZ2Um47OyOtV+qTpPuRO2NnKnFOww4WR3YBp6/JBmtTQbvmSjF57dm4PbFZUHDbhrIJQzevjoVw1uoSkeSsE8CCelqGXESfH1nJmrMHmzPt2L3aTvyqpwoqnVBb/XA6uTAgYNCKkKSWozsBCmGZckxuZ8K43JVrZ6Y+IzsocD6+TnYlm+tn7VuR1GtCxYnixi5CElqCYZny3Fe/xhcOlx9RgviUnWadCdqb+RMGGws3lofuDPJBYNi2vy9j89VYvOj3m3o1h+xoFTn3YYuPVaCyf1VuGNCHHomRX43cAOmsMIQMDAkO0UDhlbYJF3I5nCjWm8NejwnlTZ7J12rqDJ48HdmsgZiWk+OdCG7040qHZ3zSPfjO+c1eLEwPzp3DCGEEEIIiXaUBBJCCCGERCFKAgkhhBBCohAlgfWKjafw9Mbb8NSGW/Hwr1ehQH/C97NKcwme3ngb/rXlfnD1u0w/s/F2WFzBewkT0lVYzoOLl56F+b/Oxfxf52LD6R99P6M2SgghpL2icnbwnrItGJI6BjJx4zYyCcpkzB/7KhKUKfi7fDuWHnwPT078LwBgc+EaXHXWnThYtRvHa/ajzlaNYWnnIkba9UvKkOjE10ZNDgMGp5yDV6YvDno+tVHSWVx7y2B6YwvEad5JC+oHx0Hcw7vkiqfSDMt7O8EopdA8cR7AAMZn10Pz2GQwMZG/xRbpOOeuYti+PwxIRWAYBpqnp4BReFMQalfCicokcMPplchNGBxwgY2RanwXTKvLDI2scZ0ps1MPtVwLjSwOdbZq/HT8S7w4dVG3x02iB18bNTr10Mr51z+jNko6C2tyQHnZICjnDgn6mXPLaSivHAzXoUq4j1eD1dkgHZpOF2rSKnGveGj/dT4YqRiWz/fAsekUFDP7AaB2JaSoSgI3nV6FLYVrcKxmH/69YwHkYiWemfx+wHNsLgu+PPAunp38ge+xNHU2aiwVqLSUoNR0GpN7XoSFf70EN+vGvBGPI0ZG0/xJ52ipjXpYN/JqD+GpDbeCYRjcMvwR5CYMAkBtlHQezugAo5Xz/ow1OcGo5WA0crA6G2w/HUXsC+d3c4QkHIlTG7fx46wuMJrGBI/alXCicp3A17c/grtGPoVYRULA4w6PHU9vuBVXDboLozPP8z1uc1nw8Z5XoJAoUWjIw+UDbsVp/XFka3ujylKKSwfc3M2/QXijdQJb11wbbVBkOInnN92Jzy7bAIDaaFvROoGts/98DPb1+WBUUojilYi5ezREWu/uCfY1xyFKVMG1vwKch4WkVzzc+bWAh0XMHedQ5aYZtE5gI0+BDqY3tiLundmAxDstgdpV16F1AtvIxbrwwu9347IBtwQkgACglMbgwXP/CbVMizln3Q4364JKGoMYmQZ2t02YgEnUYbnGbY408lhIRI2FfGqjpCNsKw7B8OgvsHy+x/eYYvYAxP1nNmJfuQDSQSmw+v1MPqU3nH8UA+DgKTFAlKiCOFUN2Zhs2H/LF+A3IKGIr10BgKfMBNNrW6B9ZqovAQSoXQkpqrqDG/zf+DeDHlt64F0cqdoDi9OI5YcXQsSI8faF3/p+bnTokVd3CNcPvR82lwVv73oCByt34+bh87szdBIl+Nro3vKt+O7IZxAzItg9Njw09pWAn1MbJe2lvHIwlFcODnyQ5dCw1yGjUQCixos1o5RC/cA4WJfug3LOIMDpAaOSglHJALu7O0MnIYyvXbGVZphe3gTN01Mg8usaBqhdCSkqu4OJsKg7mAiFuoNbZ1t+EM795d7rgAhQPzwBovjGfVk5owOmt7dB+9w0cDYXzO9sBxgGqptGQJxBs9H5UHcwoH94NdgaC0QJKgCApH8S1Pee6/s5tauu0Vp3MCWBpNtREkiEQkkgEQIlgUQoNCaQEEIIIYQEoSSQEEIIISQKURJICCGEEBKFKAkkhBBCCIlClAQSQgghhEShoHUCLXYXzQ4mXcrp8vA+brG7ujkSQgCr3QURzQ4mXcjlZnkfp3MeEVpQElhntAsRByGoNdDOFqT76Ux0ziPCoHMeERp1BxNCCCGERCFKAgkhhBBCohAlgYQQQgghUYiSQEIIIYSQKERJICGEEEJIFAqaHZyeqIZUQrkhIYSEkpY2ggeAnFRtN0VCCAkXrZ03KNsjhBBCCIlClAQSQgghhEQhSgIJIYQQQqIQJYGEEEIIIVGIkkBCCCGEkChESSAhhBBCSBSiJJAQQgghJApREkgIIYQQEoUoCSSEEEIIiUKUBBJCCCGERCFKAgkhhBBCohAlgYQQQgghUYiSQEIIIYSQKCRoElht8mDMywWY+kYh7C5OyFDaZMlOAzIW5GHOhyVChxIWQvX7/f24FYOePYWHv6mMqGMRQggh7SFp7wtu+rQMvx21AADEIiBeJcaIHgosmJGIwZnydr2Xm+Wgt3pgdzFgOQ4A095wWvTdHhPcLIerz9F26vuG+rG7W7nBjaV/GDB3lBbZCVLf4139/XaU1cnCaPeg1uzptPfcfdqGrXlWPDIjscuPRUgkmP5WEY6UOQAADANoFSIMypDj1vFxuGioukPvuXKfCU/9UI1zeirw+a0ZnRlut9hx0oYr64sMfzzZM+B8StrvVLUT13xcCqVMhO/vyUKiWix0SCGnw5XAjDgJBqTJYXGwWHfYgis+KEGVqX0XuvRYCQ690Bt7n+kNlaxzi5JGO4v/W1GJ5X8ZO+09RW3MYbri2KHsi+0GvLmuDsU6d8DjXfn9nolZQ9TIfzkXS27vvIvESz/X4M11dd1yLEIiDccBBhuLHSdtmLekHEv/MHTofY5VOFFn8eDPAnsnRxjo+VXVyFiQh4IaV5ceJ1ziEJLO6kGPx/Jx39KKoJ+V6t0o0bmRV+lEDd2I82p3JbDBLePicN/UeOitHox/tRA6qwdbT1gxZ6TG95z/7TRg0TY9impdSIuV4OJhasw/PxEKqTebKq5zYczLBQCAotdzIanPskr1brywqhpb86zgOGBQphxPzEzCqJ6KgBi++dOIRVv1yK9yQqsUYViWAu9dn4YyvRv3L62AzcVh50kbMhbkQSUTIf/lPr7X7jxpw2u/1uJgiR0ahQhj+6jwzOwkZMQ1fiTb8q145sdqnK5xYUimHDMHt353eqzC2eKxH1rmTQ53P9UL722sw7d/GfH4rCTMmxiH4joX3lhXh12nbKg0upEYI8aFg9V46qJEXxLV8JldOVKDUT2VeH+TDjUmNwZnKvDyFckYlNFYjV2224iFW3QoqHFBrRBhcIYcj16YiBE53s9xx0kb3t9UhyNlTuitHmTFS3HL+FjcPiEu4Hf6q8CO19fWYl+RHSIG6Jsqwz8vS8awbAVe/7UWC7foAMB3B/vM7CTcc158s9+vw83h37/W4sd9JlSbPMiKl+CmsbG4c1I8mPpEuzN/z6a++dOIh7+pxDk9lVh5X1a7j+fPaGfxyPJK7Cn0XnQyFuQBAH55MBvDshWtHmt4tgLvb9Kh1uLBiBwF3pqbim/+MuKrXQY43Rwm9FXhjatSEKdqvINt698HIeHg2tFavDonBUfLnbjny3KcrnHhPxt0uG5MbLvf64FpCRiUIcfAdFkXROrFcsDKfeYuee/29JV0ZRzh5Of9Zrg8/MONJvZVYem8TChlDPqndV2bCGcdTgIbcEB9Vx+gUTRWe77YYcCT31chLVaC68+Nxb4iO97bqEOt2YM356Y2+35WJ4s5H5SgqM6FCwerkaQW47s9RsxdWILf5uegd7L3i/x8ux5P/VANhgGGZilgsHlQWOeCViHCQbMHMXJvLCkaMaYNjIFC2hjbkTIHrvm4FGIRcMUILfRWD1buM+FYhQNrH8qBTMLAYGNx+xflMNlZpGjEMNlZvPZrbaufR20rx25ww6JSnKh0AgBilaL6/y/GpmMW9EuV4dzeSmzNs+Lz7XqIGOCly5IDXv/TfjNW7jNjaJa3GvtngQ13LinH9sd7AgAOlDgwf3klpGIGs4eqUWfx4I/TNmj9viOOA/YW2jG6lxIahQhrDprxzI/VyIiT+BLeg6UOzPmwBC4Ph15JUsTIRThQ4kBarLfpWBwsxPVnrmkDY5CiEeOsZhKmBvctrcDqA2ao5SIMyZTjSLkDL/xUgxqzB09dlNTpv2d7tHa8pmxONqBCfO1ob/d/orr1P61V+81Ytd+MIZly6Kwe7Dplw/lvF4HjgLMyZNhX5MCag2ZkxUvw/CXe77+tfx+EhBOpmMHQLDluHheH51dVo7jOBauTDehBWHPQjA826XC03AGpmMGY3ko8PjMRA9MbzzcfbKrDm+vqkBUvwe6negUcoy2vB7w38m+srcWuUzZYHCzS4ySYNViNp2cnoVTvxn1fVaDS6O31GPdqAQDgxrGxeG1OSruPtfQPA/67QYcKoxvDshS4a3LgDXhz2hLHnA9LsPOkDb8/2gM7T9rwnw11kIjg+1y259uwZKceB0ocqDC4kagWY2JfFR6fmYhUbeP56811tXhzXR2euzgJMgmDT7bqUa53o3eyDPPPTwjound5OLz2ay1WHzCj3OCGRiHCwHQ55k2Mw/lnxQAATHYWn27TY+1hCwprXXB7OPROluKuyfG4/OzGIhIAeFjg4y06LP/L6LvJ758qwzOzkzAsW4HPt+vxr9Xe6/L3e034fq8JALDvud5I0Yix46QN131SCiC4e/3nA2Z89LsOR8odkIkZjOypwCMzgosHGQvyoFWKsPahHDy/qhrb8m1QSBlM6a/CC5cmI77JDfora2qwPd+GOosHiWoxxvRS4sHpCRgQokloh5PAJTv1WH3QjPwqJywOFhNyVZg6UOX7+QebvF1jL16ajJE9FHC4OEx7sxAr9pjw6pwUSMX89zw/7TejqM6FkT0U+Nfl3gufRiHCh7/r8MPfZjwyIwEA8P4mb/XpqVlJuHdKPABv4wKA8blKFNZqsPu0DX1SZEFJ58db9HB5ONw2IR53TvL+0VWbPPizwIY9hXaM7aPEj3+bYLKzSIuVYMv/9YBaLsJj31Xhfztb7qZo7dgNyvRuLLwxHeefFeP7LLRKEfY+2wsSEQOWA345aMa8JeXYcdIW9HqHm8Obc1Nx7WgtjpQ5MP2tIpyucaHW7G14dRZv6VstF+GOiXE4O0cBm4uDUtr4uY/PVeLgC70hETHwsECcqhqfbdNje77NlwR+skUHl4fD9IExWHxbBhjG+zk3JPwvXJqMnw6YYTO4cc958RjXR9ni51NQ48LqA2YwDLDyviwMTJdjW54VcxeWYtFWPR6YlhBwM9EZv2d7tHa8plK1EjwxMwk/7ffekbd0g9OU083hnWtSMXeUFv/bacBj31XB4mCx4p4sjOujxJvr6vDmulrsL3b4XtPWvw9CwpGb9RYURAx8PQeAt9o/f7l3ctWwbO9N//ojFuw6ZcO6h3PQI7HlsXNtff3Rcgcu+m+xbyKbVMygoMaFSpM32Tpc6vAlXoC3V0QqZpARK2n3sVYfMGPBt1W+1+0ptGH+8sa/9Za0JY4GT/9YjW15VgAI6NE4UGLHT/u9N+O9kqTIr3Lhmz+NOF7hxJoHs4Pe571N3iKOTMLA6eZwtNyBe76swNqHs33J7Wu/1OKD33WQiLyVt3KDG9vyrLhoSGOiKJMwWLRVD53Vg+x4KRxuDgdKHPjHVxXQKESYPjDG99wHl1X4EjupmEGt2YMdZhtild5z8YajVt9zY5UiZMZL65/b8ue3ZKcBj3/n/ezFIu95f9MxK7bl2bDszkyMbXIdM9pYzH632Pf7WxwsVuwxwenm8NGN6b7nzVtcjn3FdmgVIuSmyFBY68LKfSY8fH7onpc7nASW6Lx97QAwIVeFr+Zl+P5ojXbW97M7l5QHvbbc4EZOMwNeGwYK7ym0Y+RLpwN+VlTn8r1/md77/jP9GpemjdWfw/XHWLhZh4WbdUHHGNtHicJa77Em9lVBXV/Zmz4wptUksK3mjNTg4mGB3cuHSh14eU0N9hU7oLc2jl8w2fnHMsyov7Pqmyrzey6LRLUYo3spMDRLjgMl3pPaOT2VePTCBEzIbUzUf9pvxvub6nCy2gWLg/U9brY3/vtoubdaecHgGF9XbVs/Zz5Hyr2ffapW4jtxTOirgkzCwOHmkF/lxNlN7sTO9Pdsr5aO19mmDQg8lkzC+BLphsdMft9NW/4+CAk3Lg+HI2UOLNnhPb9OrD8nAN5q0MtragAA889PwIILEsFywDULS7Et34pPt+nx4qXJzb53e17/xto62F0cUjRirLgnC32SZThW4fD15swYFAO1QuQb+rL41gz0TJJ26FifbNUDANJiJfj+3iykaMR4ZHkVVu4ztfp5tRaHv215VswYFIMrztYEJMvXnxuL7AQpZg5WQyxqHCazr9iOcoMb6U0SylqzB4/MSMCD0xNwuNR7vnWzHH4/bvWdyw/Vn5/G5yqxdF4mGMZ7rvLvnpdLGLx3XRpyU2TIipfA5eFw3r8LcbrGhV8Omn1J4NFyhy8BvHdKPB67MBF2F4e9RXbf7/rlHRm+iue0gTF477q0Vj87l4fDq794q4fTBsZg4Y1pcHm8vXN7Cu14blU11j2cE/Q6mZjBrid7IjNOijuXlOOXQ2ZsONaYhHJcY25x75R4PDAtAS4Phz2FdvRLDc0qIHAGSeCTs5Jw5UgNJr1eiD9O23C8wtk4O9ive/6Nq1KQrAk8TNP/9tfw0vG5Stw5KT7gZw3j9VzuM1tupOHVt0+Iw6R+gclCw51Sw3P8u/okbZ0Z0gb+Y7wAbwO68dMyVBrduHKkBteOjsXxSiee/L6qmXcAYlXeExPDE5ZKJsKq+7Lx1R8GfLxFjz8LbLhmYSm+uC0D0wfG4HiFd/wNB281dUxvJb76w4BluwMnszQ31qKjxPWfYXOfJMtzuDP5PTuipeN1toZjNTStGL/uL77m1pa/D0LCyde7jfja77yTohHjVb+u1ROVDt+g/sNlDjxWX8Ex1t8cH6twtvj+7Xn9jpPei/pVo7TITfFeuJt24XbWsQ6UeMcRzx2lRc/65OyuyXFtSgLbY0CaDJ/fkhF0PtMqRJg9VA2Xh4POzAYUZviSQImIwT3nxUMiYjAsW4HsBCkKa10BFclRPRTYcsKKzSesmPF2Ee6cFIfLR2iCrp3n9fded412FnYXh9wUGU7XuFDh914NPWAixptQS8UMpGIGk/t1/AYf8H4HDUWWeRPjfEMObh4Xhz2FFThU6uDt+blypNb3Gc0cosYvh8ywOFhfzxjDACN7KLDrlHe+wZ5CO+6a3HrvmNDO6KqRFivBggsS8fyqajy4rBK/PpQNqZiBVilCZpwEpXo37C7ONxYAAGrMnha76hqSsNM1LozPVfq+IKuzsRqSECNGrFIEg43FL4fMuPc878Uwr9Lpq540JBsGG4umBmXIcaTMgXKDOyi2pPovPifB+9HsOmWDw81BLmHwx+ngblk+LR27OVUmt++P6amLkpCqlSCvquWTW0ssDhZKmQi3jo/DTWPjMG9JOX49ZMbvx62YPjAGR8sdYDmgV5LU153ecGfqr1eSFCcqnVh32ILrRseCYbx3hGJRYyIrqc9bjLbWZ18NypCDYYAKoxtHyx2+7mCnm4NUzARU3zrj9+wOYr/CqNHGQqvsupnQbfn7ICScfXlHZkDFqs7S2LbXHrYEPd/RyhqkbX29h208Z6fxdKu2RVuP5fJwvi5n/2OlaTv/Rm5Qppz3hvbD33VYvMOAYp0LXJOPsOl/A0BCjChgjGbDBE//G/eHz0+E0c5i8Q4DDpc58OCySvx3gw5fzcvwJVAnq5148acabDlhhaNJQcf/uA1DfTQKUaeuLmHwu04la8S8/661BCeBWfGN343CL4fxj3nhjel46JsKbDpmxfojFqw/YsEFg2Lw4Q3pAa8JJWfc4m6fEIflfxlxpMyBd36rw6MXeNdJmz8jEY8sr8SzK6ux+YQVarkIJyqdyIiTYPFtzS+XcfEwNd7bqMPJaiemvlGEMb2V0NUP9l9+VyaGZSvAMN5S9gebdPjX6hr8tN8Mq5NFcZ0Lp17JBQD0TvY2uCNlDsz+bzFsLg4/3Z8FlUyEuyfH4ef9Jqw5aMbs/xYjN0WGEp0Lh8ocOPaSdxbvZWdr8PKaWhTWujD59UKkaMU4VNq28RotHbs5SWqJL7F9dmU1clNk+GxbcFLWVr8dteC5ldU4p5cSSWox/i7y3nUOzfImEX3q73KL6lz45881MDlYrD4QfAd649hYrD3sbcwTXivwfY8r7snCyB7eP5JeSTKU6NxY8G0VFm3VY2JfFR6czj8GIitegrmjtPjmTyMue78EA9LkOFTqje3mcbHtntDR2u/ZHVK1EqhkIlidLGb9txjxKhEevSAxqMrcGdry90FIOLl2tBZvXJWKqz4qwY6TNjy/qhrL787yVcITYhrPCavuy273LPi2vl4s8l7c7S4OFQY373M661hSMQN5/RCYGlPjsRoSn84k5skAV+0z4aWfvd3WN4+LxaR+KtRZPHj02+Z7nhq651s8lsg7D+De8+Lx6TY9Ptmqx8lqJ578vhpf3uG97t/6eTnyq5zokSjFfVPjkaaV4P1NOuw6FVhkaegVMdnZMxrn3VSS36S9apMHA+uH9FX5VSHjVcFDf9ry+ydrxPjqjkwcLHXgvY11+Gm/GWsPW/DZNr2v2BJqzji9FouA1+akgGGAdzfocLA+Ubp2tBYf3ZCGYdkKbMuz4ucDZthdHGYMark6o5KJ8MM/snDdmFg43By+32vE7gIbxvZRIj2u8e7w8ZmJePbiJOSmyHA1ziuGAAAgAElEQVS03DtI9ooRjQszn9NTibsmxyNFI66fodXYnTswXY4f78vGtIExyK924ru9RpysdmGO3+vjVWJ8eUcGBmXIUWl0Qypm8PP92W3qEm7p2C19ju9fn4ZeSVL8esiC1QfMeO+6tHZ1RfjrmShFRpwUm49b8fVuI1QyBk/MSsTcUd7fcUimHE/OSkKcSoxPt+lxqtqJb+/OCopz6oAYLLk9AyNyFKg2eZBX5cS5vZUBd0XPXpzkm017stoVcEfF5/UrU7DggkTEqcTYV2xHkkaCxy5MxHMXNz+up6O/Z3eQSRi8fmUKeiZKUaJzoc7i8c347mxt/fsgJJwwDPD21alQy0XYcdKG//zWuOZm31SZb7bqe5vqAqpH+4vtKNW3nLC15/UN45G//cuIE5VOsByQX+XEd3sab5D9k5GG3hpdffdie441pP5G9ds9JlQY3HCzHD5tx41/S3G0puE6HacS45UrUjBzsLpTqm1bTliht3qQFivBUxcl4aqR2oC4GsZ9A96u2OvHNCagTQ2v/y5YDnhjbS1cHg5GO4uV+0wB45+V9eM1i+pccLg52FxcUIXRX79UmW/ozCdb9bA6WRhsLJbUj/fvlypr9RrGh+OAdYctcLo5DMmUY+GN6ehVP3axro3fixCYwgpDwKeVnqiGVNJ13Vn+9hfbMfM/xRAxQNHrfdu8GDMhhESbosqWF5/PSQ2v3Ykadgy5drTWN6v+y10G/N+KKohFwPf3ZuGcnt7xVCv3mXDvVxXgOO8qChmxElSZPKizePDNXZmY2NdbdW9YzqTpEjFtff3vx624flGpr4tPLPJ2E08fGONb8N3iYDHshdO+IRgKqXecWsMOJW091qr9Ztz9P+/ESaZ+NnS8SuTbdKG1HUNai6NhwsTcUVq8c03gqgU//u2NEQDG9fEuEbY1zwaXh4PLw+Gn+7Mxsoeixc90yhuFOF7hxB0T43yTXS59rwR7i2zIipdCqxDhSLkDHhZ4ZEaib+WCCa8V4lS1E0lqMcblqnCkzIEyvRtWJ4vz+nvX9QO8SdVl75fgzwJbwHcBNK7DCngTxLfWe28aZBIGbg+HtQ/nYFCGvNkdWFYfMOPO/5WD47zvy3Lw/XvxbRmYOqCxWNWw9uvbV6f6dgD7+YDZN+n12Et9oFWK4GY55PxfPuQSBj2TpHB7vF3fDAMsvysL43OFGRvY0nnjxcJ8YfYOPl3jwmXvl+Caj73r9wzKkFMCSAghUe6Gc2MxdUAMPCxw75cVvjF6lw7X4Js7MzG5nwoMvJUvEeMdttMwgaMlbX39ef1V+PL2TJzTUwmllIGIYZCbIsPlIxrXr4uRi/DedakYmC6HXMJAqxBhuN8wjLYe65JharxyRQoy4iSQiRmc21uJdfN7tLrcTVvjaO3zuG9qPJI1YvxVaEeJzo1FN6cHrVjRXhcMikFOghSVRjfyq5zonSzD4zMT8ZDf8KCPbkjDyB4KmOwstp6wYkwvJX78R1bQezGMd/bvbRPifJNUtAoRLhmmDkiO7zkvHpcM1yBRLYZExGBwppy3O9ffRUPVWDovE2N6KaGQiqCUijA+V4lv7soKSADbQ8wwuPxsDeJUYpyqdqHa7MbIHgosvDFdsASwLQSpBJ6ucWHmO0Ww15dN/31VasgupEgIIaEg0iqBXaGhKsS3WDQh0ai1SqAga0r0SpLi2D/7tP5EQgghpBVONweRCNhbPzFMo+j8NT0JiUS0sBghhJCwNufDEuwvdvh2HJnSv/Nn5hMSiSgJJIQQEta8GxA4EK8SY/YwNR6pX6qMENIySgIJIYSEtc9uSW/9SYSQIILMDiaEEEIIIcKiJJAQQgghJApREkgIIYQQEoVoTCAhhBASZtzwwMOx8ID1/g/HgQMHFiw4ACIwEEEEMSOC93+YgH8TAlASSAghhIQsO+eEjXPCxjrgghtuzpv0nSk5I/X7XxkUjBQMJYdRh5JAQgghJEQ4OBcsnB1W1gE75wQHrvUXdfA4Ds4V8JgEYsgZKcoq6hAjVmBgenaXHJuEDkoCCSGEEIFw4GDlHDCzdlhYGzydUOXrKDc8cHMefL1jE45XlEAhlWFETi7OzumDsX0GIk51ZnsLk9BDSSAhhBDSzeycEwbWAhNr67JqX0d4PB7kVZYBAOwuJ3acPIIdJ4/go82rMabXAFw4ZBTOzulDXccRgpJAQgghpBtw4GBkrdCzFjibdMWGiqKyGrBccDXSw7K+hDBRrcVFQ0fjoqGjESNTCBAl6SyUBBJCCCFdyAMWOo8JetYSUlU/PifLylp9Tq3ZiCU7fsO3f27BrKGjcfnZ46irOExREkgIIYR0ARc8qPMYYWStQofSZsdKStr8XJvLie/2bMN3e7Zh5pBzcP2YKZQMhhlKAgkhhJBO5AGLao8eJtYmdCjt4nK5cbKq9Uogn18O/omNR/fhihHjMWfkBCiksk6OjnQF2jGEEEII6SQ61oTTroqwSwABoLCs6oxe73C78PXu33HHF29j3eE9nRQV6UoRnwS63R6hQyCEEBLhbJwDBa4K1HiMIT/urzn5pR2rAjalt1nw3w0r8dCyj1Cmr+uU9yRdI6KTQJZl8c6Hi4QOgxBCSIRiwaHCU4cSdw1cCO+iw7GS4k59v/yqMtz71btYtnsz3Gx4fzaRKqKTQEIIIaSr2DgnCsK067cpm8OBwtoz6w7m4/Z48OWuDXh42UKU6Ws7/f3JmaEkkBBCCGkHDhyqPHqUuKsF3eGjMxWWdH4C6O90TQXuX/oBNh8/0KXHIe1DSSAhhBDSRm6wKHJXw8BahA6lU7VlfcAz5XC78O+1K/DfDSvhcIfmYtnRhpJAQgghpA2cnAvFrsqQ3e3jTBwpKeq2Y607vAePrfgUFqe9245J+FESSAghhLTCyjlQ5K6GO0K6f/1ZrfZun8WbX1WGBcs/gcEWWRXVcEOLRZOIdKDkNA6Wnu7w64dm9caQzJ6dFxAhJGyZWBsqPJG71MnpskpBjltcV4353yzEq3NuR7ImVpAYoh0lgSQiHSw5ja93/97h14sgoiSQEAI9a0G1Ry90GF0qr6TrxwM2p9Kox6PffoJXr7wdadp4weKIVtQdTAghhPCoY00RnwACwJGSQkGPX2M24rEVn6LKFPmfdaihJJAQQghpotZjRK3HKHQYXc5otqLaZBA6DNSajXj020WoNUf+Zx5KKAkkhBBC/NR4jKhjTUKH0S1Ol1YIHYJPrdmI/1uxCDqrWehQogYlgYQQQkg9A2uBLkoSQADIF3A8IJ9Kox7P/LAYTo9b6FCiAiWBhBBCCAArZ0dVFIwB9HewuEDoEIIU1FbildXLhA4jKlASSAghJOo5OTfK3NG1t22tzhSy6/T9WXACn21bK3QYEY+SQEIIIVGNA4cydw04oQPpZoXlXbtf8Jn6fu922mu4i1ESSAghJKpVeHRwwSN0GN0ur6RE6BBa9fZvP6CwVpjFrKMBJYGEEEKilpG1wszahA5DEIdKCoQOoVVujwfPr/oSVqdD6FAiEiWBhBBCopIbnqhYDJpPjc4As8MudBhtUm0y4M21K4QOIyJREkgIISQqVbh1YKNuJKDXqZLw6mL94/Rx7Dh5ROgwIg4lgYQQQqKOgbXAxkVvF2NeaeiPB2zqg00/0/qBnYySQEIIIVGFBYcaj/BbpQmF4zgcEni/4I7QW81YvH290GFEFEoCCSGERJVajyFqu4EBoLJWB7vLKXQYHbJy306aLdyJJEIHQAghhHQXJ9zQs6G5QHJ7yBlp/f/KoKj/NwPG93MWLDzgwHIsPGDh4JxwcC44OHfYjQds6tOta/HiZTcJHUZEoCSQEEJI1Kh1h2c3sAQiqEVKxIiUUDHyVp8vgsjb1ceIASDgNXOHT0KOJhnb8g5hT1E+3J7wWiNxb1E+DpacxpCsXkKHEvYETwK//m4VnE4nRCIRrrj4Quh0Bqz/fRsYBhg9cjjO6t8Xu/fsw/H8U3C7Pbhk5nQolQp8t+oXiEUiJCUmYMbUSUL/GoQQQkKcg3PBzIXHsigNVIwccWI1YhhFp72nUirDlAHDMGXAMNhcTmzLO4Qf9u5AUV1o7yDib+HmNXjv+n8IHUbYEzwJBICbr73S9++vlv+AW66fC6lEgvcXLUHvnjk4cPgo7rjpWuj0BqxetxHxcbEYP2YUevfMwbLvVqG6pg7JSQkC/gaEEEJCXbhMBmHAIE4UgzixGhKIu/RYSqkM5581AuefNQIbj+3D4h2/odZs7NJjdoaC2kpsOXEQk/oNETqUsCb4xJCa2jqsWLkGazdsBgC43R7IpFIwDANNTAxOFxQjLSUZABAfFwu93oDi0jL0yM4EAORkZaC4tEyw+AkhhIQ+B+eCNQyWhFExcvSUpiJJHNvlCWBTUwcMx+LbFmDepJmIkXVe5bGrfPvXVqFDCHuCJ4H333kLrrx0FpwuF06eLgTnP2OL8U5lB9M42JXz/Z+G5zBNHiCEEEIC1XlCu7rFgEGaOB6ZkqRuT/6aunT4WCy8+UGM7NFX0Dhac7qmAvuLTwkdRlgTPAlsIJFIwDAMxGIxnC4XOI6DyWRG7545KK/wjlPQG4yIi9UiKzMdhcWlAICi4lJkZ2YIGTohhJAQ5oQ7pMcCKhkZekpToRGphA7FJ04ZgxcuvRHzZ1wBtTx0q4I//L1d6BDCmqBjAvUGI75btQYqlQoqpQK9e+Zg1vlT8dXyHwAwmDJxHBQKOQaf1R//++Z7uFxuXDJzOlRKJb5duRq7/vobCfFxSE5KFPLXIIQQEsL0HrPQITRLzSiRLgndMe1TBwzHsOw+ePqHL1BcVy10OEH+KshDia4GWfFJQocSlgRNAuNitbj9xmsCHsvJysCt188NeGzsOSMw9pwRAY/5TyYhhBBC+HAATKxV6DB4xYs0SBJrhQ6jVYkxGvz7qnl44rvPcLqmQuhwgvx2ZC9uGT9D6DDCUsh0BxNCCCGdzczaQnJ3kCSxNiwSwAZquQKvX3k7+qZkCh1KkN+PHxA6hLBFSSAhhJCIZQzB3UHiRGrEizRCh9FuSpkcL8+5FbkpoTUOv8ZsxOGy8NsLORRQEkgIISQiseBCblkYNaNEsjhW6DA6TCmV4blLboBWGTqTWABg07H9QocQligJJIQQEpHMrE3oEALIGElITwJpq3iVGs9dfIPQYQTYnn9Y6BDCEiWBhBBCIlIoTQhhAGRIImcli/5pWXj4/CuEDsPHZLfhWEWx0GGEHUoCCSGERBwOCKmu4GRxHKShsVNrp5k2cDjG9hkodBg+ewrzhA4h7FASSAghJOLYQigBVDJyxIpihA6jS9w5aRYkYmF3OGmwp4CSwPaiJJAQQkjEsbChs0NIqiRe6BC6TLImFleNnCh0GACAE5WlMNpCZwhAOKAkkBBCSMQJla7geJEaUoH3Au5qV46aiHiVWugwAICWimknSgIJIYREFA6Ak3MJHQYYAAlhtCB0R8klUlw5KjSqgUcoCWwXSgIJIYREFHuIVAE1IhVEYIQOo1vMOGtESIwNPFpOM4Tbg5JAQgghEcXOOYUOAQAidjIIH6VMjin9hwkdBvKqSuFhWaHDCBuUBBJCCIkojhDoCpYxEigYmdBhdKuLh40ROgR4WBYnKkuEDiNsUBJICCEkojg5t9AhQM0ohQ6h2/VOTkd2QrLQYaBMXyd0CGGDkkBCCCERJSSSQFH0JYEAMDSrl9AhoMJISWBbURJICCEkYnjAggMnaAxiiCBnpILGIJQhIZAEVhr0QocQNigJJIQQEjHcnEfoEKAUyYUOQTDDs3sLHQIqjTqhQwgblAQSQgiJGB4IPzM0WquAAKCWK5GTkCJoDLVmo6DHDyeUBBJCCIkYnhCoBEZzEggAPZNSBT2+xRk6WwaGOkoCCSGERIxQqATKojwJFHoLObOdksC2oiSQEEJIxBB2SoiXOMovrXECJ4EcODjcwq8VGQ6iu6USQgghnSxatoprjtCVQACwOUNj68BQR0kgIYQQQjqN0JVAALR1XBtJhA6AEEII6SxaixWxdZXCBcCIgZxM4Y4fAjyc8AmYSEQ1rragJJAQQkjEELMsYDUJHUZUC4WuWDFDSWBb0KdECCEkcohCoLbhEX7bOiFZQyAJpEpg24TAXwshJJKU6Gqw+cSBDr8+Oz4Zk/oN6cSISFQRiYWOAGDdgDh6L692l1PoECChJLBNoreVEkK6RImuBl//8XuHXz+m9wBKAknHhUIl0GkHpAqhoxCMyW4VOgQopDKhQwgLlCoTQgiJHKFQCXRYhI5AUKeqKwQ9fpJaK+jxwwklgYQQQiKHmJJAoR0tLxL0+KGwRE24oCSQEEJI5JDIhY4AsJuFjkAw1SaD4BNDQmGx6nBBSSAhhJDIIvR4PLsJYD3CxiCQ/KoyoUNAsiZW6BDCBiWBhBBCIotMJXQEgKVO6AgEsacwT+gQkJ2QLHQIYYOSQEIIIZFFHgJJoFkndATdzsOy2HrikNBhICchRegQwgYlgYQQQiJLKCSBxiogBLZP6067Tx+HxWkXOgzkJFIS2FaUBBJCCIks8hihI/COCdQLuIexADYd2y90CNAolDQxpB1CYFXNyLT+yF5sPLqvw6+fftYITBs4vBMjCn01HiPsXMdXmk8Sa6FgaIFQQqKeIkSSAF0JEJ8udBTdotZsxI6TR4QOA/3TsoQOIaxQEthFqox6HCwt6PDrh2b17rxgwoSTc8HGdXxpAQ+iq+uFENIMRgRIZIBbuO3LHPJ4HHBkI7UOyEkQLIxu8+WujUKHAAA4K6OH0CGEFUoCCSGERJ6YeMDQ/d2xNnki9thycLJKAwAocXDITmDAdHsk3adUX4vfjvwtdBgAgEGUBLYLJYGEEEIijzqhW5NAszwFu805KDYETkox2oFjFcDAtG4Lpdt9sX0dOHBChwERI8LA9GyhwwgrlAQSQgiJPOrErj8Gw8AgS8MOYzaqDM0vUL2vhENuMgNpCOxo19kOlJzGzpNHhQ4DADA4swdEDM13bQ9KAgkhhEQekRhQagGbsfPfmxGhVpaB7YYc6PStX0adbmDnKQ6T+kZWp7DFacfrv34rdBg+o3v1FzqEsENJICGEkMikTujcJFAkQaUkE9sNmTC1Ifnz9//s3Xd4HOd16OHf7C62oHcQnWIDCbB3sffeiyiqWHK3FV+X2ImT2DeO5OTGiuPYcWQ5smXLskRRLGInJXZSBHsT2AACYEHvZVG2YNv9Y4klQBSCIApBnPd5VLAz882Z2dndM9985U4ZRAXCgKdoMotffraFStOTM0/ypAGJ3R1CjyNJoBBCiKeTbzCU3H3sYlxqLXnqaE6WR2NxtP9x45k7LiL8FPy6eWrjjrD3yjku3O3+KeLqxQWHE+4X2N1h9DjdngTu3HeAWpMZs9nMS8+torqmlr98tJmw0BAGDejHs+NGc+7iF9zMvI3d7mDZwjkYDHo+2fUpapWK0JBg5s2a1t2HIYQQ4kmj9wONDuztG3rKqdaRpYrl89KoDgnH4YQjN10sHqag6cFN177Iuc3vj+3p7jAamdh/cHeH0CN1axJYU2siLCSY5YvGcuLUOdLSM1Fr1CyYM4OhQ9zP9i1WK1eup/K1L62notLI3gNHCAoMYPKEsfTrG8fHn+yipLScsNBeMBCTEEKIRxMU+ci1gU4vbzKdsZytiMDZwZ1eK82w/4aLeUN6ZkeRjOI8fr57Q3eH0cTcxNHdHUKP1K33Ir4+3kyaMBaAnLx8IsJDqaqq5sq1VD7aupP8wiKKikvpE+5uRBEUGEBlpZGcvHziY6MBiIuJIicvv9uOQQghxBMssO0zdti9fLmuTuKD0rGcLu/4BLBeaQ3sverCbOuc8jtLdnkxP932Plb7kxV4UlQ8kQFSEdQe3f44GODM+UuEhYbQJyKcPhHhTJowFrPZwgebPmH+7Bmg3O9R5fL86x5FeeAFIYQQ4h6N1j1cTE1Zi6vU6QK4XhfPldKua1NmtMC+ay7mDlHw7wFtBO+UFvKT7X+hts7S3aE0sWDY2O4Oocfq9lYJl69cp7C4hLkzpzZ6Xa1RoygqIsJCKSgsBqDSWEVggD8x0ZFk5eQBkJ2TR2x0x7TXEEII8RQKav43wqIN5rRrFBuLR3Clsus7FdRYYc9VF4WdMIpNR/r06nn+dtMfqDKbujuUJgxaHVMHDO3uMHqsbq0JzM0r4ONPdjF40ADe27CZsaNGUFRcQlFxCXa7g4VzZqDX6xiamMAHm7Zhs9lZtnAO3gYDW3bu5cyFywQHBRIW2gWDggohhOiZfIMbzSVs0oVxrjaOLKNPNwcGNoe7jeCYOIWhT1h9hsVWx3/u38qZ22ndHUqLFg8fj0bdAxtXPiG6NQmMiY7kzdf/sdFrwxKbDvb47LjRPDuucaPPV9av6dTYhBBCPEWCo6k2mjldHUdBK7N7dJeL2S7KamFMnBVfXffHd+rWDf504jOKqiq7O5RWrRw1qbtD6NGeiDaBQgghRGeyBsSx65YLu7O7I2lZXkUO7xz9iPUTZrBw2Dg0qq6v4bqWd5d3T3xGZvGT3+FywdCxBBi6vza3J5MkUAghxFNPp4GhUQpf5D6ZHQkNXk4+PPUeTpeDd47vY9ulk7w6aS7TE4Z3yf4vZWWy44tTXMrK7JL9dYTVY6Z0dwg9niSBQggheoWkKEgtBKu9uyNp6mbhAZwuh+fvkmojv9y/lQ/OHGbaoGHMHjKK6MCObf9eYarhs6sXOHDjIiXVxg4tu7PNGjxShoXpAJIECiGE6BU0KhgWrXAh68mqDTR4lXL21ulmlxUaK9h8/nM2n/+cfmGRTOqfSGJUHAl9YtBpvB5pP7V1Fm7kZ5NemMu1/Cyu5t7piPC7nFat4dXJc7s7jKeCJIFCCCF6jSF9IK3QPTzLk0CrcbH78gdtWvd2SQG3Swo8f/cPiyQxKo4QH3+8dToMWh3eWj06jYbS6irKaqsoramitNpIgbGc3IrSzjqMLrV23DSCffy6O4yngiSBQggheg2VAhP6Khy++WTUBpZUnaPC1L4euLdKCrjVICnsDYK8fVk7ZurDVxRtIklgA/n2Mmpd7R8NPUoTgo/S/V37hRBCtCwmCGICIbebRz/x0ZrYcm5f9wbRw/zNrGUyLmAH6vYZQ4QQQoiuNuEZBZXy8PU6i1oFB6617TGwcJuRMJyJ/QZ3dxhPFUkChRBC9Dq+OhgV231ZoKUulfzKJ38svidFkLcvfzNzaXeH8dSRJFAIIUSvNDQKIvy7fr++Ojs7Ln3c9Tvuwf5+4XMYtLruDuOpI0mgEEKIXmv6QAWvLmxipgCnMrZ03Q6fAitGTWJYdN/uDuOpJEmgEEKIXsvgBZP6dd1jYbWSzc3CtC7bX083IDyKr0yZ191hPLUkCRRCCNGr9Q2BxMjO34/By8knF6UzSFv5aPX836UvolIkVekscmaFEEL0euPiFSI7uX1gWsF+6ux1nbuTp8iPFz5HiAwK3akkCRRCCCGAmQkK/p001Ku3Vynnbp/pnMKfQt+bs4LR8QO6O4ynniSBQgghBOClhjlDFAyPNiXvQ+k0LnZc/mvHFvoUWz1mCnMTR3d3GL2CzBgihMDssmJytn8yVW+VHoOi7cCIhOgefjpYmKSw95oLq71jyiysPIvRZOyYwp5yUwYk8eXJ0hGkq0gSKITA5LRS7qxu9/aKokgSKJ4afnp3Irjvuou6x0wEfXUmtpz7tGMCe8pNeCaBf1i0rrvD6FXkcbAQQgjxgAADzB+ioH2MMQQ1Kjhw7cOOC+opNqHfYH6yZH13h9HrSBIohBBCNCPYBxYOVdC185mZue4GeRV5HRvUU2hGwnB+umS9DAXTDeSMCyGEEC0INMCioQr6R+ws4qOzsePSps4J6imyaNg4fjR/DQrdN49zbyZJoBBCCNEKfz0sSlLwfoRmr6fSZWq41qgUFd+asZjXZi7t7lB6NUkChRBCiIfw08Py4QqRAQ9fV61kkV50s/OD6qF8dXr+36pXWTJ8QneH0utJEiiEEEK0gVYD84YojIhpeR1vrYPN597vuqB6mL4hEfz3+tcYGt23u0MRyBAxQgghxCMZGaMQ7gfJmS7MtsbLrubuw+lydE9gT7hFw8bz9WkL8FJL6vGkkHdCCCGEeERRAbBypMKFLBfpxe7X9JoSLt290L2BPYF8dXp+OH8N4/oO6u5QxAMkCewBcirgyE1Xu7ePDYJZCdLzSgghOpKXGp7tp9AvFM7ddbDpnIwJ+KBJ/RP55vRFhPj6d3coohmSBAohhBCPIcIf5ie5sNaNY9OFzzHXtX8KxqdFuF8g35m9jNFxA7o7FNEKSQKFEEKIx6RVa1gzdipzk0bzwenDfHatdz4W9lJreG7sNNZPmNHdoYg2kCRQCCGE6CABBh++M2sZK0ZN4i8nD3Dmdlp3h9Rllo6YwLrxMwg0+HR3KKKNJAkUQgghOlhMUCg/XfIC6UW5/O+xfaQX5XZ3SJ1CQWHWkBG8NHE2YX5tGERRPFEkCRRCCCE6yaCIGP5r3TdIzrjGjsunSSvM6e6QOkSgwYcFw8YyP2msJH89mCSBQgghRCebMnAoUwYO5W5ZEXtSznI0LQWr3fbwDZ8wY+IHsmj4eCY8k9DdoYgOIEmgEEII0UX6hkTwnVnL+OqU+Zy6lcqFu+lczs6kxmrp7tBaFOYXwPykscxNGk2Ij193hyM6kCSBQgghRBczaHXMHjKS2UNGAnAjP5sLWelcuJvB7ZKCbo4O+oVFkhQVx4R+QxgZ26+7wxGdRJJAIYQQopslRsWRGBXHl56dg9Fcy7k7N7mYlUlmUR6FVRWduu8QHz8GRkSTGBXPoIhomde3F5EksLdxOqDsMRomqzUQ3Mrs6U8ZmwOuF7R/thYvtUJSZIMXynLc70F7hcSCSt3+7XuYJ+78h/Vt/7ZCtFGAwYe5iaOZmzgagDqHneyyYrLKismrLDFQgVYAACAASURBVKWkykhpjZGSGiOFxrYliHovLaG+/oT4+hPq60+YXwD9wiJJjIqXIV16MUkCexunHUqz2r+9RtfrksCUxxjZwVvrIimywZR9ZbngqGt/gUFRvS4JfKLOvySBohto1RoGhEcxIDyqu0MRTxlVdwcghBBCCCG6niSBQgghhBC9kCSBQgghhBC9kCSBQgghhBC9kCSBQgghhBC9kCSBQgghhBC9UI8cIsZkNvPJrk9Rq1SEhgQzb9a07g5JCCGEEKJH6ZE1gUdPnGbyhLG8sHYF5RWVlJSWd3dIQgghhBA9So+sCczJy2fB7OkAxMVEkZOXT1hocJP1FEXB18eH9MzbbSvYVwVe7c+L82oKweZ0F+X0YlrfxHaX5eNSe+I22bVE6n3bXZbWZic9swoAFU5CVO2fANzpUlHW1vP5qJ7A8293qYjUB7a7HI3KRXrm/RH9QzGgqHTtLq/sTjZOpePv3RSDCpe+/eWWWsooNZcAYK2ufaxzH+kT5Ln2n7TzX9LGaz8kOIiQ4KB270cIIbpCj0wCaTiLlKI88ELDRQrxsdGk3szokrAelKBu/4+Aq8xEalnHxG0GyjqkpHpFHVpaZ3lSzn9qh5RSr6RDS+ssj3PuMdGhn9nuOP9DEgZKEiiEeOL1yCQwJjqSrJw8+vWNIzsnj9nTJ7e47sK5M7swMiGEEE+6DFveQ9cZ6BXd5vIuXrzIyZMnWb16NdHRbd+uq5w+fZqMjAwMBgNqtZply5ah0Tzaz//WrVtZs2ZNo9f27t3L4sWLHyu2mpoaTp48yfz580lJSSE9PR2bzcbs2bOJiIjAYrGwa9cuHA4HI0eOZMiQIQAcPHgQq9XKkiVLqKioIDU1lUmTJgGwa9cuFixYgFarfazYeoMe2SZw1tRJnDh9jo+27iQwMICw0JDuDkkIIUQvNWrUKCIiIh6aAB4+fLhT42it/BkzZrB27VpCQ0PJycnpkP09bgIIcOnSJYYPHw5A3759Wbt2LYsWLeLixYsAXL9+nbFjx/L8889z6dIlXC4XNpsNLy8vYmJiKCkp4fLly4waNcpT5uDBg7l+/fpjx9Yb9MiaQG9vA6+sX/PwFYUQQogutn37dgwGAxUVFSQlJTF8+HBSU1NJS0vDbrczf/58SkpKOHz4MIqiMG3aNCIjI0lPTyc7O5vi4mJPbd2OHTvw8fGhsrKS+fPnEx4e3uy2D5bfEqvVire3NwApKSncvn0bk8nEypUr8fb25tChQ6hUKiorK/H29mbBggWNtt+7dy+jR48mMjKSLVu2sHbt2haP2Wq1smvXLrRaLU6nk3HjxhETE9OovIKCAqZNc4/wERAQAIDNZkOnc7fdraioYODAgSiKQkhICNXV1ajVarRaLTqdjoqKChRFwWAweMrs27cv+/bta5QYiub1yJpAIYQQ4kllNBqZOXMm69atIy0tDYCEhAQiIiI8CdrZs2dZvHgxq1at4vTp055tTSYTL7zwAr6+7s6AFouFpUuXMmvWLE9ZzW37YPkPOn78OBs2bMBoNBIeHg7AiBEjWLlyJUlJSeTm5nrWjY+PZ9WqVVRVVeF0ujvbKYrCmTNniI+PJzIysk3HfP36dRITE1m+fPkjPZo9e/YsI0aMAMDf35+SkhJcLhcFBQUAGAwGrFYr1dXVZGRkEBMTw759+zzHoNVqsdlsbd5fb9YjawKFEEKIJ5W3t7enJktRlGbXMRqNHD9+vMk6sbGxjdYLDnaPfKHX67Hb7a1u25rp06cTFxfHxYsXuXr1KsOHD+fy5csUFxdTWVnJsGHDPOsGBbk7NWm1Wux2O1qtFrPZzBdffMH69evbfMxGo5HExMRGx/EwKSkphIaGEhoaCrgT1cOHD5ORkYGfnx/e3t6oVCr8/f2pqqpCo9GQm5vL3LlzOXr0qKem0eVqvsOoaEySQCGEEKIDNZeYKYriSeLA/ehz5syZ+Pj4NFpPpXr4A7rmtn2w/JbodDpMJhNms5lbt26xZs0azp8//9D4dTodixcv5uDBg006iLS0TUBAABUVFURERFBVVdVsPA2Ttby8PPLy8li0aFGj/S5atAiLxcKRI0c8HVrGjBnjSRjT0tLQaDSeGOrq6vDy8nrouRCSBAohhBCP5fLlyxQVFZGXl9di5xBFUfD29mbXrl0sW7aMiRMnetrLxcXFMW7cuDbvr7ltHyz/QcePH8dgMOB0Olm6dCl6vR5wdyapq6trkow2F39QUBAxMTFcuXLF05mjNUlJSezatYuMjAxqa2ubXadPnz4UFhbSp08fPvvsM7y8vNiwYQN6vZ7Vq1djNBo5fPgwTqezyaPu/Px8RowYgcPh4NChQ57H1FlZWcTFxT00PgFKVqGxUZ1pZIgvXhppKiiEEE+S7KLma1LqxUX4d1EkPV9HDxEjHu7gwYOMHj2akJDGo3lUV1dz6tSpVjuzPKrdu3czb948z+Pp3qy17403sjKlJlAIIUTvIgle1ygrK+P48eMoioJer2+SAAL4+fl1aAIIsHTp0g4t72kmSaAQQgghOlxISAirVq3q7jBEKyQJfAJ8tHUns6Y+y7HkM8ydNY2QoPtzpVqsVjZv24Nao8ag17Nq6QJy8wo4eCwZRYHxY0aSmDCQnfsOUGsyYzabeem5Veh0Wn7z+z8RFBhAgJ8fK5Z07J1Wb5BXUMiBI58DMHRIAuNGj2D7ns+wWOtwuVw8t2Ixdoejyftz+vwlrlxLxaDXM3XSeJ6Jj33Inp4epWXl7DtwlC+tX/3YZcn5F0KIziVJ4BPghTXLW1yWnZPHtMnj6RsXy58/3ITJZGbfwSO8+uJzeGk0/O7dvxIXE01YSDDLF43lxKlzpKVnkjCoP31jYyT5ewyZt7NYv3o5er2Ot/7wFwIC/PH29mblkgVcuHyF85evEBIU2OT9KSoq4ZUX1qDvhe1RQkOCOyQBBDn/QgjR2SQJ7AS5+QUcP3mW2loT82ZNIysnj7LycrwNBmpqTaxZvoi3/vAXAgMDGJ40mBtpGcydNa3ZsgYN6AeAw+GgptaEXq/Dbnegvdf93c/HB5fLxaQJYwHIyctn1rRJVFQaKSwp4eNPdjFk0ABGDEvsmoN/AuQXFrHr04PERkVSYzLh6+1NTl4BL61bSaWxyvPezJo2iYNHT/Dtr75MYVExZy9+wfJF8zzlTJ88AYDSsgr8/HzJzsmjb6y7LVF8bDRHTpzi2XGjgcbvj9liYd+BozidThbPm4XBoO/6k9BNqqpr2LnvAONHjyA3v5DZ0yfz0ZYdLJo3i537DhDVJ4Lyikr694tneOJgdn16EIPBgMPhYNnCuY3KkvMvhBCdS5LATtAnPIwX1iwnr6CQC5euEBQUyKAB/Rg6JIH3N26luroGa10dL65dgaIo3EjLaLU8l8vFlh17WThnBiqVChcNOnQrwL1xls6cv0RYaAh9ItyjwX/ryy/hcrn43bt/JSkxAY1a3VmH/MSJCAtl8fzZ/Prtd/nBa1/j81NnuX03h8SEAY3em37PxHMz8zYpV28wr5lE3Gy2sG33Pp5fvZxzF78Az1hYCvVvw4Pvz/p7Nbtp6bc4fvIMC+bM6JqDfsLZ7HamTZqAWq3ivQ2bsdsdWOtshAQHU1xSisVqbVJ7J+dfdIYlv/3nh66z57tvdEEkQnQvGQumE5RXGDl64jQp11JxOB2NltntdtRqd/ulto70vn3PfoYkDGRg/2cAUKvV1NlsuFwuqqtr8PPz5fKV6xQWlzB35tRG2yqKgkatpm17evro7k1VpNFocDgcTd6baZPGc/h4MigQGNB4iI26ujo+3LydlUsW4O/nS2xMFHez3dMSZeXkEhcTBTR9f+ppNGqUNgz8+jRSqVQtDlzrfi+cqNUq4mOjmTn1WdatWtokAZTzL3qKvLw8fvWrXzW65jdu3MjJkydb3W7Lli1NXqurq+PQoUMApKenk5KS0uYY3nnnHbZs2cJHH31EeXn5IxwBnv1duXKl0Wt37tzhxo0bj1zWg3bs2OGZgu4Pf/gDGzduZPPmzY2Wb9y4kY0bN1JWVga4xwHctm0b6enpgHuYmbq6OgCys7M5e/bsY8fV20lNYCe4mpqGzWYnKDCAwiL3BXv+0hVuZtwmMiIcb29Dq9v/8f2NvLJ+NVqtls9PneXK9VSMVdVcSrnG0gWzWTR3Fhs2bwcUZk6dRG5eAR9/sovBgwbw3obNjB01ArVaxfmLKag1asaMHIa6F9UCtubB98ag1+Pn68v0yROxWK18uHk7X3v5eQA+2LSNqupq9uw/jEaj4eV1q7h24yYff7ILh8PBc6uWNnl/lsyfxYEjn6NSq7Hb7axZtughET19FEUhNjqKI5+fYv+Rzykrr2h2vZFDE9mwZQclpWU4HE6WLJgt51/0WMHBwdy5c4eBAwdisViwWq3tKker1TJnzpx2bZuYmMjUqVO5e/cuV69eZfr06e0qp6Fnnnnm4Ss9xN27d4mMjPTMhhIZGdlkGBeVStVkSrqbN2+ybNkyjhw5QlRUFDqdzjMHcVxcHGfOnGH8+PFtrlARTclg0V3g+MmzhAQHMnRIQpvWP3PhMhPHjurkqASAyWxm++7PePG5lTidTi5cvsL4MSO7O6wea9P23URH9mHKxLbPflBPzn/rZLDojtPRj4Pz8vLIzMzEbDazYMECrl27RllZGRqNhsmTJ2Oz2di3bx92ux0fHx8WLFgAwKZNm/D396eyspLRo0eTkJCAxWLhwIEDLFu2jPT0dMxmMyNGjKCuro7du3fjcrno378/o0aNahLD7du3mTp1Kjdv3qSqqopx48Zhs9nYuXMnLpeLuLg4JkyYgMViYceOHfj4+FBZWcn8+fMJDw8nPT0di8VCeHg4Fy5cYMmSJY1iOHToECqVisrKSry9vT3HcfXqVW7cuEFQUBBWq7VJgnfs2DGGDBlCREQENpuNQ4cOsXDhwkbrNDfTycGDB5k7dy779+/HYDAwatQo/Pz8PMuPHDnC8OHDPfMMi6YeNli0ZHtdYPrkCW1OAAFJALuQt8HAi8+tBNx3opKAPJ51K5e2KwEEOf+iZ/P29sZkMgHumq/4+HjPsuvXrzNgwABWr16Nj48PWVlZAJjNZmbPns26deu4ePFiq+WnpaUxePBg1qxZQ2ZmZrPrpKamsnnzZpKTk0lMdHcG9PLyYs2aNaxdu9azXwCLxcLSpUuZNWsWaWlpntfNZjMnTpxocQDn+Ph4Vq1aRVVVlefxbkpKCuvWrWPixInU1NQ02cZoNBIQEAC4O3EVFRWxfft2jh496lmnrq6OHTt2sGfPHsxmc6Nzarfbqaur49q1a422CQwMxGg0tnreROvkcbAQQgjRASIjI8nOzna3xdbc/3mtrKxk8ODBAISGhnoSF4PB4Hm8qXpI+9WKigpKSkq4c+cONpsNs9mMwdC4adGQIUOYOnUqJSUlHD16lCVLlmA0Gjlz5gxqtRqLxeJZNzg4GAC9Xt+oLWNKSgrx8fF43RuB4kFBQUGA+7G13W5HpVJ55iH29/dvdNz1XC6X55GtXq/n1VdfBeDzzz/n9u3b9OvXjzVr1gDuBPrMmTPMnDmTYcOGcezYMRwOB4MHDyYjI4PAwEBKSkoICwtDURRcLleT/Ym2k5pAIYQQogMMHDiQQ4cO0bdv30avBwcHU1paCkBJSYknATObzVitVpxOp6dWrSWBgYEMHTqUJUuW8MILLzRJABvS6/WehO/cuXOMHDmS2bNnt6nt3IQJE3A6neTm5ja7/MEyNBqNp/1jfa3dgwICApqtsfPy8mpSXsPX/P39WbhwIVqtltDQULy8vPDy8vLso7KyEn9/aQbxOKQmUAghhOgAoaGh2O12+vfv70n6wF1Dt3v3bm7evImfnx8xMTGAOzk8dOgQVVVVjB07ttWy68u4du0aPj4+TdrUgftxcFFREVarlZkzZwLuDhTJycmEhITg4+Pz0GNQFIWZM2eybds2nnvuuTYd99ChQ9m8eTNBQUHN1iDGx8dz9+5dwsPDKS0t5ejRoyiKgo+PDxMnTgRg69atnpq9hseWlpZGQkICer0eq9VKdnY2Q4YMAfDUCIr2k44hQgjRA0jHEPGkM5vNHDx4sEkHD5fLxc6dO1m2bNlDH3u3VW5uLrm5uZ4kUjTvYR1DpCZQCCGEEO2WnJxMaWkpFouFadOaDrqvKAorVqzo0H3GxMR4alRF+0kSKIQQQoh2mzJlSneHINpJnvsKIYQQQvRCkgQKIYQQQvRC8jj4AXn2Ukyu5qf70aCmr1cESq+dibftNpw9wsazx5pdptN48e+rv8KgiOiuDaoHSM50cau0+WVaDSwbruCj7dqYmshPA2NR88vUXtBvLGi6O0ghWvb+mYePLffKRPmeF08/qQl8gNVla3GZHQdOmv/ySD59nvOXmp/oO+PWnYeOAdVWZRWVlJTenxi8pLSczTv2PFIZD25TWlbOXzd+0iHx1cspK2lxmdVuo7iq+flkr6Xe5O13/9rotbMXLvPehqYTrQO8v3ErNbUmz9/1x1JVXcMHm7a1GMOpcxe5fOV6a4fw0G0647wZLS0vq7ODua7l5RWVRn7wT29QU1tLdXUN72/cyv+88x7//l+/4/2NW7mbncMvf/sOd7JyPNs4nU7e+I/fUFTcQubZHGtty8scNrA3H+T2PZ/xx/c38vEnu9iwZcdjfybyC4vYvuezxypDCCF6M0kCu8CFL67i6KAk8E5WNiVlZR1SVr3QkGC+tH51h5b5OLJz87mZeRsAu8PBsZNnoIXk+0FdeSxP2nk7c+EyI4YO4fylFPz8fHll/Rpmz5jCiKFDeGX9GvrGxaLXadmz/7Bnm1PnLlJba+6yGOfOnMLzq5eh1+kaJaNC9HQul4u33nrLM3DyqVOn2LRpE7/5zW/YtGkT58+fB/BM61YvJyeHN998s9kyjx49Snm5+6Y/JSWFjRs3sm3bNmw2d2XFpUuX2L59O0ajEZfLxb59+zzbZmdnc/bs2U45VvH0kMfBHSy/sIid+w4w4Jm+ZOXmsWT+bG7ducv+Q8eYNnkip89dxGa3YzKbWTJvNlt27CXA3w+DtwG9TkdxSSk+3gYsViurli5k/+HjnvUXzJrOhctXMOj1eBv09I2LBSAvv5A9+w+Tl1/Iy8+v4tqNm9zNzqW8spJXnl/D5h17iOoTQXlFJf37xRN/r1t9euZtUtMzmTZpAnv2H+bldav49dvvMixxMFk5uSyZP4fT5y+iVqtJvZnJuNHDmTl1Uqefw9nTJ7P/8HEG9X+G5NPnmTBmFHeysqmz2di6Yy8+Pt6YTGaeW7kEgGPJp6mqqiY6KpJRw5PYue8AyxfNA9zzUe769CAGgwGHw8GyhXM9+7l6PY2s7FxMZjMvrF3Brk8PUldXh7XOxotrVzQ5F/WOnzyDTqslcfAgdu47wOzpkxu956++sJY9nx3q0vPmcrlIuXqD73zjFX7/pw9a3J/B20BoUBDXUm+SMLA/Zy98wYRumKvaZDbj7+fH56fOkpNXgNPpZObUZzl+8iy1tSbmzZpGVk5ek8/Dnv2HsdlsGAwGhicN5m52Ljv27KewuISvvbIejVrd5cciBLiTudDQUDIzM0lKSmLSJPdncNOmTaxbt86znsFgoKjofnOKjIwMwsPDm5RXV1dHZWWlZ3aR9PR01q9fz40bN7hy5QpjxoyhrKyM6dOnk5GRga+vLwkJ9+eoj4uL48yZM4wfP75NM4WI3klqAjtBn/Aw5s6cSnhoCA67g/DQUObPmYHNbic1PRMfb28Mej2FxSXYHHamT5nI/FnusZWGJAxg0bxZFBaXUFZR2Wj90vIKEgb0Z9zoEZ4EECAqMoIl82czclgiV6+nMWp4Es+tXELCgP7cvpuNzW5n2qQJrF62kMsp1wDIys7j0PFkli+ah7rBD6dOq2XOjClMGj+W1PQMvA3u5HR40mAmTxzXJefPz8+XwQP7c/biF1y5nsrkie6R9C+lXGNg/2dYvmgeMVGRXE9LB2D65Im8sHYFKdduNCnr0pXrWOtseBsMmM0WLNb77T2HJiawYsl8nC4X5RWVLJwzgzXLF2Mymairq2tyLsCdAJrMFiaOG91oPw3f86Kiki4/bxm37xIZEY6vjw/+fn5k5+a1uO6COTM4+vkpjiefYfqUCWi9uu5e8PNT59i4dScWi5WAAD9cLhjYry8vr1tFn/AwXliznEXzZvLFvcfuDT8PFZVGjMYqVi5ZwILZ0wGIj41hxZL5RPYJp6io5SYIQnS29PR0ZsyYQWZmZqvrOZ1O/Pz8qK6uBqC6uhpvb+8m6+Xm5hId7W43bbVaPevEx8dTWFjoWU+n02GxWLh9+zb9+/dvVEZoaChlHfzkSDxdpCawE2nUahxOB/U3YWqVisAAf2ZOfdazzpETp/BuZg5IlaJqdv3mftzr7/KcTidarZZbd7IpLC7mbnYuIcGB9+PRaHA43I+l4+Oi8TEYSE3PJDqyT9PYNWocDidFJaW89NzKLr+TnDVtEr/49dusWroQdf0I8w0mIW+ofqqh5kaiV6tVxMdGM6WZRKzheVOr1VxMuYbVaqXSWOU5T3D/XABMmzSBSylXMVZVNxtL/Xve1eftzPlLOJwOdu47gKIonDl/mbiY5jve6PU6Ro8cxvlLKXzvW19hb+HhZtfrDNMmjadvXCznLn7BmfOXAPD2dl//5RVGrqXexGyx4HA6Gm2nUu69tw+cz/o/vTSaJtsI0ZXKy8vp06cPNpsNu92ORtP8z6vL5WLgwIFkZGQQGxtLWFgYOTlNm0YYjUYCA93f3zqdjpqaGgDy8u7/BiiKQk1NDZWVlURGRnLgwAEiIiIYMWIE4J5v2Gg0Ehoa2tGHK54SUhPYBfrGxbJp227UajUhwUFs2bGXjVt3UmlsfRqowAD/JuvHRkfx+cmz3L6b7VmvuKSMPZ8dIvNOFsOHDuHCF1dQq9UEBbY+jdSCOTM4ceocZkvLvRH0Oh2btu1m6859XL2R9mgH/hg0Gg1//71vkTh4oOe10SOGkn7rDjv3HSA3v4DEwYNQqVQknznPxq07mfrs+CbljByaSObtu2zf8xlbd+7D5brftjAt4xbb93xGSHAQep2Oq9dT0Xp54efn22JciqKwculCtu1uvUNCV543i9VKSWk5X37xOZYvmsfXvvQ8WTl52JqZyL3e5Aljee2rL3d5cn/waDIff7KLlGupJA0e1GjZ1dQ06mw2ggIDUJSmX01BgQH4+nizbfen7N3fdYmrEA9TUFBAWVkZmzZtory8nDt37rS6flxcHNnZ2aSnpzNo0KAW12v4+RwxYgS7d++mqKgIPz8/APr378/ly5ex2+34+vrSv3//Ro+a62+QhWiJzB38ABki5j6Xy8VHW3YQHBSI3eGgX9+4Jj/cLdl47hgbzhxpdpneS8t/Pvd1+oZEdGS4T4zHOW+nbrvIKG5+mU4Dy0coGJrOz961Cm5CZWHzy9Re0H+c+7+iQ8ncwR2no4eIOXbsGAkJCURGRmI0Gjlx4gRLlrjbLD/YJnDHjh2sWLGC3bt3Y7VaWbNmTZN1AG7dukV5eTnjxjV+inHmzBni4+OJjIwE3DWQ6enpBAcHo9fruXnzJnPnuts+Hz16lKSkpGbbHIreQeYOfkTRGqk2r6coCi8+t7Jd264fP4P142d0bEA9xOOct0n9FCb16+CAOlpkgvsfIQQAhYWFzJgxA4CAgACqq6txOp3NNlGp169fv0a1dg+KiYnh6tWrniTwzJkz5ObmEhcX50kAwd1r+Nlnn8XlcnHs2DF8fHw8y0pKSggLC3vMoxNPM6kJFEKIHkBqAnufo0ePMmLECE8P4UeRm5tLbm4uEydO7ITIRE8hNYFCCCFEDzRz5sx2bxsTE0PMveHAhGiJVPkJIYQQQvRCkgQKIYQQQvRCkgQKIYQQQvRC0iZQCCFE75J6/OHrDJne+XEI0c2kJlAIIYQQoheSJFAIIYQQoheSx8FCCCHEY8jLy2PPnj0EBwdjs9lYsGBBu8b2e5gtW7awdu3aVtfZsWMHy5Yt486dO5w7dw6AmpoaxowZw+jRozl48CBWq5UlS5ZQUVFBamoqkyZNAuDkyZP069ev0WDU4ukmNYFCCCHEY0pMTGTt2rVMmjSJq1evdksMd+/eJTIyEpVKRf/+/Vm/fj3r168nNjaW/v37Y7PZ8PLyIiYmhpKSEi5fvsyoUaM8248aNYoLFy50S+yie0hNoBBCCNFBrFYr3t7eAKSnp5OdnU1xcTHLli2jqqqK06dPY7FYmDp1KnFxcaSnp3Pz5k2cTicmk4k1a9bg5eVFSUkJR46451+fM2cOISEhOJ1O9u/fT3l5OUOHDmXYsGGN9n337l2GDBnS6DW73U5NTQ0BAQHU1tai1WrR6XRUVFSgKAoGg8Gzrre3NyaTqZPPkHiSSBIohBBCPKbU1FQKCgqorq7m+eef97xuMpl44YUXAPD19WX16tWUl5dz8eJF4uLiPK/PnDmT06dPk5+fT3x8PMnJySxcuBB///vTAZrNZpYvX45Wq2Xr1q1NkkCj0UhAQECj19LT0xk4cCAABoMBq9VKdXU1JSUlDBo0iH379jF8+HDP7CJardZTYyiefpIECiGEEI9pyJAhTJ06lZKSEo4ePcqSJUsAiI2N9ayTnZ3N9evXcblcqFT3W2MFBQUBoNfrsdlsgDvha5gAgrumTq/XA6AoSpMYXC5Xk9dTU1M9sahUKvz9/amqqkKj0ZCbm8vcuXM5evSoJwlUFAWXy/VY50L0HJIECiGE6F06cQxAvV6PxWLx/N0w2UtOTub555+ntLSUS5cueV5vLqHT6/VUV1fj5+fX6noNBQQEYDQaCQ8PB6C6uhovLy90Op1nnTFjxpCSkkJoaChpaWloNJpG5VqtVrRa7SMcsejJJAkUQgghHlNqaipFRUVYrVZmzpzZZOvbSgAAIABJREFU7DqRkZEcOHAAX1/fRslhcyZPnszevXtRqVTMmDHDk9i1Jj4+nrt373rWvXbtGklJSU3Wy8/PZ8SIETgcDg4dOuTpDWw2mz01jaJ3ULIKjY3qfSNDfPHSSKdhIYR4kmQXVbW6PC7Cv9Xl4unncrnYuXMny5Yte2iS2ZxTp04RHx9PdHR0J0QnukNr3xtvZGVKTaAQQgjxNFAUhRUrVrR7+/rxAkXvIVV+QgghhBC9kCSBQgghhBC9kCSBQgghhBC9kCSBQgghhBC9kCSBQgghhBC9kCSBQgghhBC9UJMhYgrKarojDiGEEI/hYeMICiHEg6QmUAghhBCiF5IkUAghhBCiF5IkUAghhBCiF5IkUAghhBCiF2rSMSTYX4+3zqs7YhFCPCGsNgcllaYmr4cFeqPzUndDREIIIR5Vbkl1q8ubJIEqRUGlUjotICHEk09p4StAUZDvByGEeErI42AhhBBCiF5IkkAhhBBCiF5IkkAhhBBCiF5IkkAhhBBCiF5IkkAhhBBCiF5IkkAhhBBCiF5IkkAhhBBCiF5IkkAhhBBCiF6oyWDRLbmeb2Xuf2W3us7ry8P4+tTAxw7qabDzi2p+sr2EcX31vPflqO4Op1mnbplZ8/tcAM7+U19ig2WmmK7gcMKqt3PJKqvjrRf6MGWgd3eHJIQQoheSmsDHcOB6LVE/yuCjs8Ymy9IK6yivdXD+rqUbIhNPgnm/zmb0z+80eb3O4eKLHAvF1Q4yiuu6ITIhhBDiEWoCEyN13PnFAAAqah2eH7ffru/D0hG+7sJ62XRS2y+3PCffd2cHkxSlY0iktgsjaj+lpXnCRLvcKqnjWp6VPgFNP2IGL4V934slp9zG7CE+3RCdEEII8QhJoKKATuNOFLSa+wmDl/r+6/WifpRBqK+aCz99htd3l7L1YhULh/rym+cjAPj4XBXbLleTUVSH0ewgMkDDqtF+fHd2MF7q+2Wt/n0up2+Z2fWdWHZ8Uc2uL6qx2FyMjNXz+vJQhkTqPOvmVdr5932lnMw0U17rIMRXzYRnDHxvTjCD+7gTsbulNv54opKTmSZyK+wYtApDo3T8/YIQRsXpGx1DpcnBL/eXs/96DSXVDkJ91YyJ1/Mfa8Lx1qr4yfYSdqW4k8AfbSnmR1uK6R+m5cSP4wF4+2g5vzpQTkyQhnM/ecZTrt3p4ndHKthysZqcchuB3ipmDfbhHxaGEOF//+2of1Q7N9GHb04P4l/3lJJaYCXMT826cQH8YG4wDXPujeeq+HNyJXdKbWhUEB/ixYpRfnx7RlCb3t/cChvf/KCA6/lWYoK8+MniEBYOdSf3P9tZwh9PVKLTKFx7vR8+OncF8taL1Xx3YyEAh38Y1+j9aMjmcPHG7lI+uVSNzeFiXqIPa8b48+K7eU3OD8C+qzW8fbSC1AIrXmqFCf0M/MPCkEbl/+pAGb86UM7Ploai1Sj88UQlBZV2+oVp+du5wSwe7tuozAqTg3/fV8bBG7WU1zqIDtLw4oQAvjU9CHWD+vCOuHZP3TLz/Y/d56XQaCfqRxkA/P6lPiwf6QfgaVrx63URrBvn79l/aY2DNz8t41DqvTgDNawe0/Sz8SjHb3O4ePOzMvZeqaHAaMdPr2JIpI6vTw1kbqIkob3B4J/eosribHH5/CSfJ7bZSle7XVLH83/Iw6BVse3bMYT4qrs7JCE6Tac9Di6tcfDSn/J572Ql1RYnAYb7u9p3tYbkDBMOp4voQC/ulNr41YFy3vy0rNmyvvyXfP6cXEmVxUmN1UlypolX/pyP1e7yrPP19wvYdqkac52TAeFaqsxOdn5R3ShRqrI4ee+kO1GKCdJQZ3dxPN3E+j/mUVRl96xXa3Wy7K1c3jtZSX6l+/UCo53L2Rb8DWoqTA4u51hw3dt9VKCGxCgdAyMeXuv3nY+KePOzMm6XuB8DllQ72HS+ioX/nUNZjaPJ+iczzbz8bh5X8yw4nJBbYedXB8r44PT9R9CHU2v54eYirudbiQ7S4KdXcTXPSkpO2x9Ff/UvBVzLs1Jnd3G7pI5v/LWAy9nu7ddPCADAandxOLXWs82+qzUA92o8m08AAX65v4w/JVdSaXJgrnOy/XI1395Q0Oy6H5+r4mvvF3Ap28KgPjqCfdUcvFHLit/lklVma7L+W0cr+Mn2EvIr7VjtLlILrHz7w0JSC6yedcw2F8vfyuXDM0ZsDhej4vQUVNr5t72l/PPOkiZlPu61ezLT5Lk2vdQKiVE6EqN0BBha/zGpsTpZ/lYOG84aPdfj3TJ3+a/8Od9zvT3q8b/5aRlvH60gr8LOwHAtLhckZ5g817YQvU2FyUH8jzP5zkeFTZblVdrJrbCTUVRHaTPfyV2lpeYkQnSkNtcEtsepTBPfnB7EpP4GBobfT5D+cVEI358bzOh7tW/f/7iIzReq2He1hp8uCW1STkWtg43fiGb6IG/eOV7B67tLya2wk1ZgZUSsHpfL3XEF4LWZQXx3djA2h4uLWRYGNUjMhsfoePvFPsxJ9MFXpyKrzMakX9ylyuwkOcPM6jHuWpqPz1eRea+t1l++HMXcRB8Kq+zkV9pRKRDhr+HQ38Z5anj+dm4wL9xLlFpzNc/Kri/ctYd/Nz+E784OJrO4jhW/y6HQaOd/jpTzL8vCGm1jqnMyI8Gbd1+JpM7uYv5vcsgpt3E4tZZXJrn3WX/sAQYV+74bi49ORXa5rdmkoSXzknz45dpw7pTYWPzbHGqsTv58spL/ievD4D5aRsXpuZxtYd/VGpaN9MNsc3HspjshXHPvvDXHYnPx/il3wjpzsDd//FIklSYn697Jo8rcuD2cwwn/b18p4D6nP5ofgtMFz7+TR3KmiT8lV/LG8sbnp6zGwQ/nBfO9OcFcz7Oy+Lc52J0ujt00eRLTjWeNZBbXEeSt5vO/jyfYR+2paf3r6Up+ND+YIO/GCdrjXLt/Nz8ElQK/OlBOiK+aQ38b16b34MMzRu6U2lAp8PE3opk8wJtdKdV8+8NCjt00cfBGLfOSGtfcteX4r927PiYPMPDR16NRFLiYZekxTRXE47vyL/2o/zqY/+ts0ovqeGFCAP+20v156mUtediTUoPN0fwX5NSB3nz09WgMWoWEPt3zGWmtOYkQHalTr7AvPRvAz5Y2Terqf5zMNhc1Fif9w929UguMzddMjIrTM32Quwfl0hF+vL7bnSgUVbnv0hQFxsTrOXPbzJuflXExy+L5AX/QilF+OF3uO0GDVkWAQU2lyUFhg5rAU5lmAEbH6T0/upEBGiIf8wN5KtMEgFrlTlbVKkjoo2XhMF8+PlfFsZumZrf75vQgvLUqvLXuH/KPz9kaxTsm3n2cRrOTKW9m8eqkAL48ORB/Q9srer/0bAAalcLACC1zE33YfrmaK7n3a5PWj/fncraFw2nuWq6jabVYbC7UKvc5bUl2uY3qe4+hvjGt/jhUrJ/gz7/uKW20bnqR1XPnfT3fyo8/KQagyuJ+La2waScKjUrh2zOC0KgURsTqiQ32IqvM1qhm9+S991PnpfDmZ+4au/oE2eGEjKI6xj/T+FrpqGv3UZy+de+6i9d7egwvH+nHLz4tI6vMxrGbTZPAthz/2Hg9n6ebOJ5uYt6vs/nGtEBWjvbrdW14e7OGTXjqm/+qVU2b8tQ3wTn2d/GcvmXmvw+Xo1HhabJxMtPMX09XciXXSqHRToivmqkDvZs0Z+no5grVFid/Sq5k//Vassps2B0u+oV58c3pQax84PvH4YQ/fF7B5gtV3C214atXkRCh5f8uCWVErJ73Tlbyb3vd3wPbLlWz7ZL7xvyLn/Uj3M99g/jCH/OApqMm7LlSw/8eq+BGgRWtWmFMXz0/nBfiuSmsF/WjDPwNKvZ/P45/2VVCcqYZvZfCzARvXl8e1uSms6HWmpNMGeDN6J/fweZw8b05wfx4QYhnu0n/fpe7ZTYWD/flj1+K9MShUuD8T5/hjd2lHLxRi49O4ZVJgfxgTjANm4I7nPD7YxV8fL6KnHIbQd4q5iX58k+LQghsJV7Rs3VqEjgsRt/ktVqrk9d3l7LnSg2VpsZV7S1VXMUE3f8Q6r3uX7XOBlVd77wcyfc3FXI0zV1jcvBGLfOTfPj9S5GebQ6l1vKrA+Vcu/dotdG+G+y8vNYdV8MvtY5Q3ybHT69u9OUb5uveT1lt848eYoLux2Hwcid2zgbxTh5g4L+ei+Dne0opqrLz5mdl/P5YBW+/1IdZg9vW5ivI5/6HPMzP/f/VDdoQLR/px892llBrdXL8psnzKHjqQO9Wz1PDxynhfvf30aeZbcpr7+9v//XaJsuttqZXSLCPO6msV/9eNzw/Ffeus0KjvdFjdE+59qbldtS1+yiqzO7jD/drfG5CfdVkldmavT7acvw/mBtClcXJ+6eMXM+38r2Pi/jt4Qo2fD2KOBkWSDTjpztKSM5w35QmRd1v6nEl18LulBp8dSqeCfUis9jGpvNV3CysY9/3YpuU89bRCspqHGg1CnUNmivs/0Gs54bqzU/LePtYBRqVu+atwGgnOcPE4mH3E0WtRuHdE5VUmBzEBnlhtbu4kmvlbzYU4qdXMadBB6vvfVzoSey81AplNQ5O1Zg9zTEOp96/2Q4wqIi+9/vi9ZA856+njfzDvRtTtYp7N8MmkjPMfPyNaJ59oNKhyuxkyf/keI6/1upk68Vq6uwu/vflyBb382BzkvpmRgEGNSG+auYl+bD3Sg17r9R4ksAb+Vbu3msus2aMf6PynC5Y+JtsSmscqFUKJdVO/nN/Gd5ahW9Nv99m/AebCtl6sRqtRmFUnJ5bJXV8eMbI5WwLn34/Vm4an1KdmgQ2d838fE8pH54xovdS+OniUAZGaDl208R7JytbLOfBu9XmhPmp2fC1aK7mWXnrSDm7U2rYf72WPydX8trMIPIr7Xz1LwXYHC6mDPTmxQn++OvVfHtDgefHt159x4eGtSkdIfReA+MqswOr3eU5ruJq935aujvUqh9+/M+P92fZSF82X6jmvw+VU1Rl59sfFnL9jX5t+vAWV9npG+L+Miy8V6vlr7+fXPjpVSwd4cfmC1V8dr2GI2nuL9IHv3AeFNIguWyYxDTXSD3Y5/7+dn0nlrF9myZiD9K24dqoP6/TBnnz8TeiH7o+dNy1+yhC7yXJ9ddDvZJq93lr7vpoy/GrVfDG8jBemxHEn5Ir+eOJSm6V1PFP20r48GvSGUA0lZxhYl6SD6tG+REfcv9G4cWJAcQGe7FwqC9qFWw6X8UPNhXxRY6FAqO9ydOSjmquoNMovPVCHwaEa4kJ0mBzuJjxyyzulNr49GqNJwlMLbB6EsDXZgbx4wUhWGwuLmVb6BvqPo4PvxblqfGcPcSHt17o89DzYXO4+MW9dr+zh/jwzst9sDngpXfzuJhl4We7Sjjwg6bNPrRqhTP/1JfoQC++8dcCPr1Ww+G05p/41HtYc5L14/3Ze6WGzOI6MorqGBih9dyUB3qrmTW46bijIb4ajv1dPF5qhef/4I75j59XepLA1AIrWy+6z9uGr0UzeYCBCpODyb/I4nq+lUM3alkw1LdJuaLn6/JxAq/luT/wswb78NrMIOYm+lDXTE3Mo3C53GP21dldDIvW8c7LkTxz7wNffq/G5mZhnacNyOvLQlk+0o+EPlpqrU2TkVFx7i+nyzkWPr1Wg9MFxdUO3j3R+Me+vtYls9jd/q7C1Hoj4hkJ7i8qpwvePlqBw+mO67Nr7g/wlAFNH1+3RUqOhbtlNry1Kl6dFMA/33uMWWN1tvnc/jm5ErPNxfV8KwdvuGvhRsQ2TsKeH+9O+A6n1lJpcuCjU7FgaOs1jXEhXp6k+r1kI3anC1Odkx3NDK8zMELrqVV862h5oxq6lBwLee3syDBloPu8nso0c/aO2fN6jdXJiYzWv5AbepRrt77G1mhyUFztwOFsPvFtaGaC+8v7UpaF5AwTLpd70PHscvcd/uQB7RtU+vN0E5UmB30CNPxkcShr7yXuD7teRe81uI+W916NYtlIv0bfA/56FUuG++J0uSitcTSqSW6uSURzzRWAJs0VAE9zhS0XqhgRq2tUww0wI8GbmCANVRYnFSZ3B0CgcVOee00qVIq7XbGXWsFPr/I0J2qvtMI6T+3/16cG4q1VEWBQ8cok9+QI1/KszXbsWzPGn7hgL9QqWHivZrPW6mz0lOVRzUjw8STbe+8lf59ec39nrxjp22gUgXqrR/sR6K3GR6fytF8vMNo9T2oanrddKdX8+JNifvFpmaeiormmOOLp0OWtThOjdFzKtnAotZav/KWAiloHV/OsD9+wFQ6Xi1ffy0enUegb6oXdAXdKbSgKzLyXeA3qo8VLrWBzuPjWh4UkRuo4kWFCp1Fhqmv8gXxpYgB/TjZSYXLw1b8UoFa520t4a1V8rcGMKCNj3e0Q//d4BX85VYlWo5D28/4txvlMqBdfnRLIn5Ir+eX+Mn5zqNyTmIb6qvk/s4PbdfyfXa/lvw+VE+HvbrdY36nl2X6GJl+kLdmVUsOeK5mex4hqFXxlcuPOLhP7GXgm1N0jFmDRMN+Hlm/wUnhpYgDvHK/g02s1JPzkFnZn48f69TQqhX9ZFsprGwo5cL2WEa/fJipAQ3G1g/JaB5u+GU104KNfsuvHB/DxuSqu5llZ/XYufUO1OJwu8ivtjIzVM7WNM3Y8yrVb/8NptrkY8/PbqBSFny4JbXVGnbVj/fngTBUpORaeeyfPc70CTHjGwKJh7bsT/9WBci5lm4kJ8sJfr+JGwf1kVojmJEXraG7o0N8fq+D9U0ZyKpp2PGuuI1pHNVe4VVLHG7tL+Tzd1KT5RnNNefz0qjZ/97WF0Xw/wQvza9p0BtxPOh4cTqZhU56G33mP0mnvQSoF1o3z5zeHytl3tYYVo/w8owGsbuHJTMPmPg2fztRYnIT6qqm4d96cLtrcZEY8Hbq8JvAfF4WweLgvOo3C5+kmDFqFAz+IJaodP+711IrCylHuO53bJTZKauyMidfzzsuRTL5XuxYdqOG36yN4JtSLu6U2LmVb+M6sIN5Y3rTxf4S/hl3/J4ZFw3w9w4NE+Gv48gNJ0Zurw5nYz4CPToVOozCx38Nr8t5YHsa/rggjoY8WRXE/4ls+0o89341td8eTsfF6RsTqMdU5uZ5vJdBbxcvPBrTa7qShfmFaXpsZRJifBo1KYUC4lj+/GtWkJhDcCVW91noFN/QPC0N4aWIAfnoVGrXC6jF+vDqp+WRo+Ug/Nt3rCa4AGcV1qBR355MB4e3rqaf3Utj2Wgx/MzOIuBAvcsrdHScGRWhZN65txwCPdu1OHmDgh/OCiQ32Qq1SiA7S0C+09fZ3XmqFLd+K5utTAz1lxgRpeG1GEBu+HtVoPMNHMT/Jh7hgL4qq7GQW19EvTMs/LAzh+3Pad9Mhnn7qZjLAXV9U8/M9pWSX2/jSswH86dVIfrk2vNVyHqW5wtl/6svfzAxCq1E8zRXqffm9Ag7eqKVPgIZfrg3ng69GNft963Mv8au2ODE304a4vUJ973/G65tngLsZTb32Ntdoj+fH+6Mo7hrI+qStb6gXY+Kbb0LTsOa1YXOT+s6D9UmiTqOQ8x8Dyf/Pxv807IAini7tyjqCfdTk/+fAFpe3tizIW+3pudTQhZ8+0+S1T74d06Z9Kwr87sWHt+tYPtLPM1hvQ80N79I/TMu7r7SeRA2M0LLttaYxAvxwXgg/nNf0g6Mo8JUpgXxlSutzLE/qb2j2PP7byjDPsA71Zg/xadfMEw/u46eLmybED3Lcu4WP8Ne0+fGkTqPwH2vC+Y81938w/mWX+wve0Mzd+pSB3g+dT7el83v0R/HNru+jU/GTxaH85CHH2FHXbmsxtrYfX52K15eH8foDQ+H8f/buOzyO6mr8+He276p3y5ZtueAGLoCxwYDpvYcWCJCXECAk+aUSAkleCJBGyhsSEggJofdgSqjGFNPdu+UmW5Jl9bJabS8z8/tjXLAtWW1mZ3d1P8+jByyt7lzZq52z5557bn/H7unn//YpBXz7lP41DReE3uzJeud7rPz2K9rv8qFOTeqvj7eGmFHh3Fuu0BVSeGapb2+5QjSh7l3duPHEfL42N4+4rHLvAd0FAGbt3qWrqPDHhR3cfk4R4bjWzeDIMa69mcU95Ro7O+NEEyqKqmXYeqs/n1TmYGS+jcauBP/6pIvZlS7isrZZZM/Xv5wVHKoDy0mKsqwEY8reOu0xhXbmTXDzWXWYl1Z2A4euz16w0s9Xj8nF47Dw7FLt8RUFNgp3B38n7H4tjyZUHlrs5bunaq8XsgIfbA5y+tSsHjPDQvoTTYiEPqmqFrxuaory4GIvoC2Z93ez2MKNQWZUOPdmOv0Rhfc2HbzzUBCE1LXnd7UrJHPZQ7vIcVn4ZFt4v7KFweirXMFpkxhf4mBHW4z73+tkWW2EqsZoj83Ojxvv5phKN8trwzy02Ms/P/bu7QTx9vdH7w0CZ4128sHmICtqI0z+xXYSssrCH47p9fXIIsHdF5Zw01NNvL8pyORfbEdRtddGq4W9ddh66U85yVVz8visOrw3M3npUYdu1XXUvTVYpH1L8V8+TWryCAdfn5fHE5/7+M1b7Tz6WRfZTgtNvgTBqMLO30/EJqLAjJT05WAh/azbFWHsT6s57U878UcUKovs3Dj/0JnML/vnx15m/6qGo+6t4ez7dzL3N7XsaIvhskt8V2SoBCEtXDQrh++eWkBJjpUVdRF2eRM88vXyvWfHD1Z/yhX+cc0Ijh7rwh9R+GRriLnj3Lz6nYNXYSRJ2/37jRPy977pzHVZuHBm9n79/m45uYALZ+VQlG3FZpE4YpTzkL37AM6bkc2zN45i7jg3LrsFt93C8RPdvHBzhe71tf0pJzlvRvbe5dxjKt377eI+0K8vKeGUKR7sVomyXC3jev3x+7+G/+aSUn53aSkzKpz4QjJ1HXGKsqzceGJ+j+UBQmaQ6pp9+72FK85z43GJ3mHCPpuaopzzl3o8DgvzJ3m464LiAdUv/uuTLl7c3YBUW9KwMmecix+dWcT0USITmIoisQSt3oN3TpcWeHA5xAKCIJgtEFU45lc1+MIK911ayrXHHVzWtKfR9P1fLeOK2Ydu5yVkpp0t3b1+7Z66arEcLPRtarmT2t9NHPT333hi/iF3xQqCIAj9o6qQUFTueb0dX1irE7zoEKc27fkeQeiJCAIFQRAEIU1c/3gjH2wKkdhd3PfTc4r2a+wvCAMhgkBBEARBSBMuuwVJ0nYk33JyAVceI5Z5hcETQaAgCIIgpIl/XNN3O7Q9DtXyShBA7A4WBEEQBEEYlkQQKAiCIAiCMAyJIFAQBEEQBGEY0r0mcFlNmIv/vgvQzkItybFy1uHZ3HVBcb/PUZzz6xoKs6y884MxQ57PFQ838Ok2rd9ZrsvCpBEObju7aO8xOULmWrwlxN8+6GRDQ5SEAuOK7fz+slKOHNPz+ZpD8em2EFc83MD1x+fvPdbvpwtaeWaJj9e+O7rXMz0FQRAEwSyGZQK/clQO/3dFGTMqXDz2WRcLVg3sjElJxw7lDpvEQ9eM4Lazi9jSHOP7z7XoNraQmt7eEOBrjzSwy5vgB2cUcse5RYwptDO+xGHI9U44zMOVx+TyxOddbGiIsrExyjNLfHx9Xr4IAAVBEISUZNju4EllDs44PIuW7gTvbAjgsu8L6l5Z7efPizqp74xTnG3le6cVHtTtXFZUvv5oI59uC3HsBDd/u3oEBR4rZ/55Jzva4my4ezwuu8TPXm7l8c99LPpR7+c+2iwSp0/NwhtS+MdHXuzWfXNRVfi/RZ08t8xHZ1Bm7jg3v7u0dO8RPH19/YXl3fzkP63cc3EJD7zfiayo3HxSAd6QzNNLuvE4JO67tJTTpmrHCikq/Oatdl5Y3k0soXLseDe/v6yUslztn+IHz7dQ741zzhHZ/P6dDv7+tRGcMS2LZ5b6+Mt7nbR0y4zMt3HPRSWcMU3fo4oyye/e7sDjsPDadyv2/t3ecML+DavXN0S5fUErVY1RRuTZ+N5phVw1R2u3UN8ZZ+5varn9nCLeWBdgR1uceRPc/OPaEXgcPb93+uWFJXywOcgdL7ditUiU5tq4/ZwiY39QQRAEQRgkwzKBv3u7gym/2M6v3mzn5MkeLpq1r6P5rNEubj2riJduqWDSCAd3vNyKL6zs9/0bG6OcNMnDLScX8OHmEPcv6gTgqjm5hGIKi7cEUVV4Z2OQqeXOXgNAgFBM4bCfb2fOr2voCMj89iule7/23DIff3q3gzOnZXHfpaVsaIzyjceb+v110Lq3P7/Mx10XluB2WLj3jXbqOuLcc1EJnUGZ+97p2PvYJ7/w8eCHXu44p4jnbxrF5uYYP3+lbb/xlu4I8/BHXq47Lo/JI7TM1b2vt5PltLDglgpuPqmAKSOMyWhlgnBcZVtLjHkT3JTl2vBHFDqDMp1BmUhca7Aal1Wu+3cjdqvEy9+u4NKjcrj1Py1s2n14/R5//9DLDSfkc/GROby3KciClb1ntPPcFu65qISVdRGW1YT5zSUl5IgmroIgCEKKMiwTeP3x+Zw3I5u31gd49NMunl3q45pjtWzfuxsDPL2km46gTFxWUVRo9iXIc+8LbCaWOvjG7szNE1/4WFkXAeDSo3K55/V23lgXoDTXRrMv0eeRZC67xPM3jaIjKPOLV9r40YstLPlZJTaLxIdbQlgkuPuiEuxWiTX1UR77rIudnXHGFNr7/PoeN5yQz4Uzs1m6I8xjn3XxozOKmDzCweOfdbHLG9/7uA83BwG45/V2QAtYDqSo8OQNI5lavi+wPXGShzfXBbjrv23cPD9/v8PQhf1ZJO0g+T0d9b/zTDPvbdL+3n92bjHfPbWAzc0xWroTdIVkrvpnA4qqZX3XN0T3+3s/+4hsrjwml5mjXTy71EeTL3HIa1e37vu37o4ZSTIoAAAgAElEQVQoh3ikIAiCIJjLsCCwosDGvAluxhbZefTTLpbWhLnm2Dw2N8e4+/V2LpyVwwNXlfHX9zv507udHBgKybvvn6oKiqLd1AFy3RbOm5HNoqogZbk2rBat/vBQLJLEnHFuAN7dGOSF5d3s8iaoLLITS6j0VH7o2L1k3NfX98j3WAGwWvbNU/uzdNDPJknw5vdH7x3DZj34AmMOCPIevracN9cFeHCxl2893UxHUOb648V5vD1x2iRGF9hZWx+lO6xw+zlFnDEti58uaD3osV+dk8u3Ty7Y++fCLOt+Xy/a/Wfb7n/XQx3BubUlxl/f7+SaY/PY3hbjztfamH+YhxF5oie7IAiCkHoMW6va2Bjl5VV+7nldW+rcs1wbjWvRXbbTQoM3wTsbgj1+/462GH/7wMuv32rHG5I56ks7Oq+em4c/ovDiim7mT/LsrfnqTUJReW2Nn8c+62LhxiD5Hiuj8rXvOfPwLGQF7nqtjf+s6Oa/a/1MLXfuvXH39fWBOm1qFqoKD3/URZMvwYq6CMtrwn1+3wPvd1KSY+XHZxYCUNMe7+M7hrdvnVxAZ1Dm2n83sqY+QnP3/hm8KSMclOfZeHt9gI2NUeo64jy3rLvHgLw/FBV+/GILuW4LPz+vmN99pZRwTOUnLx0ceAqCIAhCKjAsRfHyKj8vr/JTlmvjxhPz+ebuJdsZFS4un53LgpXdfLQlyHXz8tjYGD3o+48Y5eS5ZT4auxKcOiWLH5xRuPdrx413U1lsp7Y9zuVH931uYiyhcsvTzbjsEoePdHLXBSV7N4dcPSePpq4ETy3x8dJKP7MrXfzmkn01g319faCuPTaPNn+CZ5d288LyboqyrdzRj80D71YFuf+9TmxWiRMO02olhd59/bg8wjGFp77wcfuCNjwOiemjnEwt10oO7FaJp785kv99tY1vP9OMRdKeGz84fXDXe+yzLlbWRfjLV8vIc1vIczu4+aR8/vaBl+eXdfPVOeJ8T0EQBCG1SHXNvv1WuIrz3HhcqV9vdv1jjXy+Pczau8bvt/NYEIShi8QStHpDB32+tMCDyyGWt4X0FIhCJA6xBMQVSCiQkHd/KFo5j80CNuu+/zqs4LKD2w52a9/XEIRUsrOlu9ev3VNXbVwm0CjrdkVZsiPMu1VBbppfIAJAQRAEgVAM/BHwR8EfUfFHIRiFcAzCcS3I04PHAVkOcDsgxwU5Tmn3f7U/C0I6Sbsg8JmlPhas9HPpUTn89GzRg00QBGG4SSjQ5odWP7T6VdoCEJeTc+1QTPvYZ99imkWCoiwozYGSHImyXHCl3V1WGE7SdjlYEATjiOVgIdU0+qDJp9LYBZ0HPzVTVo4LynOhPE9iVL5YUhaSK+OWg/tLRSWuJkigoKgKCgoyKlW1dXgDAXJdHvLcWeS43OS6s8h3Z2Gzit/OTBdV48jIyKqKioKCioKKBQkrFqySFQsWrJIF7f9EuYEgmMEfhV1eaOhSafaBfKj+TCnMH9E+trZqP0BpDozMk6go0LKGgmCmjAgC48iElSghNUJUTZBQEyi9dHT7fHsVH21a3+PXRuYXMmXEGKaNHMPU8jGMLRr8LmDBfDIKYSVKWI0RVWNE1Ngh+/z1xIIFj+TEbXHgkpy4JJElFwSjBKJQ0w61HWpaZfsGYs8S9ppdkO2EsUVQWShRnG32zIThKG2DwJiawKcECChhEuhT8dvY1UljVycfbF4DQK7bw+EjxzK7chInT56B0yYCgFSmoBJSo4SVCEElSpxDn+7RvzEVAmqYgKz1cpSQcEsOPBYn2RYPdkT2WBCGIhyH6jaoaVfpoQIhowWisLERNjaqeBwwrhgmlUrkig0mQpKkVRCoAn4lhE8JElFjfT5+qLrDIb7Yvokvtm/ikY/f5rSpR3L+zLlUFBQbfm2h/6JqHK8SwK8YfwdRdweaITlKu9yNQ7KRa/GQb8lGEkvHgtAvqgr1XtjWqtLQdeiTeIaLUGxfQFiSDYeVSowr3ndakSAYIS2CQBWVLiWAVw4gDzHrpyiDe7kJx2O8sW4pb6xbyqzR47lg5rEcM24ylp7OlBOSIqBG6JL9hJPwhqA3MTVBu9xNp+ynwJpDgQgGBaFXoRhsalbZ1grRoSfqM1ZbANoCKktrYXwxHDFSZAcFY6R0EKgCnXI3XUqg1xq/AdMhaFtTv4M19TsYXVjCD8+4hEllFTpMTOiviBqjRe4ipqbO0XkKKh1yN145QKE1Z3dmUBAEgM4grG9UqesQWb+BkBXY1qplTMcVw6wKEQwK+krZIDCghGmTfSTQt/mTpONLUH1nGz964Z+cMe0objjxLLKdbt3GFg4mo9Au++hOwrLvYCm75+iV/RRb88i1eMyekiCYpt4LGxpVWv1mzyT91bRrdZPjimBmhUSeuN0IOki5IDCBTHOi07AlPtWA/MyiqlUsq9nCN+efzSmTZ+o+vgBdSoAOuVu/jLDBZBRaZC8BJcwIW6FoNSMMK94QfL5DpT1g9kwyT00H1HSojN+dGRSnlAhDkVJBYEiN0pToMPRGr2cm8Mt84SB/WriArS1erjvuZNxiI7EuZBSaEh2m1v0NRVCNUBdvIdwWY9rIMWZPRxAMFYrByp0qO9rNnknm27E7MzihBGaNlshymD0jIR2lzL6jDrmbhkS74Zke1cDhnTYXRdnH89pa7RgjYWgialwLoNI0ANzjjc+XcvuCf7Ng5admT0UQDLNml8p/VokAMJlUtPY6L61SWVqjJu3oPCFzpEQQ2JjooFNJ/6KRK+bcQDBmI5qAtzeobGwye0bpq0sJUJ9oHfJucLPt2NnMwrUrUVSVxz57l3tff4ZoInU2tAjCULX6YcFqlbW7zJ7J8La5BV5eo1LbYfZMhHRiahCoorIr0U5QjZg5DV2cOOkkIol9J4yowIo6laW16VHDlkqaZS9tss/saQxZMBTh0UUL9/vc0pot/PSlfxOJp3d2UxDiMny2XeXtjSqBqNmzEQAicfhom8qiTSoh8RIj9INpQaCCSn2ijbCa/q8eI/NHMrrolB6/trlZCwaF/mmRvUlp+mw0VVV5+t0PCMYOfoNT3drIz195XGQEhbRV79Wyf9VtZs9E6EmjT8sKbm42eyZCqjMtCGxItBFNoT5vgyVh4azp1xOXe9/9ubFJq5cRDq1D7k7p9i8D8cmqjWxuqu/161uad3Hnq08Sl0XHXCF9JBRt1+8HW1TR7DnFyQosrVV5f7P4txJ6Z0oQ2JjoIJIBASDAlXP/h0C0721Za3fBlpYkTChN+ZRgRtSFAjS3dfLqss/7fNzGxjp+8+bzqGnS9kYY3rpC8Npa7bQPIX3s6oJX16o0d5s9EyEVJT0IbJW7UqoGMBGNsfTBp2lctREAX30Tqx5fwOqnXqG1atshv3d25THI6th+X2tJjcquriFNNyMFlDCtcmb8xUSiMR55Z2G/A7vltVt56MM3DJ6VIAzNhkZ4bZ2o/UtXkTgsrFJFaZJwkKQGgV1KEJ8STOYl+7TptffIrSjf++ctby1m5tUXMuuai6n9aHmv35fnzmPKyPMGfL3FW1W8mbHiqYs4CZrlTrOnoZsX3/+YjsDA3nK/tX45L6/6zKAZCcLgJRR4f7PKyp0ieMgEG5vgrQ1ieVjYJ2lBYESN05aC2Z7pV5xLbvm+Xb1KPIHVYUeSJJy5WUS7e27495XZNxNNDPwUCFmBD7aoyOnd+UQ3jYkOXRZDn37wMX56ww/5/lXfIhjQ3mhcfeql3Pr1/8dvf3K3Dlfo28qN21hdt31Q3/vopwvZ2iJ6bAipwx+F19eJ1YtM0xbQlvVFMkKAJAWBCRQaEmnSQVTaF9j11lj6kqOuIhDNGvQlAlFYId5Z0yZ3EVOH/pY0HAqzdtlq7vv3nzntwjP58M1FBPwBps+eyR+feIA7/nCXDrM9tA5vNy989vGQxvjjwpdIKKLbq2C+Rp8WAHanTuWOoKNwHN5YL3oKCkkKAtsSXShp0vTXarchx+KoqkosEMSZm73f16eNPByHfcqQr7O5mWF9rmZIjdClU2mA2+PmvkfvB6CjtYOi0hKa6huo2bqdO79zO4tee0eX6/QmkZD59zsLh7zTt7Grk2eXfqjTrARhcDY1w6JN4vSJTKeoWk9BsdQ/vBl+dnBYjRJQw0ZfZtCa122mcfVGJEnCkZPFpHNOYu2z/0WSJCrnz9nvsR6nh9njLyWsUxPOT6pVLpk18CXldKei0pzw6jqmxWLhladf4t1X3+Yr111OXkE+/3z1CVRV5Ybzr+Gkc07F4TDmcM23Pl9OU5c+dY0vLv+YkybNYGxRad8PFgSdragTJx0NNxsaIRxXOX6CxPC7GwmGB4EtCfMKSixY8EhO3BYHTskOwBXHzGfe+Gl0h0P4wkG2VU6iavas/Zr6HvU/l/Y43hWzbyQYs+o2v+6I9q576gjdhkwLnbJf1+PgOts6aGtp5ZJrLqO8YiTP/+sZbr7tOwBIkoTVakHavcxvx4pDsmOTrNoH2n8VVGRVRkEhosaJKDES9J0K2VbbyIcb1+r2swD8+5N3uOfi63QdUxAORQU+2qpSlzl7tIQB2N4G4ZjKqZMlrClxmKyQLIYGgV1KgDiDWyL773Mv88nCxYTDYb7zsx8wdebh/O+3f0o4GMJitXL7ff9LYUnRQd9nxUKeJYsciweHdPCPN65wBOMK94+6VFRq2pr5eOt63tmwgkD04EKYs444l2C8cFA/y6Gs2aUysUTCrl9smdJkFLyKvuvgWTlZ/PYnD+HyuOnq9PLje+/g00Uf8cpTL2F32Dnv8ospcxaSY3Hj2P1moEdffhts1WpZA0qILjlAvIeAMBAM89j77+r6swCs2lnN+l01TK8Yp/vYgnAgWYH3t6g0pf9JjcIQNPrgnSqV06dIOA1PDwmpwtB/6k558M1/G2p38YfH/0rtthqe/Puj3Hn/vaiKwh+feKDHx3skJ/nWbLIk14CvJSExvqSc8SXlfO3YU/lw81qeWfIBHUFt/uOKKynInmvIjt5YAtY1qBw9Zngk4jtlv+7NkZ0uF394/K/7fa7ysHGcdMYpFFtzybUMbhOPDQv5lmzyLdmE1CgdcjcRVasFkBWFJxa+RzhmTOO0f3z0Jn/72ncQCzSCkRKK1j9uONcnC/u0B+DtDSrnHiHhEIHgsGBY4rdbCQ1pye+WO74HwLoVqzls2iQA6mt28qsf3ck/7vvb3sfZsTLKVswoW/GgAsAD2a02zjz8aB6+7vtccuQ8XDYnJ025xtCWLpuaGRZF2AlkunTOAvamwJLNOPuIQQeAB/JITkbbSiizFmDBwuLla6luadRl7J7UdbSyZPtmw8YXBFkEgEIPfBF4u0olJnoJDguGBYFDyQLusXn9Jj58832uuOFqAJ5Y+AK/+L97iITDrPh0KR7JyVh7GR7JOeRrHchld3DDiWfz92t+DBxiCVEHsgJbh8FRTF7Z+LuNFQtjbKUUW/MMyaLlWjyMs5fR6jV+7ez1tUsMv4YwPMkKvLtJBIBCz7pCWiA4HJITw50hQWBIjQ66FnCP7ZureeDe/+M3//wjVuv+BXM2m41cSxajbMWGL5eV5bq4cKZEWa6hl2Fzc+Zv0/crxnYndUsOxtrL9m4CMooFC3de8DWuOGa+oddZt6uGnZ3D4N2BkFSKqgWArZlxVLdgkK6QViMoAsHMZkgQ2D3E/m+xaJT/OeerJOJx7rjxx/zjvr/R0tjM96/6Fv/77Z9CUOa8k87SabZ9c1jh9CkSJdl9P3awAlEyujN/SI3quiP4QG7JyShbCdYknoR43XGn89U5Jxl6jTfWLjN0fGF4UdFOLBIBoNAfnUGtZ6SS+TmKYUuqa/bt989bnOfG4xp8JkVFZXu8UefS/32KrLkUWnIMGv3Q4jK8uUHFZ1Dbw/HFcOLEzNwI0CJ76TYoE+iSHFQkISvcm/vfe4X3qlYbMnauy8OzN91uyNiHEoklaO3hXKnSAg8uUTGetj6pVtmRJoc3CaljTCGcMikz702ZbmdL72fZ31NXrX/axK+EDQsA3ZLTtAAQwG6FM6YY185ll779k1OKXzEmcpaQKLcVmbqL9genX8L0UZWGjN0dCbGpaachYwvDy7oGRAAoDMrOTnHUaabSPQgMGnazhxG2AkPGHogsJ8ypNCbgiMlwiKA9bQXUiO5tYfYoseZhS+IScG9uPftyHFZjMmRLdohdwsLQ1HXC6npxExcGb2Pj8NjAONzofvcMqcb0TSuy5mIjNToqTyzBsI0i9V2Z90IdVow5hd4lOcjTqQXMUBVl5XDtvNMNGXtZzRZDxhWGh/YALN6aea8rQvJ9sUOlMYNr14cjXYPAqBpHMSDjY8NKgYnLwD2ZM9aYbGBzBnbtD6s6HbZ8gBJrniHjDtaFM4+lNCdf93HrO9vojhi7s1rITHEZPhQBoKCjxdtU/MbkegQT6BoEGpkFTDWFWTDagNXpzhCGNqY2Q1SN6z6mR3Likhy6jzsUVouFKw3aLbypUdQFCgP30TaVkDHvwYRhKi7D+5vUjLtPDVe6ZwL1ZsFCrsWj+7h6OGKk/tlAVYWOoXXYSSkRg7KA+VYD+/UMwVmHH02Oy637uJub63UfU8hsVU3QIJbuBAP4IvBxtcgwZwJdK9ljBgSBqVLz1ZPSHPA4YPPGtbz++G+w2uxMn3smx597HR+//iirPn4Nd1Yup1xyM5NmntDvcdv82tiZwIgg0IJFlyMCjXLCYUfw+vJPWf/iW1gddmxOB9MuOZNQu5fVT76Mp6SQogljGTPvqH6PublJBIFC/zV3R1lel1qZciGz7OyE7S0JJpSJllHpTNd/PSMygdmW1L3Zg7Yk/Nqaj/nGz/6FOyuXP/3gHI4/9zoaazdx011P4skeeN1ad0QFE1ue6Cmq6n8AZY5F/0ybnuaMm8xTC16k8sRjKBhXweonXyEWDOFvbmPiGSdQNn3ygMds6OowYKZCJorJCX7xyoMcNfZk8jyzSIhlO8EAJxY3Mb5rB+TNAldqrswIfdNtOTiB/mfLSJBydV8HKs2ROOPy/4c7K5f2plpyCkoACAd8vPbovTx7/w8JBQa22yOYQTU8iqr/8yLVnxPTRo6heNI4CsZVoMgysUAQu9tFtDtAy4atrHv+DfzNbQMaszPoR1HF3Vzo26OfLKTZ5+Wtda+wZPvjZDv1fyMmDF8em8wVpVWMj28DRYZdG0G8NqUt3YJAI25QDoPPgNVD0e7V6lDAx7P3/5ArvnMfANff8U+u+t4fmXX8+Sx68a8DGjOTgkDZgN3iqR4EZjlcjMgrQFVVql5+lwmnH49ksTBm3lHMuOoCpl50Olte/2DA43YExFlfwqGtb6jljXVL9/65pq2GZ764D6e1ycRZCZliUo6fy3JX4I5+qet4PAIt282blDAkugWBRpSIOqTUrzXIc0M0HOSRe6/niu/+nvzi8v2+brXZkaSBLe2GMygIVAw4Lzgdnhcj84vY9Np7FE2qpHjSuP2+ZrEOrt9lRzADO4kLugnHovz+7RcP+nwsEePpL/5BQ+ciHDZRzC8MzpmlOznOshpJ7qELiLcRghl85FUG0+1uasSJENYUOAmiPx6593/wdTTxyj/vxGqzc+OdT/DYb2/CYrUSj0a4+gd/HtB4mVTDo3eG2Mzj4QZi7cLFNK/dTNTnp2l1FZPPO5mW9VsJtLQjxxMcdvb8AY8Zjetfcytkjgc/fANvKNDr1z+v/pTqli2cP+ub+KOpXWstpI4CR4xz8jZhj/ZR1tS4BSbOhQEmPQRzpXQQmC6bI279w38IH3B//sbP/jXo8dQMerMu65wJtKTJc+L0Sy9CnlKx3+fGn3rckMY06ug9If2tqqvmwy1r+3xcq7+Nxz75HZfOvgaLZaJ4RgmHNCvfy0xpE8T6UVeaiEJ7HZRUGj4vQT+6BYHOWJwJzS16DQeAmiNDYWqdCtETh5WDgsChyKQX5sqmNiQ9N4dYHVBR3vfjTJbl1D/TomTSuwNBN4qq8tDiN/r9eBWVl1Y8xfSKGRw59hLC8fRYcRGSx2FRObt4OwXRxoHdkDp2Qv4IsItMc7rQLQi0qCqEdC5ct7qgUN8hjRDXe/k2g+711kgQZD2XMdMjExiJ61/YqYogUOjBW+uX0eTrHPD3rd+1jpq2HVw+52YC0dQ7lUkwx0h3mFOzq7BGB3FqgapC8zYYPV3/iQmG0K/CXhpcsfsh6Ro8GENR0f1YJpsBf5WmsVh1/ndUtXYEUmpnLxq7Bn5T7ovLntq7ooXkC8eiPP3F+4P+/kA0wGOf/InzZl5MjvvIjD4KzGbRjvsszAK3XcJu1T5ns2ivuXarVo+dkPf/bzSh0hkEb0jfFZ9UdGJRE+Pl7RAbwhMh0AmhLvDof466oD/9gkCLAZFLIvVPqe6O6D+mO/U74/SfEc+LeBQcqd0wusmnf3PnAk+GHCMj6Oa5ZYsJRIf+IvTm2lepLF7DyVOuIRjLjBegQg+MLoSiLIkCD2Q7BzvSvtWHWEI71tMbgoYulcaBtYBNWR6bzPlFW3BH2vt+cH80V8P42fqMJRhKvyDQPujfsN7FwlozSiMCCZ34jQgCMynhY3PAYJYVDiXcndJBoKKqtPn1vzsUZImu/MI+bX4fr635QrfxattreXbJ77nimG8QlVO/7rYnRVlQWSRRWTSUoK93DhuU52kf08olYgnY6YXaDpUmn7YylG4m5fg51l6FFNEx6RINgq8Z8kboN6ZgCH0brlnt+i/hhrogu0jfMXXU0q3/b31GZQKNeHMQ8kFemf7j6mRjY53umzisFgtusRwsfMkTny9CVvRdv93TU3D+5JMZXXRKvzaFms1hgyllMKlMIivJvyIOG0wsgYklEnEZdrTDxkYVf+ovYgFa77/yaC0GHPgFrTUiCEwD+gaBdpcBQaAvpYPAGgOOdM3NpI1VRuwSC6X2GswnWzfoPuaYwlLdxxTSV5Ovk4+2rDds/I+3LKY0Z2NK9xTMc2vZuIklYEmB/WJ2K0wug8llEru6oKpJyw6mon73/huKRExrIl0w0rhrCEOmb3W9EUt0Xfq2ndFTe0D/TSEAhVkp8IqmFyOeE7EQREP6j6uTz6s36j7m+JL0XJ4TjPHc0sWG943c01MQNbWOBCvMgtMmS1w8U2JSaWoEgAeqyIczp0pcNFNiXIrlMI4s8HJh1grssSREqO11ZFS7iwykbxDoNqBwXY6BX6diVZ3VdBjz5C7MMmRYc7gM2szQWW/MuEO0blcNXWGdayCBCSIIFHZr8/tYvGVdUq6lovKf5U+yuXEBbru5W4c9DjhxosQF0yUqCkydSr/lu2H+YRLnHaFtTjGTw6JyUVk1M5T1oCRpnT8RS+lEjqB3EGjUDd/baMy4QxCXobpV/3GtFsgxoIzONA63Me2DfK3apqEU88LyjwwZd0KpCAIFzXPLFut+HGNf1u9ax8sr/kS2M/nnV1stMGMUXDJLYnxx0i+vi+JsuHCGxPETJFNqvkd5QlxRtJL8iAn30vadyb+m0G86B4EG7V4MelPucOrldSoxA2KQ8kzs2eox4IdSFa3wOIUs3bGZtfU7dB/XZrEyeURF3w8UMp43FOC9qtWmXHtPT8FQdDXWJLXpLMvRgr8jR0vYUrs1aL9MLIGvHCkxOYn72uYXNXK6YxXWmEklNPFwyq7mCXoHgRYrZBmUp2/amjKH6npDsM2ALCBARUEKFrgMlVEbe7wN+refGaSELA/o6K6BmDVmPLYUbpMkJM9LKz5JehbwQG+ufZVl2x8n22nckqIEzKqQOOvw5O/4NZrNAseOkzh1srGBrccmc0VpFeMS1dqbZjN17jL3+kKv9H8KGnXDj0egrdaYsQeordW4rOToNKl1GZAcAyujGzcbN/YALKttpz1gzFLZ7MpJhowrpJeELPNu1SqzpwHAjrYanvniPpzWJt3H9jjg3CMkZlakyyGRgzO6AC6eKVFkQA34pBw/l+WuwB1NkQxcyJfSm/mGM/2DwNwS3Yfcq2On+Wnl5momhddxQWm17rvS8tzaC2DGsbvAOfhXumdeX8S1P/01l37/TtZsqqazq5trbvs13/rl//Gr+x+Chk06TnbgGrpgW1sp15/4c0YVjNJ9/HkTpuk+ppB+Pt62nnAsdRrQ7ekp2OB9H4dOzcbK87TAqHiY9EXPcsL50/VbHpaAM0t2cpxlNZKcOs8VIGU38w13+geBNoexZwY2bIJIwLjxD6WrSVuCBAqjjVxdtJKR7rBuw48vzuD3vfmDbxpa29jMU/f9nN/96Cb+/fKb/PnJ//CtKy/kH7/8Ec3tnWxbvwo6zHmB6QrBR9u0MoVA1MH8yTdyytQzdBt/UlkFhVniuDgB3tmwwuwp9OjzbR+zaP3fyHEO7fik8jw4Y4p2pu9wc+w4iWlD7Ktc4IhxVclaymO1usxJd13NyduVLPSbMRUJQ7jh90lVoG5t8hsGdzVpdYlfYo0HOcO5kuOLmoc8vARMyuR+wEM44ePnN18LwLJ1mzh84jhWVW1j9hGTAZh9+GRWVW2F1h27e1IljzcEb29UiX9pg1BCkSjOOYFr530Xtw6Nss+dfsyQxxDSX5Ovk6rG1N1l2epv4/FP7gOlelBLuBX5WgAoZfD74L4cUykxfZB9lY8u6Ehe77+h8BlUTC8MmjFBYG4JWPQ9jGQ/SgLq1iSv2LSt5qAAcC9VYWJiK5eXbsJjG/x24TGF4Mqk4+IOZLVDzuBLBdZt2c4bH33BjZedt9/n1S9vFmqrhV1VSSmCbujSAsDedohHEiVcOec2Jo+YOuhruB1OTp48Y9DfL2SO19cuMXsKfVJQ+M+Kp9g0wJ6CFflw6jAPAPc4aszAAkGHVeGismqOUDamR5ata+gJE0FfxgSBkgUKk3BUTMt2qF8PCYNqHxIxLevYjz5Hnmgbl+auYEK2f1CXmjJiGLwCFo8e1Ldt3jMjv/cAACAASURBVLGTX/79cf59721YrVaOPnwSKzduAWBl1VaOmvaljRP+Nti+XDtz2gCyAqt2qry3ef8MYE+CcSszxnyVi4+8clDXOvvwo7FZh+HamHCQDzatMXsK/bZ+1zoWrPgDHkffv4MV+XDaFCmjN4AM1FFjJI7ox+1ztDvElQUm9f4brIhfO/FJSBnGbVAvTFJfs0AnVC/TtyYsFobGLbDtiwEFExY5ygnW1ZxRMrC5lGTDiEzsD3ggVw64B/aDRmMxTr/hx8QTCb7xi9/z238+ww+vu5yHnv8vN931R0aWFnHY2AOea/GIFrw3bNICeR3EZdjYCC+tUlk/wNdcu30a18+/jYIB1Mo6bXYum33iAGcpZKLltVsJRIdWb5dswWiIJz79M8HIml7boBR44ORJIvzrydFjJMYdojH2/OImTnWuwhLXryY9aUQ2MKVIdc2+/ZrvFee58ei1LtlcvXcjRVJYrFrtWcEocA7ijJ5QF3TsgkDHkKcSdeTzjm8KXbG+t/teMF3KrKPiDiXohZ3JOfJqr+wiKCgfVPui7ghsalapboXEEFeZXTaFqqa3WFmzvM/HXjX3ZL4299ShXXAIIrEErd6D37GXFnhw6bUVVOiXPy96hfc3mdMgWg/jSsZx8pRrCET3PW/cdu0EjYwugRkiVdVKTtq+tA8y257g3ILNuKOd5k1sqGwOOOw4s2cxbOxs6b112T111Rj7al5SCb6W5NUqKLJ2xJy3UWtL4snTMk+ubK0mzWoH65d+5GhIS0+HfNoyoqzfPJ2xLi7KXsFqeSrrfL03/6ssyrCzgvuSVQBZhRBM4otYoAMCHbwdOxa700FpjkRJtnYjctrZ7xinaALaAtDqV9nZCT4d32hHEhbGl5zPYaXTeXHZYyi9ND/Pc2dx2dEiCyiAoqp8Xr3R7GkMSU1bDQ3e+7jimG8QlcuxSHDGVBEA9kWS4PSpEm+sV/FHYHJON3MdVUhRfVY3TJOIafddo46ZFQbE2CDQatMCwZZqQy/To3gEfBEtCDWLnOBI1jOmdBRvtY1HUQ9e+jh6zDBcDik/DKqXJvWScWcerT4HhKGhy9yTZ2R1LF8/4WcsXP84jV0HZ8q/Pu90nDZxhxRg9c5qwvE0v+mzr6fgCRPnc9Wxp1MwiIWa4chh1XZNB5p2UR7ZDmmw96Nf/B0iCEwRxq/rFI6CrkbDu4U/9vLbfLxyLY/9+nZWbtzCHx59AZvVytXnn8a584819Np9KYo2cHWxj/f802iO7GsbctQYiWyniRMzi90FRWO05t9J0qj0/+T5LxY+w/olC4lGQlx0/S8YM2kWz97/QxLxGIl4jGt//AB259DavwSiDk6eehNN3o/5cPP7ez8/qayCMw8/ekhjC5nj023pnQU8kNPuZ2yh2bNILzkuyCm0Qxrt/+iTv11LEAmmS86R3CMH3yajPxpa2vhk5b46szsfeIxHf3UbT933M/769MuGXru/rLEAZ7lWMK9Qy0zmuujXDrCMVVoJDnfSLre2u//tadqbarnprie5/Nu/5ePXH6Vq+ftk5xVx3U/+zhFzz+CLd5/RZU5xGYpz53Pd8VpPQYtk4dazLtNlbCEzfF5dZfYUdFOUncu3TjrX7Gmkp7wyrZQmU0SDum3aE4YmOUGgKxuKxxg2/E/++A/u/u717CmxisRieNwuJEliRHEhLe0pUkSrKhwmb+Gy0s0cP2G4t0WQYOSUpFwp7sjF248NOntc8D8/B6Cmahmjxk+jdusqxk2dDcD4aXOo2bRS1/mF4yVcOfc2bj7pEkbmizSJoNnW2kAwll67gg/l1rMuw+0YjksfOhk5RWu/lil02IApDF3ynlEl4wbcHqQ/Hn35LU4+ZhblJft2fn45vFJ7Kb43U1ZeNqWiHEJ7PpSMM/wyLfR/KXiP+up1rPnsTU668EZtm97u55RRz6csp5VzZ8w0ZGwhPW1sSO4JOEY6dvwUpo+qNHsa6c3mgJKxZs9CP0FjerkKA5PctxWjj9CeyDpavn4z2+sb+flfHmHlxi0sXrYGl9NBKBxBVVVaO72UFadQdiWnGIoG1zQ5IxWPgWxj/33WDWApGKCpdjOvPnI33/jZI1isViqnzKZ2s3Zua82mFYybqm/NnscBp00e7plh4UAbGzMjCLRaLNx80nl9P1DoW+Fo3e+hpjGoob8wMMlt+GW1w+jpULtat6O9HrrrRwAkEjItHV5OnjOL3GwP1//8PqxWC9/72qW6XEcXziwYZWx9ZFqqOBxqVml1IjpL2LNp8/V/CSoei/L7753B2ElH8uivb2D0xBmc//U7WPvZmzxx3y3IcoJrb/2bbvOzWrR2GaL1nnCgDQ21Zk9BF+fNmENJTp7Z08gMkgRlE7RG+OkuEdMOZkhibbhwMGObRfcm0AH1G4y9Rqqx2mHc0WAXNTE9kuOwfQXI+hYLN9orWdRuXD3qUJ10mETlwHtYG040izbXLm8733rqr2ZPY8hsFiuPfePHFHiyzZ5KZqlZCZFA349LdeWTIL/c7FlktL6aRZtTZZpdBCMOM+XSprC7YNxRIgA8FKsdxs7QTn3R0YbgwJaCk0WS4NTJqRkACubLlCzgWUccLQJAIxRnSG1gqPcARUgO87YaFYyEUdMg0yuhnJ7dAeDQ+soNC84sLVtq0ydYlu1ZNIVTb6nBZoGzpkqMzqCOD4K+NjUlr4emkS6fPd/sKWSmnOLMWEaN+M2ewbBn7n7z3BKonKVlgTKRJw8qj8rcn88IDjeMn63LTvI2S+plAZ02OG+6RJn+G+WFDLKjrdnsKQzZvAnTKM4WT3TDFKVumUu/RYNA6nXwGE7MbzrkztVu+q4MWzIoGAVjZuq+vDksWG3am4OCoXXT3hRIrbXW4my4cIZEfga8gReMo6Kys7PV7GkM2fkz55o9hcyWW5IZfQMzobYxjaXGM8jm0JYBM6FA1GLVdruOmKgVfgmDJGl1o4NsKK3Y3ewMZek8p8GbNgLOPVzCkyHdHQTj7OpsR1b06Z5glpH5hcyoML4H6LBmsWrLwulOBIGmSq1tfuWTtKNxGjfr1kImqRwerRdiJtRqpIq8Mi1bXL9eayfQTx1SaiwF2yww/zBR/yf0X21Hi9lTGLITJh5h9hSGh/wR0J3mWeOI/q3BhP5LrSAQtBS3KxsaqtLrHUJJZebs2Eo1e+oEm6uhq6lf37IpZP475MoimFMp4RYlocIA1LanfxB43ETRDzUpsvK1JeF0TJrsEe//m3tBf6kXBIJ20x93NHS3QVvNgDJASZdTAiMm6LajVeiFZNEyxYWjoHUHBHo/D1q1uajxmVdjmueCeRMkcTSgMCh1aZ4JLM7O5bDSUWZPY5iQtNWzdD6HN4POx05HqRkE7pFbon10NUN7HcRT6MniydfOcfTkmz2T4cWZpZ06E+6GtloIeg96SIfVnKXgHCdMLZeYOsKUywsZosl38HM6ncwcPcHsKQwvaR8EpnCSZxhI7SBwj/wR2kdXM3TuMuR4sX6xOSBvBBSUi75/ZnPnwpgZWjDYXrdfZnBrOHlLwVYLjC2ESaWi7Yugj65QGpXB9GBGRaXZUxhesgsgrZPHqnaEXKaciZxm0iMI3GNPMBiPgL8d/B3GH0JtsUFOEeSWQnahsdcSBs6dq2UGFRkCHSiBLmp2Gb8OOyofxhZqJ37YRRcgQUe+cHoXyh89dhidBpUKHB5tp7Aimz2TwYtHRBBokvQKAvewu6CwQvuQE1oq3N8OYT8kokMf35kNnlxt+32W2NaZFixWyC3FklvK10ZCow/qOlTaA9B58BG4A5blgKIsGFuk7fQVgZ9ghHTPAua5s8gXx8QlnyvH+ISIkRL6nhkv9F96BoFfZrVpbUTyyvZ9LhKAWEirNYiGDggMJS1gsFi177VYtRM9nFnahhTR3iUjjMyDkXn7+jT6I9AdAW8IuiMq/sj+feptFi2w2/PhtEnkuCDXpQV/gpAM3jQPAscUpkZrpmHHnZveQaAcN3sGw1b6B4E9cWVn3gkkwpDkuLSPUfmQ8edVC2kr3YPA0YWlZk9heHKl+TvVhAgCzZKZQaAgCEIaUiWVyuIyQtEowWiEYJq1zxgtMoHmSPcWZSITaBoRBAqCIKSIiaNG8v3LL977ZxWVeCxBJBonGo8TicaIRONEYlHC0RihaJRILEY4pv1/MBLR/hsLE4xGCcd0qJEegMIs0RzTFOnerUIEgaYRQaAgCEKKUParVAUJCYfDjsMxuGNnFFUlHo9rgWNUCyKjsdjuwDFOOBolEosSDGuZx3A8RigSIRjT/hyJD6xgP9+T5suS6cqe5jtr03lnc5oTQaAgCEKKUHQ+/ssiSTgdDpwOB3mDTNKFwlFisTjhWIx4LEEoEiUcixGOxojEooSi2kc4FqMkRzTPN4ektTNTEmZPZHBEEGgaEQQKgiCkCLXvhySdx+3E43bSn/CuyC6Wg01jtaZvEJjOZx+nOYvZExAEQRD2SMUwsP8sYue9eSxp3LxUEUGgWUQmUBAEIUU4GyLkNfvNnsagSXNEEGgaSxrfzkUm0DRp/KwRBEHILJ43duF8cr3Z0xi8d8dBbpq3K0lXanpnkQVziOVgQRCEVOFM4yU9gKgo8DeNmsZ/9+m8lJ3mRBAoCIKQKlzpvTijRtJ0Y0ImSOe6OkmEImYRf/OCIAgpQnKmdxBISASBpknnNisiE2gaEQQKgiCkCld63wzVtqDZUxim1PQ+dUMEgaYRQaAgCEKqSPdMYLMIAk2RZmdMH8QiQhGzmP43P/q2bYy8dRt//9C793OKCrPu3sHIW7dx52ttez//qzfaOfKeGvwRrfahvjPOyFu3cc/r7XsfM+fXNZx9/07d5vfOhgBT/3c7n28P9+vxPc1JSJ5AVOGX/21jzq9rGPvTambdvYM7Xm417Hpzfl3DyFu37fcx77e1hl1PyHBpHgSqLSIINEU8uWdE604SmUCzpMQrjt0q8c6GAN85pQCAZTVh2gMy1gNC1NOmZlGYZcXjSF7sOm2kkxvnFzCxNM3PZhwG4rLKFf9oYE19hCtm53LMOBe17XGKso17gbnnohKCUa01w9KaME8v8XHm4eL8VGFwpJz0fp1RG9K3x2Fai/cvSZGyrCkRigxLKfE3f0yliyU7wrT5ZUpyrLy5LsDsSjdr6vdPcb+wvJsXV3Tz9Xl5ZDn7FwgqKvzmrXZeWN5NLKFy7Hg3v7+slLJc7Uf/wfMtbG6OMm+Ch+eXd+O2S9x9UQnnz8gG4IvtYf64sIPpo5ycMU27ub+y2s+fF3VS3xmnONvK904r5Nrj8nqdwzNLffzlvU5aumVG5tu456KSvWMJ+nl7Q5A19RG+dVIBd15Q3ONjhvp8ONDZR2if90cUfvd2OxNLHdxxbs/XFoS+SGXp/bqgbOkwewrDU7jb7BkMjV30ljSL6cvBALMr3bjsFhZVBVBVeGt9gPNmZBNLDL355ZNf+HjwQy93nFPE8zeNYnNzjJ+/0rbfY9btitLQFee3XykhmlD5xSuHXj6cNdrFrWcV8dItFUwa4eCOl1vxhXvfnn/v6+1kOS0suKWCm08qYMqI9H63n6rW7X7TcPGROSQUlc6gTGdQxhvat2vOiOcDwJ2vtdHSLfPXq8pw2sSpCcIgpXkQSINf9Ao0Q9oHgS6zZzBspUQm0CLBSZM8LNwYZPIIJ83dCc4+PIu7Xmvr+5v78OFmrUZlT41eON5zYPnz84oZU2jnjXUB3lwXQFY4aDl6j3c3Bnh6STcdQZm4rKKo0OxLkOfuObg7cZKHN9cFuOu/bdw8P5/RhfYh/1zCwawWLfhKKCobG6Kc85d6ABw2idrfTQSMej4EeWF5Nz86o5BZo8WLmTAEVgmK3dCevst7alU70pFlZk9j+FAViIbMnsXQiEygaVIiCFSBMw/P4vYFrZTn2ThqjIvyfP2mJknw5vdH47BqQYLNenCmpihLqxvbE0ioqNDDYeibm2Pc/Xo7F87K4YGryvjr+5386d3OQx77/vC15by5LsCDi7186+lmOoIy1x+fP+SfS9jfxFItuP54a4hvnpjPCzeP4g8LO1i3a/+iaT2fD51BmZ+81ML0UU6+f3qhnj+OMExJZVmoaRwEKmtasIogMHnSPQsIIhNoopRYDgY4Y1oWcVnl6SW+XuuvBuO0qVmoKjz8URdNvgQr6iIsrxn8C2w0ri37ZjstNHgTvLOh791wD7zfSUmOlR+fqQUJNe1p3M8phV04K4dR+Tb+vKiThz/y0uRL7N20sYfez4efLmilzS9z+rQs3lof4LU1fl5fGxjqjyIMY1KZfq9/ZlC+2GX2FIYXf5rXYVpt4sQQE6VEJhCgMMvK7Eo3y2rCnD8zR7dxrz02jzZ/gmeXdvPC8m6Ksq3ccU7RoMebUeHi8tm5LFjZzUdbglw3L4+NjYfenv9uVZD73+vEZpU44TAPt5xcMOjrC71z2iSeu2kU97zezsMfdRFNqBRlWznrS7t19X4+vLNBC/j+vKhz7+ccNokLZk4c/A8iDGvSiPSuC1TXtUIwDlmi7CUp/GnejkxkAU0l1TX79kuVFOe58bjEL68gDGeRWIJW78F1RqUFHlyOlHnvmJGU/2wi8aelZk9jSGz3noTljHFmTyPzRUOwY7nZsxianGKoONzsWWSsnS29lwvcU1edOsvBgiAIAkjj03+lQHl7u9lTGB78Q988aTqnx+wZDGsiCBQEQUgh0hElZk9hyJQlDeBN86PM0oHPuNOQksalX/mXMHAiCBQEQUglTivS6FyzZzE0ioq8cIfZs8hsoS6IpXlrGABXem+ESneiuEcYFjqDfpp8nQQiYULxKOFYjFAsSjyRwOVw4LY7cNm1/2Y5XUwoHYnbLpp6C+aQphSh1qd36w9lwWasV07rqbOSoIeODNiFbbGKjSEmy+ggMI5MQpVRUJBVBQWFrkCQFdu2keVwkuV04XG4yPdkUZqTT65b1CZkgo6gn0+3bWB7axO7vG3Ue9sJxwZ+wPq44hFMr6hkavkYpleMI9+d3rs2hfQhTSmGRTVmT2NI1PpulA9qsZxWafZUMk8iCoE0bw0D4E7zjHcGyIggUEUlrMYIKVEiapS4KpOg56OLWoJeHv/s3R6/5rTZKc3NZ0xhCTMqxnPEqErGFpUaOXVBJy3dXXyybQOfV29ka0uDLmPWtDdT097Mf9csAWBMYSnHjJvE7MpJTCsfg9UiqikEY1imFPXyCpZe5H+vEUGgETIhCwhiKTgFpG0QqKLiU0L4lRARNabLmNFEnPrONuo72/isugqAXJeHueOncObhRzO1fLQu1xH0s2THZl5d/TkbGmoNv9bOzlZ2drayYOWnuB1OjhozgdOmHsmccZMNv7YwvEjTis2egi7UHV0on+/CMq/C7KlkDjkOnfq80TWdyASaLu2CwIgap0sJEFBChzyqTS/dkRCLqlaxqGoVowtLOHf6MZw+9UjcDnHWoVnicoL3qlbz6urPaegyZ0kkHIvyWXUVn1VXcVjpKK4+9hSOqZxkylyEDOS2IR1WiLqts+/Hpjj5wZUiCNRTaw0k5e6XBFni+FSzpU0QGFKjdMp+wurAa7u+TB3C7059ZxsPf/QWT3/xARfMmsvFRx5PtlMUtSZLQpF5Z8MKnl/2EV2h1DmabVtrA3f/92kmlo7k6rmniMygoAvLsaOQMyAIVKu9KItqRPNoPcQj0NVk9iz04coBS9qEIBkr5f8FwmqUNtlHVNXpvF1p6O+ggrEIzy/7iFdWfc55M+Zw1ZyTRWbQQCoqi7es45kvPqC522v2dHpV3drIPa8/w/RRlfzk7MspzBL9r4TBsxw3Cvmp9WZPQxfyv1aLIFAPrem9WWg/WenfFD0TpGxlewKZpkQnuxLt+gWAAKp+/QqiiTgvr/qMbz5xP4uqVqFmSoo+hTR2dfDD5x/mTwsXpHQA+GXrG2q5+am/snDjSrOnIqQxaWYZuFL+fXq/qDu7kR8Uvw9DEuiA7gxoDr2HCAJTQkoGgZ2Kn5p4MwE1rP/gOmQCD+QLB/nLe6/y/555kLqODPolNdmn2zbw/eceorq10eypDFg4FuWB91/j7v8+TSBqwPNYyHxWCcvscrNnoRv5yfWoq1vMnkZ6kuPQsNnsWehHksCTZ/YsBFIsCFRQ2ZVoo0M2sEmqjpnAA9V2tPDD5/+xd2exMDgJWeahxW/wu7dfJBzXZ+e3WZbXbuWWpx6gqnGn2VMR0pDl2FFmT0FX8V9+DAnF7Gmkn4ZNoCTMnoV+PPlaICiYLmWCwKgapy7eTFindi9mickJfvvW8/zz47eQFfFiN1ChWJTbXvo3b65bZvZUdOMNBbjtpUd4YflHZk9FSDPS3JFmT0E/pR7Ur04ktrLW7Jmkl84GCKZHKUy/5ab/+diZIiWCwKAaoT7RSoLMCZr+u2YJd772JDE5g969GSwYi3Dbfx5ha0uGNEI9wFNfvM/jny8yexpCGpFG5yJVpv+ymeW4Uag3TkUtsKN4Q8Q3ZkifO6MFvdBSbfYsdCaJIDCFmB4E+pUwjYmOjNxSsbZ+B3cseHRQR5YNN75wkFtf/Be1HZldM/TSik9EICgMiOWcCWZPYfCcVqTrppI4qxzVvm/5T673Iu9M//Y3hoqFoH6D2bPQX06RaA2TQkwNAruUAM1ycl8Ikl2GsKV5F7f+5xG6w6HkXjiNeEMBbn3xX9R3tpk9laR4acUnPLPkA7OnIaQJ67kTzZ7CoEhj8+D7M5HH93zmdryqEaUjmORZpYlEDOrWgZo5q2N75YmjWFOJaUGgXwnRJvuSft2hNIserLqOFn7x6hNEEzq2uskQsqLwy9eeosk3vLICzy1bnFF1j4KBSjxIabZLWDqzEvnaCSieQ99iYqvrULsjSZpVmpDjULcGEhm4giRZISczjkTMFKYEgSE1SrOcYYWufdjR1sTd/30aJRPf2Q3BAx+8xva2DOmAP0APLX6DT6s3mj0NIQ2kTTYwxwHfnoE8rxhs/bi9JBSiS3eg+kQbJUALAGtWQSxD/z7ySgCxKziVJD0IjKpxGhPmnPcK5u5KX7erhj8vesW8CaSYt9Yv572q1WZPw1R/fOcldnaK3pLCoVlOrwSH1expHJI0rRjl/x2BUuoY2DfKCtFlNShdw7xkJhHTAsB4BmdGCzKr5VEmSGoQKKPQkGg39WQNM5aDv+zDzWtZsPJTcyeRAnZ623jww9fNnobpEorMr954VpQKCIfmsGI5rdLsWfTMIsGlhyFfPhYcg7ylyAqxZTUoncO0RjAahJqVmR0AunLAlW32LIQDJDUIbEy0I2dQG5jBevyzRWxsrDN7GqZRATlb5rqTTsNhFbvEGrs6+ct7r5o9DSHFWS+eZPYUDlbsge/OQJmeN/RlFkUltqwGuX541Qfj79AygIn07pHbp0KRBUxFSQsCW+UuInqeATxIqdCkXEXl3tefoc2f/I0xqaBd9pFA5shpE7n9iisZXSh6Rn28dT3LaraYPQ0hhUkzy5Cmpk5RvTS3HOWWqSiFdl3HjW9sJLZq5/A4WaS9DnZtyMxdwF9msYldwSkqKUFgRI3hU1IjzW/2cvAegWiEhxa/YfY0ki6ixuhSAnv/XJCfzfcuu4jTjjjSxFmlhocWvyFOmREOyfr16WZPQev9d+0U5HNGgdWYd9VKazeRT7aieFPjvqG7uExiUwO01Zo9k+QoHInYEJKakrIW15wYXjuB+2tZzRbW1u9g5ujxZk8laVrkroM+Z7NaOf/EOUwZXcETHywiEDWmLmZq+WhKcvIpycmjMCuHwqwcsp1uvCE/3mCAhq4OdrQ1Ud3aaMj1+9Lm97Fg5adcccx8U64vpD7LyWOhPBuaAn0+1ghSZR7K5eNRspKwSSWaILa0Btu4YmwTywwLOJNNafMTW7cL4jKUl2NzDIPuCAUZdPxhhpHqmn375caK89x4XPql97uUgCn9APdwSQ7ckgO3xYkFiVg8QVX9TryhAN6Qn9r2Fna0NdHSfXBwkgwj8gp45Os/NOXayeZTgrT2EAR+mT8Q4tn3FrO5qV6Xa04oKefcGXOYN2EaOS53v79vTf12VtZu4+Ot6+kI+nWZS384bXYe+8aPyXV5knbNnkRiCVq9B+/WLC3w4HKIOk4zKa9uJfG7z5N/4TMrUeYU9q/1i94cNuyTR2AdlZ/8a+slLhPf0oy8a/+kiGOsjAVz7j9JkVcGI6eYPYtha2dLd69fu6eu2tggUEFlR7xpULuBA/4Ad33nDtweF57sLH72x19Sv6OOH177HSonjuOY+cdx5Q1X9/i92ZKbXKsHj+RE6mcKujscYkXdVj6vrmLJjs0Dnu9Q3Dj/HC6adVxSr5lsKlATb+r3xqCPV23glaWfDfp6R4yq5GvHnsr0UZWDHmOPt9cv54XlH9Ee6P2XSU9Xzz2Fq+eekpRr9UYEgf+/vfuOj/K6E/3/eaZLGo16R42mgoToxRhTHcCmGgyY2NmUTXJ3c7NJdnOT3Xu35m793U12f9lNsuv7S2JvEhMENtiAQxEI07FpQggk0YRQQb1r+jy/P8Z6LKEuZjQz4rxfL9nSzDPnOSNGM99znnO+Xz/mcGHbkA8t47STNFQHb2SOPvWLF0gmA9rsRFThvh0kjYrDheN+A46HjeDs/1ko6dTo4luQJN+vmfeKKQtAN/IBuOBZPg0Cm10dNDnH9sF5ofAchiADsxfN5U++8E3+/F9+wPWLV3C5XKza8Ll+x6tREa42EqYKQf2USx0ft7fw6wsn+KiseFzS2USFhPLLL/8JKsnnpZy9ZiSzgE+qrmvirWPHRhV8RQQb+fryl3l+6ozRdnFY//f073j/+gWPt/sko97A21/5H+g1nl1wPxoiCPRvzrdu4PyPq14/jzQjGuemVND516VYVWwomvRoVBEDl6TzC1YHjodNOCqbht3kooo0oAutHqeOjSNTLCRlfWcAxAAAIABJREFU+boXz7ThgkD1d777Z3/d+8Zggxat5unXe8jI1DqaxxxEJaenkDApEbvdzp6f/4btX36NT85+zIWTZyk8fJyUyWlExkQBEKEKJVETRbDkvuT7tIz6IJ6bms28tGncqHpAp9W72dvNdhuxpnCmxARWaajRqHU04xrla8FkDGZBZiYd7d1UtwyfYDwveTJ//8qXmBbnnVQEc1OnkZ2YytXKu1js3kvnYHM6iDaavPY8RsLhdNFl6T8zERKkRaOeuIOVQKHKisZ5oAwsTi+dQIJXpuFaHgca/woAAeQuG87qVpz17UgaNapQg6+7pHC1dOMoe4z9ZjWulm5wDf++J5sdSKEmVKoJthFm0gxQ+24wK0Bb1+DlBz9qa/beTGCrq4uGUc78PEmWZX7wrT/nc1teYvGKJcrtHW3tfO/L3+bNd98iUROFQfLeZQqb08GbH33IkZuXvXYOgMTwKN78wre8eg5f6ZItT10l5trt+/zXqeOD3r9zwTJeX7Tqqc4xUu2Wbv7Xe2/xoPGx186REhnLT1//715rfzhiJtD/ufaX4fgnL8xMxwbD5zNwhfl3hZI+9Bo0KZGoY0xIpvEPCOVuG87qFpw1rcjmsV/W1adakfDNph+PE7OAfmG4mUCvDelbnE+/mP4fv/+/WbxiSZ8AEECj1SLJEqnaOK8GgAA6tYb/vnIjX3vhpRGvLxyLmtYmrj+657X2fanN+fSj29lZk/mL1z5PcmT/XFPfW/vquAWAACZDMH/3yheZFOG9nG2VzfXcf0ZrKgsjo9qSgZQW5tE2pYUJuL6eFVgBILgvvd6px3r+LpaTpdiLq3DWtrl34HqDS8bV2Im9tBbrmTtYT5fjuNfwVAEggK3e6DdpzJ5aTJqveyCMgFcuBz+ZC24sfv3TX/LuW3voaO/kyLuHyZyZzXv/lc/eX/6WkweO8oP/+dckJY7f5bKM+EmkRMZw9m6JF88isXjKxBo5OXGNei3gYIIMOhZkTcdllblf756Fe33RKl6eucAj7Y+GXqPlhem5nL17ky4vpbTRajTMTZ3mlbaHIy4HBwbVlEhch+8+fUN6NdLrWTjnR7kvBQcypwu5w4Krrh3Hg0acNa24mruQu23gdIFahTSaz7ie9po6cVa14Lhbj+NWjXvWr9Xs2UDT4QJDJGrN+GUk8IroFDCJIgD+wCeXg+udrV5LDq1FTYo2ziNr/8bi8I2PvZbkWavWsPtrf4pB6/tdeJ4ylg0hI3H3YQ0XSkr5waY3PN72aDxsqucbv/l3r7QdHmzk17//Pa+0PRxxOThw2L99HPni2DcVuHP/TUEOeYaCe5WEpNMgGbSgVSPpNUh6DbLDBXYnst2JbHO4A0dvzSYOQZcioZIax/28HqHRw9SF/lGeS/DN5eB2V/8PD09J0ET5LAAEeHnmAtbmzPNK23ang3NenWkcf10u78ySTU1N5C82veaVtkcjNSqW7fO8k9y5tbvTZ4mrhcCh/e6iMc/eSZ9Lw/mFqc9WAAjgkpEtdlyt3bgaOtwzfPcacD5scs8cNnQgt3l4lm8U7DUSMv6z2WVUEqaLADCAePwv3yxbvZZWJUptQi/5fqfR7y9dS3iw0Sttf1Jxxyvt+kq3PPhU9NOIVIWiHZ+CN8PatXAFcSbvJLG9+tADl/qEiW1SKKqto0zGa9TB12fifC468C//TkCyw4WtOSLw1gcao8AY6eteCKPg8SCw2+WdD30taiJVoV5pe7QMWh3fWLHBK20XVz3wSru+YJFtox4Q3C+7x/KpC2l4XA/Azas3+Pbn/5Dv/t43OfW7k8CnrwW1yeP9HSuNWs3Xlr0MQPWVm1z71X6u/Wo/p//xP6i/fZdHl65T9JsPuPb2e3Q1No+q7auVIggUhqf5xlyIH1nOPCk7Gtcf5eBKmDjLTiYiucOG0x5A5dYkFST4Zg2zMHaeDwK9NPMTo/GvckGLp2R5Ja9fm7mLh031Hm/XFyzy6HLpmbvN/Phv/pnceXnKbf/v3/wz//B/f8j/eevH/OonvwAgQh3qd6XIF6ZnEG+KIGluDrPf2MKsz2/GEBFGeGoSdcXl5H1+I1mbX+Tu0TOjatdT5fOECc6gQfuDZUMfo5Jg6zScr6aC7hm7/BugHLVWXHh2B7jXxE91rwcUAopH3wlk5FF/8I+EXtISIvnf+ohdi1Z6pd3i6okxG2iRR5cuISg4iH9952eYwj5707NZrAQFByFJEtFxMTTXN2FS+WfJqK1zn1e+r71+i7ic6XQ3tGCMdSc1N4SFYm0f3YYph8tJbdvoZg+FZ5M0Mxb1zuyB74wNRv7mTFy5YWK9VoCx1+qRZd8vgxpScDiET9xiBxOZR4NA6yg/9EcqXOWd9XdPa2F6Bglhnl//UNFY5/E2fcHqiQFBrw8sWZYxSkFezdf4NNblzseg1SHLMlWXipi0MA+Qn/pDd6LMDAvep/7DuZDUd9lMT+4/OcLPAwlhQLLNib3Dj9OtqNQiKXQA82gQaJMdnmxOEary3+LTL0zP9Xib1a1PV13DX3ji9aA36DF3m5FlmeaGJtISkj3QM+/JiJ9E3c1yoqanodZoCImLprPOnerB0taB3jT6AU1lswgChRHSqdH+7TKQcOf++0IWznVJoPbPgZMwMq4WK05nnK+7MbD4aaAR60sDlUe3V9q8MBMYIhn8duYH3EHgnk8+8mibNRMgCHQydMH0wfziX9+k+PJ1fvaP/8ZXvvN1vvVX3+XPfv+PUanVvPGNLxEs+feak8z4ZP6/C9eY/YUtAGgNeuJyM7j+6/eRnU4y1q8YdZvNnQGeOFYYV1JWNJpvL8ChceB81lK/TGD2GieqZKN/lZULjYEwPw1OhRHxcBDo+ZnAEJX/rQXsLTUqFr1Gi9XhuQC4qbMdh9OJRh1gpZt6sY/xtfDlb3+NL3/7a8rPSamT+Nd3fgaATtL49YAAIDMhmflf29nntuSFeSQvzBvkEcNrNU+wovKC16m2Z8Ol+9DqvZytwjhzydgbQ9FFd8MYB9kepTVA0ihTEwl+x6PDRJcXXpj+kBdwOFNjPb+Nv67D81U2xpM3Xgs6/P+1kBbl+VFxmwgChdGSQDcnBbSBO5AU+nN12bCb433dDXc6mJRc9/+FgObh3cGep5P8IyHwUNKiPf/B324O7BG8N8ap6gB4w/FGyb9Oi9njbQrPAJ0G3ewUX/dC8DBnvRUXUb7tRFIW6PwzS4MwOh6NsLxRKUTlncp2HmUyuP8YLvz4bQwRJvTGELK3fI62R7XcO3EeSa0iaW4OsdkjT6TZHuCzP7IXUt2rA+C1oNP4/6BFeHaoIkPQTI3FcVdsLppIbNUq9El6JLyTl3dIkZMgNHr8zyt4hWeDwICrceMZIXoDDouVsJREsje/qNxe9uEp5n5pGyqthk/+Y/fogkBLYM8EBlvMTK73bKobKUINYf5TKWQgeo3nL1lLIq+b8BQ0U2PdNXIb/WhDgfB0HC7sLZHoImrH97zBYRA3ZXzPKXiVR4PA1MZWsJmRQVm+L3/6XwlJ+d5N6nUvIMtI0mfHyPKnH36pSZ7solfoNBrMLe101TdRvOcwMVlTiJ+ZicvuQK1zBwV6UwjW9s4Rpwix2L2Tc3G8qF0ymD28qzWoC39Pnu9wer7gvAgBhaelm52K9eI95A6Lr7sieIir3YYjJAGNbpwCQV0QJHs+JZrgW569dmXpAktHnw+twb5npMc47aD27w0BbeZuQhNimP+1nciyzMf/8Y571q9PouPRtWnQ+vdzHpY31u85/T8wftTS4PE2g3T+nRZHCABqCf2CdKzn7yGbPV/VSfANR60NdVoYktzm3ROpNJAy050YWphQPPtJ7Y0XSAB88Hf0unQrSRKSpAIJ1FoNTpsdWZaxdXaNKlFwsM6/U+MMS+WFtXEO///wqmn1fIm3iGD/rJgjBBitGt3CdNCJdasTie2xAU/P5/STkutOCSNMOJ595XgjCHTY/H4XUmVTAw2l96j6+AYqtZrEOdmo1Gqmr1tG0TsfIEkSaS8sGFWbQV7YZTquvNF/c7vn2/SwWi8k+o4MCR3+IEEYAcmgRT8/DevF++D0g1xzwlOTLQ5snXHojNXeOUFCBgT591psYew8GwR6o3SMucNdnNqP3a2vISZzCjGZfRfMhiUnMOeLW8fUptEQ4KMuzdguYZY9qORzv/8/uPTbnxEfE8mVkjL+zy/2oFGr2bV+FS+lzQZ9iIc76znXHt3zeJsiCBQ8SQo1oJufhu3jB+B6NjfzTTSuJgvOoFjUag/vAk+YDuF+kJdQ8BrPBoFjnC7+s395k9b2Tn72V38MwLf/4d+x2e3Y7A7+/R//BkOU/9aLfdzeQqfV83ncEsJ8nAfKEzR6cIw8hUG32cJf/tsvmZ/7WRb6v/y3X7L3X/6aIIOedV//Pi9tf8Nvg0Cz3UZx1QOPt5sc6cfF44WApAoPRjc3Fdvlh6NfsCz4JXuNC1VKCJLsofRiCdMhPMEzbQl+y7NrAscQBP7knf1EhYcp70MnLlwhOiKMn/7ld/jcknn8Zs8+j3bR087eKfF4mwatjlBDkMfbHXejDNaCgwzs+dFfER762Ro4i81GcJABSZKIj46k7t4tT/fSY87dKcHlhQ/UKTHijVjwPFWU0V1VRJgYXDL2BhOy7IF8AiIAfGZ4NgjUj37t3jd2bWHnupXKz1dv32HejAwAFuRmcbn4FnR6frG9p3xUdsPjbXqj9JhPBD39hobetYJl+dO0M1b/zKF4+k6xx9sMNQQRZRTrcQTvUMWEos3z3ystwui4umw4LE8ZvIkA8Jni2SDQEMLTZjWTZVnJrKIkn27x0oLXp1T2uIoHjY893u6EufxnePq1bAa9jm6zBVmWqW9uIS46EpqrPNA5z7pd+4irD+96vN2M+Ekeb1MQelMnhKGbk9onpZUQuMZeVk6CxCwRAD5jPJzMTfo0EBy7eTMyuFxSBsDlm2XMy8lwzwTa/S/Jaf4nH3ml3cyECTIyDx59ZucfvZXPJzdL+bs3f8XDmsf84Jtf4kv/65/4/Pf+lj/6/KebbFprwepfZfV+cfaIV9qdnTLVK+0KQm+q2FB3+hiN/5dmFIZnq1YhM4rNeSo1pOZBWKz3OiX4Jc8nFwoKA8vIyxPdKLvHf+Yf5NKNW/z83cN8ZevLHProAv/tr3+Ew+nkJ3/xLfeBteXuZJV+4n5DLZcelHml7bzkyV5pd9ypte51gaMI2P74i9v54y9uV35OTYxnz4/+qv+BNaWQPtcTvXxqp8pucLv2kVfanp+W4ZV2BeFJqvBg9IunYvvkAbLF//OzCkNwuLC3RqENqxl+glejd3+2jmE5lxD4PB8EGiNGdfl2ZsYUfvIX3+5z24++/43+B3a1QHsDmHx/qdThcvKjY+95pe2Y0DDiTRFeadsnQiK8M2tn6aSxoYPoGN+mT6nvaOXfTrzvlbbjTOEkhkd6pW1BGIgUokP/3BSsn1SIEnMBztVmxRmSgEY7RFk5fTCk5HknvZsQEDw/9+/FnH72psdYHV5rfsR+deEEFU11Xml7VvIEK84d6vlUNy6NnrPO2Ry+Z6SqxePNj5jN6eAfDu/B6vDOrMniKdleaVcQhqTToH9uCup4Py/ULQzLUWNDlgb5dzRGua+miADwmeb5IFCl9kog2GxIIr9+BoVlvs1pVVhWxLtXznqt/RemT7AC3cHhHn2T6dLHsLd1Hvc63TOAp+7ItPhgs7DVYecv9r/NnXrvbVpaljHBXgtC4JAktLOS0WYnPu1eP8HH+peVkyBuCiTneKfGuxBQvPMK8GCGcVnSUCTlcLBuCg5Zoq4DLj3wTSB48X4pPzz6rtfajzaamJ0ywWYCwTO7zSQ15ZoM9tVnYXF+Vp7Q6YIjJTJ1HU9/ipFqt3Tzp/t+QUnNQ6+dIyEskmmxSV5rXxBGQp0SiX7RFNCLesOBqqesHOBep502CyJF1gHBzTtBoCnGIyMMmzaMg93zuN7ad11UaR0UlsvjWvHoaMkV/v7wbq+eY2XmLK+27zNPGQQ6dEaOmudwoWng/Ik2Jxwtkbk1xNIXT7lVU8k3fv3vXp0BBFie4T+boIRnmxQWhGHJVFRR/lmpRxieq8mCS5sMk+eJOsBCH94Z3kkq92xgS82Ym6jRpXG8YfBs9pXNcLBYZnWmRIgXlzTYnA5+efYoB4suee8kn/pcjn/sdvU4rR5CY6CjYdQPbdJP4neN6ThdQ1+TkoFPHspUt8KSKRLBHn5NWB12dl8qZJ8XlwL0tjZ3/ricRxBGRKdBNz8d58Mm7GWPRc3hQKKS0EyLQ5Ue7eueCH7Ie3P8UcljCgJltZ4L9izuNAw/WmnthveLZBalS0z2wuu7vK6KHx59l+rWJs83/oTlGTMn1q7gJ0Unjy4IVGu56sykuH7g38mVj/bz/i/+Nz94+yoA7/zrd3DYbTjsNr74vX9jwZQgMuNA7YG57sLSIt46d4ymrvG55rx+5kKiQny761kQBqJOjUIVbcR2rRK5c+R1wQXfkMKC0M1KQQrS+rorgp/yXhCoNbh3H3WOPIAyG6I53JxBl109/MGfsjvhzF2ZO/WwIE0iwgOpjmpam/nNpZOcLitGxvsjXgmJ1xev8vp5fMoQ6k4X0zX8dl6bPoIPWzNpsw38xnX/1ifcuXGe8OhEAG59cgJjWBQbv/TnfHwin7O/+w2qDV/hRhVMjYWMOAnTKMta17Q2c7L0GqdKb/C4ffy2IGvVGnYsWDZu5xOE0ZJC9Oifn4aj7DGOB42+7o4wEJWENiMedarnszMIE4t3V/vGpI0sCJQk7mmmcbZu7BtKHrfDBzdkEsMgO0EiaQwblIse3edoyRVOl3u+BuxQVmTmTexZwB7x0+Dex0McIFGtS6egfuhFy5Oz5zM5ez7/8t0NAFSUXyU9a96n9y3g8K/+H17Y8BVsTrhVC5VN7RwveYvMhGRmJKaSHBmDyRCCKSgYo95AU2c7reYuHre1cP3RPYqrHlDV4psPt61zlxAR/PQ1lwXB2zQZ8ahTIrHfrsVVP447s4QhqSKC0eYlIxnE7J8wPO8GgQYjhMVB2+A59ZzaYAq7c6huHeVUzSBq2qCmTUanhtQoiAuViDJCeNBnx3RazbR0ddLS3cmDxsfcb3jMzeoH1LW3eqQPo6FVa/jCc6vH/bw+oQuCyCRo7r+pwqUxcM6azf2GMQRAskxPHgul3nQvNW1lVLU0UtXSSMGta6Nvf5xEBBt5dd4Lvu6GIIyYFKRDNycVV1MX9ls1yF3iErGvSEFaNNPjUSeI/I7CyHl/33/cFHelD9nV765mQxK/q5+MQx59Iqq9P/ufdHe08nvf+ykAf/8Hy4iKS8EUEctr3/ohNifcqYc79X2DghCdnbfO/sPYnosX7Ji/jGjjM7RbK3ay+/XgsCk3deljONQ0vU/ql9FIy5zHvZsXyF20hge3L5Oe9dkGGwm4cNc7NZ497feXrkWvEaN3IfCookLQL52Gs7IZ+5069zodYXyoVWimxqIRGz+EMfB+EKjWugPBx3eUm2RJQ5GcSVHd2Epindj3E4ymSLo/Xatl7uogPWs+r/3RP3uky+Ml3hTBq/OW+rob40tSQVIWPCxy5/5TT+VC/cCpXwZj6e7k4Ft/R21FKfv+48/Z9t/+lqJzh3n7n/4Ap9PBG9/9d+XYEF0X7eZ2Tz8Lj1uQnsEykRZGCHDqlEjUSeE47tbjqGj6dJZe8AoJ1MmRaKfFgXZsA2hBGJ8MoBGJ7tmf7lZs2jCOtGfRYht7Do9V275Bc30VB3/5dwA011XyuLKMt//pD8hdtIY5yzZ7qude9Y2VG1GrnsGM7cHh2KKnUFgdyWNL0PDHP8EQbOTVP/wHXv3Dz2Z0X/vWDwc8tq69fMzdHC8RwUb++HNbfd0NQfAMterT9YJR2EtrcdX5/yAs0KhiQtFmxiOF6H3dFSHAjV8a+KQs6h495khdsuebnjyD7/zzQWRZ5offWcfM515Co/XveohbZj83MauDjJAmehKuehm8WKM+EC4Fa9Rq/mrj6xj1nlkTKwj+QgrSopudgtxpxfGgAWdNm5gZfErq+DA0U2KQQsX7heAZ4zcNpdEhR6V4tQylJEmoVGqQ/LvYZXp0PF96/nO+7oZPqSRYkeH5pM69GfVmWrrHL73LWHxv7atMjU30dTcEwWskox5t7iQMyzPQTI4Rly5HS5JQT4pAvywD7axkEQAKHjWuBSHjTbB4ssT5+083Gnx09waFB97k3q1LnD74cyJjkzn74X+h0epYsHo7Gj9eXB+s0/Pn63ehEoW7MWhgdabE4Zsyzv77hp5aY8c9zzfqQV9YvJrnpmT7uhuCMD70GjTT49BMjcVZ04rjUTNym9nXvfJfKglNSpR7w4eo3Sx4ybi/sqbFQks33H489jaSp87kC70W/wPkLPT/mTWNSs1fb3yDONMYkhhOUBHBsCpD4nip7PErRWfKCzzboAety53P9vkiHYzwDFK5Z7bUkyLcl4ofNeOsaRU7ij+ligpBnRiOOj7MMyWPBGEIPhleLEiT6LDIVI1/Wj4kr16QHvq8f/byTrITB6+H/KxKCIPnp0icueu5KNCos/jtpeBVWbP5xooNvu6GIPicZNSjzUpAm5WAq64d5+M2nHXtz1xtYinUgDoxHE1iuJj1E8aVz15tKzIkTpXLPBrnz+nxKAM3kD9Y8TIL0zN8cu5A4K797LlAsKX7gUfa8bRX5izhy8+v8XU3BMHvqOJMqOJMaF0yzvp2d1A4gQNCyRSEOiYUdWI4Uoh/b2QUJi6fBYE9GwMKy8Y/EBxv33nxFVZlzfJ1N/ze5GjQqiUKy5/+0vCle6c80idP+uoL69g0a7GvuyEI/k0loY4PQx0fhtYl42ruwtnQgauxA7nLNvzj/ZVOgzraiComFHW0UWyQEfyCT+edJSZ2IKhWqfjTdTtYPCXL110JGMkRsG6G+zVhto+tDaPeRm3bUyw69TCtWsP/fHkn89Om+7orghBYVBKqaCOqaCOQgGy242rowNXajavDgtzhxRxTT0kK0aMKNSCZDKijjUim0edEFQRv8/nig55A8EqlTEmNr3vjOUZ9EH/60g5mJU/2dVcCTowRNua5A8Gx1KVv767weJ/GKt4Uwfdf2s602CRfd0UQAp4UpHVXJUn5rNqU3GHB1W5B7rTg6rYhd9vcNYzH6TKyFKz7LOAzfvp/kcZFCBA+DwLBHQjOS5FIMMGpchmHF9KFjKc5qVP5k89tJSwoxNddCVgGDaydIXGrFq49Gl0KmU8enPZex0ZIq9awff4LvDp3KRq1uOwjCN4ihRpQDxR0WR24zDawOJCtdmSbA9nq/sLhRHa4wOFCdrqg5wvcO3LVKiS1BCoVqCUktQp0GlTBOnfQF6x3/z/If9ORCcJI+EUQ2CMpHDblSZwok2nt9nVvRk+v0fKVpWt4KXeBr7syIUjAjARIiZQ4f0/m8QiqT4XobFQ2P/J634YyNTaR76/bTkLY2GpjC4LgAXoNKrHTVhCG5Hd/IUY9bMiVKKuDoioZq8PXPRqZVVmz+NLzawgXs38eF6qHNdkSNW1wtVKmqWvwYzutvgsAtWoNO+YvY+eCZT7rgyAIgiCMlN8FgeDeOZwVD1NjJG7WyNyqxW8vEU+LTeIPV64Xa77GQWIYJOZKVDTB9SqZgYoNXK04O+79MuoNrM9byKZZzxFqEIu/BUEQhMDgl0FgD60aZidLZMVDSa1MWZ3/JJWPN0XwhedW88L0XF935ZmTFgVpUe5gsLhGpvnTmcEQnZ37DffHpQ8qSWJWyhRWZc5i8dRsdGq//lMSBEEQhH4C4pPLoIW5KRJ5k+BOPdyqlem0+qYvUUYTr85byvqZC33TAUHREwx2WqGiCe7Ve397+fS4JJZlzOSF6blEBBu9fj5BEARB8JaACAJ7aFTuy8RZ8RJVLVDRLFPZ7P3ZwThTOEumzmDJ1BlkxE/y7smEUTPqIScRchLTWJHxp1x6UMr5u7e43/iYps4R7CYZQlJ4FNPikpibOo2ZyZOJCgn1UK8FQRAEwbcCKgjsbVIETIqQYArUtEFFkzun3EDrxEYrIthI7qR0Zk5KJ3dSOknhUU/fqDAuTEHBvJg9hxez5wBgddh52FRPTWsT1a2NPGpqoNX82c4SjUpFWLCR8KAQwoONhAUFExZsJNpoYkpMgq+ehiAIgiB4XcAGgb0lhkFimKT83G5xB4PtZrA4ZOxOlC9ZdpKTlNbn8RHBRtJj4pkcnUBadBzRRtM4PwPBW/QaLdPjkpgeJzbuCIIgCEJvEyIIfJLJ4P4iAtzZ5noLYlXml8e/U4IgCIIgCH5E5esOCIIgCIIgCONPBIGCIAiCIAjPIBEECoLgdXfs1cN+jcaVK1f48Y9/THX16B7nTWfOnKGjo8MjbVksFj744AOPtDUa7733Hvv378flGn12/rt371JUVKT8fPr0aY4cOaL8XFNTw3vvvUd5eTkAx48fx2azAe7ne+jQoafsvSAIoyWCQEEQAs7s2bOJi4sjKWnoDT8nTpzwWh/a2tr45JNPlJ+XLl1KaKh3UwgVFxdTV1fnlbY7OzsxGAxs2bIFlWr0Hw3Xr18nJycHgLKyMrRabZ/7y8rK2LhxIxUVFXR2dqLX69HpdAAYDAYMBgNNTU1P/0TGy+2Phv8aBX8c2Hja3r17AXjw4AG3bt3y+vmqq6s5d+5cv9s7Ozs5evQoAEVFRezdu5d33nmnz9/Wm2++ye7du8nPz1duO378uDJYaWlp4fz588p9586do7a21ltPxWsm5MYQQRCeLfv37ycoKIiWlhZmzJjBzJkzuX37NqWlpTgcDtasWUNDQwMnTpxAkiReeOEFEhISKC8vp7Kykvr6ejZu3IhGo+HAgQOEhITQ2trKmjVriI2NpaamhgsXLmCxWFi6dCkpKSlcvHiR2tpEnyIUAAAgAElEQVRaJEli3rx5FBQUMHfuXCIiIigrK6OoqAiXy8ULL7xAYmIiFotlwLbtdjvvv/8+siyTkpLCwoUDJ6K32WxcvXqVkJAQ5s6dS3p6OocPH0aWZaKioli8eDFFRUXcv3+f7u5utmzZQnBwMAUFBahUKlpbWwkODmbt2rV0dnZy+PBhdDodU6dOJTc3l6tXr1JVVcXVq1eZM2cOJSUllJSUIEkSGzZswGAwUFBQgF6vp6mpic2bNyt9s9vtSJKEWq0GICMjg66uLs6cOaMc43A40Gg0yLLM1atXmT17dp/nl5aWRkVFBVFRz2ZKrtmzZ3P37t0RDWxWrVrltX54u32A9PR05fu2tjbKy8uZP3++V8/Z29WrV5k5cybgft3l5eXR2trK+fPneemllwBISEhgw4YNymPsdjtarZaYmBgaGhooLi5m8eLFyv2zZ8/mxIkTfR4TCEQQKAhCwGtra+Oll15Cq9Wyb98+Zs6cSUZGBiUlJaxZswaAS5cu8fLLL2MwGDh48CCvvPIKAN3d3ezatQtwX5a0WCzs3LmT6upqSktLiY2NJTExka1bt9Lc3MyVK1dISUkhIyODyMhI5s2b168/ly9fZteuXdjtdg4cOMD27duV9p9sW6vVsm3bNgDy8/MHDQJ1Oh1paWlkZmYSFxcHQF1dHZs3byYyMhKAvLw88vLyuH79OlVVVUyfPh2A1NRUVq5cSX5+Pi6Xi4aGBuLi4li+fLnSfl5eHhaLhTlz3Dk2i4uL2blzJ5WVlVy/fp1FixYBYDKZWLp0aZ++tbe3ExYWNuS/UXBwMN3d3TgcDmw2Gzdv3sRisbBixQoAwsPDefTo0ZBtPEu8PbAZ6LFPtt9bQ0MDJ0+eBGD16tWEhIRw9OhRLBYL8+bNY8qUKZw4cYLW1lZCQkJYu3YtADdu3KC0tJSwsDAkyZ2to7y8HLPZTF5eXr/BVG8lJSXcvHkTtVrN1q1bcTgc/QZMFoulXz+OHj2K2WxGpVINOKiora3lhRdeAFBet3a7Hb1er3yv0fQNj2w2GzqdDr1eT0tLC5IkERT0Wa34ntd3oBFBoCAIAS84OFh5A+/5oHlSW1sbH330Ub9jkpOT+xzXE1AZDAYcDgcAlZWVlJSUIMvysJdKnU4ner0eSZLQ6XTIsjxk221tbVy8eBG1Wo3FYhnxcwYICQlR2gS4du0a9fX1tLa2kpv7WV3ziIgIwB1IOhwO0tPTqa+vZ/fu3axcuVIJKnu4XC6ampo4dOgQTqeT6Oho5b5Jk8ZWNSk3N5dTp07hdDrJzMzkzp07hIeH09DQQExMDJIk9fldPeu8PbAZ6LFPtt/b2bNnWbduHSaTSWm3traWr371q6jValpbW7HZbGzdupUzZ85QW1tLQkICRUVFvPHGG3R0dAy47nOowdTVq1d5/fXXlb/XwQZMvfvR2NiIy+Vi8+bN3Lx5k7a2thH9vi9duqQMdJxOJ3V1dezfv5/w8HBWrFhBUFAQVquVjo4OGhoamD59Oh9++CEzZ85U/iZ0Op0yYxgoRBDoZcMteJ+mFUmMBeFpDRT4SZKkBFrgHvGvWLGCkJCQPseNZP3b2bNn2blzJ42NjVy9elVp32639ztWrVbjcDiQZRmbzaZcIh3Mxx9/zKxZs4iNjeXXv/71kMeqVKo+5+zdd7PZzL1799i2bVuftYo9fX3SwoULycnJoaCggE2bNvU7T0xMDOvXrx+wD08KDQ2lvX3oEo0mk4l169Zx9OhRoqOjqaioQKvVKv9Gra2tSoAheH9gM9hjB2M2m/v9+yQkJCiv79bWVurq6jh06BAWi4WkpCQcDocyWxYaGtpvdm0odrudoKCgPn0bbMDUux9tbW3K7F9ERMSIgsCioiKio6OVwY7BYOCLX/wi4N7gdP/+fSZPnozJZKK9vR2NRkNVVRUvvvgihYWFShAYiAMZEQQGoCtXrnDu3Dm2bt067PoRX7hw4QJ37twhKCgItVqtXJIYjX379ikjvh6HDx/m5Zdf9mRXhQB17do16urqqK6uHvRvQJIkgoOD+eCDD9i4cSOLFi3igw8+QKfTkZKSMqo1SAkJCRw7dgyj0agEQXFxcZw+fRqVSqXMIPSYNWsWe/bsUS61DSUlJYWzZ88SFRXVL0B90uTJkzl58iSLFy9m6tSpfe4zGAyAe02XzWYbsq2qqiouXbqELMt9Zgx7y83NZffu3ej1eubMmUNaWtqg7el0OpxOJy6Xa8igurS0lIyMDAwGA1arlcrKSrKysgCoqKhQ1mkJ3h/YDPTYJ9vvzWAw0NHR0WfzU+8+hoeHk5CQ0G8WsSdY6+rqGrDtwQZTWq0Ws9mMLMvKeQYbMPXuh8lk4u7duwCDDkx6B2rV1dVUV1crawEH6kdP+3PnzlUCxtLSUjQaTZ9zW61WZbNToJAePm7rE7ZGhwURbAicqUx/542ZQJfLxd69e9mxY8eQx/lqAfGFCxdISkoiJSWF06dPk5yc3Gch8EgMFAQK48dic1Df0n99S2xEMAbd6MeOI0kBI2bFA9udO3fo7u4mLy9v1I+1Wq0cO3YssBbVj2T3b9ayETf35OB+7969vPrqqwB9vu9JHbRx40YaGxs5fvx4n4FN7/V24A7Cjh07xsaNG2lqaqKoqIiVK1cO+Ngn2++trq6OwsJCVCoVy5cvx2QyKe32KCwspKGhAa1Wy4svvojRaKSoqIjS0lKioqLo7u5m48aNffposVjYu3cv06ZN6zeYunHjBrdv3wZgx44dlJWVcfPmTaKiomhubuaVV17p8/x6HDlyBLPZjNFoJDg4mCVLlvRp99SpU2RmZhIfH8/Pf/5ztFotarUag8HA1q1baWxspLCwEEmSlPWNPcHe7373O9atW0dlZSVlZWUkJCSQk5OD2Wzm2LFj/WbVfa2ybvAZ+h88vCuCQG8bjyBwsAXEJ0+eZOrUqV5bQNy7/d56B4HHjx9n5syZxMXFjXjnInwWBB4+fJg5c+aQkJDQ541woOdstVqVmR6Xy8X8+fPHvH7pWefpIFAQJhwPB4HC+Ono6OD8+fMDrn0cq/Pnz5Oamup3V+eGCwLFu/kE4G8LiAE++ugjVCoVer2e2NhYYOQ7F1UqFZIkcfHiRVJTU0lISBjRcy4pKSE7O5sZM2Zw+PBhj/+eBUEQFCLAC1ihoaEeDQABnnvuOY+2N15EEDgB+NsCYoBly5aRkpLClStXKC4uZubMmSPeuajT6TCbzVy/fp3XXnttxM+5ra2N7OzsPs9DEARBEISBiSBwAvC3BcS96fV6uru7R71zUa/X8/LLL3P8+PEB1wYO9JiwsDBaWlqIi4sbdqeiIAiCIDzrRNm4ANR7Z+Rgeu+MBJSdke+++26/IGw4Az32yfaf9NFHH7Fv3z5u3bpFbm5un52LjY2Nw55TkiQiIiKYNGkSN27cGFE/Z8yYQXFxMQcPHqSlpWWEz04QBEEQnk1iY4iXiTyBvnH8+HHmzJnzzJagelqe3hiy/sd/Oewxh/7oB6NuVxAEQRic2BjiYyLIGz9NTU189NFHSJKEwWAQAeAEVl1dzaFDhwgPD8fhcLBs2TKf7AR/8OABZrNZWYvqK+fOnaO6upqVK1f2qe4xUgcOHGDjxo2oVCqOHDlCe3s7MTExSkm348ePY7VaWb9+PS0tLdy+fVtZCH/u3DkmT5484Aauicxy5OawxxjW5oxDTwRh7MTlYGHCiIqK4pVXXmHLli2sW7fO190RvCw7O5sdO3awZcsWCgoKRrRG1RNOnDihfJ+enj7iALD34zyturqa7du3jykArKioICEhAZVKRUNDA3q9nu3bt2OxWGhoaFDKYE2aNImGhgauXbvG7NmzlcfPnj2by5cve/LpPJOqq6v5z//8T/Lz8/nggw+UhMZ79+4dc5tnzpyho6NjVI95mvONtN3xyt4w2HMpLCykubkZs9nM/v372bdvH8eOHVPuv3LlCm+//Ta7d+/m1q1bANTU1PDee+9RXl4OuAdGNpsNcJeVvHTpkpefjXeImUBBEAJacHAwaWlpVFdXk5qaSllZGUVFRbhcLl544QUSExOxWCzs37+fkJAQurq6SE9P5/Hjx6jVaiVBcUlJCSUlJUiSxIYNGzAYDFy4cIGamhokSWLTpk2Ul5dTWlqKw+FgzZo1fZLeNjQ0cPLkSQBWr17dZyb69u3bfR5XUFCAXq+nqamJzZs3U1NTw4ULF7BYLCxdupSUlBTKy8spKyvD5XLR3d3Ntm3b0Gq1/fp0//596uvrOX78OC+++OKIcoIajUalbxUVFUrVjtbWViWQTE1N5fHjxwQHB6PT6dDr9bS0tCBJklIKrOf3393df+mAMHrZ2dksXbqU06dPc+/evX5VYUZr6dKlHuqZZ/Wu/OTtogZPstlstLa2EhkZicvlYvXq1YSGhnLo0CGlIkrPrHfvv+GysjI2btzIyZMnSUxMRK/XK9VBUlJSuHjxIgsWLBhxBg1/IYJAQRACXkhICGazGYDLly+za9cu7HY7Bw4cYPv27YC7FunGjRu5fv06XV1dbN68mf379yszXcXFxezcuZPKykquX7/OokWLqKqqYt26dUrQNFR+zLNnz7Ju3boB698O9DiTyaR8SCcmJrJ161aam5u5cuUKKSkpABiNRlasWKEEfqmpqf36NG3aNK5fv86LL74IjCwnaG9tbW2EhYUpfaqqqgLcMx9xcXEEBQVhtVrp6OigoaGB6dOn8+GHHzJz5kzlErxOp1N+j8LTi46OpqurC3AXBzh69CjNzc3k5OSQm5tLQUEBM2fOJDY2liNHjjB//nz0ej2HDx9Gp9MxdepU5bi5c+cSERFBSUkJN2/eRK1Ws3XrViRJoqCggI6ODlQq1ZCVLmw2G4cOHcLpdDJjxgyys7P7DWQGGkTV1dVx4sQJTCZTnxnJnsT/Tw6OehtoUDVYwYHe/bhx4walpaWEhYUNGJBVVVUpCZ1VKpVSBs9utytBndVqVVKQ9XA4HGg0GmRZ5urVq31mw3v+zZqamsY0G+9LIgj0suEWxIvF8ILw9Do6OkhMTMTpdKLX65EkCZ1O16dGaHh4OOAOWHpqWev1ehwOB2q1mqamJuWDrueNfMWKFRw9epSoqCiWL18+ZB/MZvOAAeBgeq9hrKyspKSkBFmW+6Rt6smhaTAYlPqqw/VppDlBe/SuzRoXF0d5eTkffvgh4A4KVSoVJpOJ9vZ2NBoNVVVVvPjiixQWFirPQZKkPr9r4elUVFQwZ84cwP262rRpEzqdjn379pGbm8uMGTO4ffs2sbGxtLa2EhUVxYMHD4iLixv0dXr16lVef/31Pq+J1atXA/D+++9jsViULA5PKi4uZvr06eTk9F3j2HsgM9Ag6vz582zYsIHQ0FDefPPNfu2OdlA1WMGB3v0oKirijTfeoKOjg0OHDvVrt62tTXkv6NHU1IRGo1ECP5VKxfHjx3G5XCxZsoT4+HhlxtvhcGCz2bh58yYWi0VZNxseHk5bW1vABYFiTaAgCAGto6OD6upqEhISUKvVOBwOZFnGarWiVqtH1IZKpSImJob169ezadMmpdZodHQ0W7duxWq10tTUNGR+TIPBMOj6q4Ee1zvYO3v2LGvWrGHevHn9HvekJ/v0pJ68nuvXr2fLli0Dnu/J49va2pSfly5dyksvvYTT6VSCvLlz5xIZGUlOTg4ulwuNRtOnb1arVZlFEcbu9u3b5OfnEx0dTXx8POC+3G4wGJRKSgAJCQk0NDRQXV2tBPfp6ekEBQWxe/du6urq+rRrt9sJCgrq82/mdDopLCzk+PHjNDQ04HQ6B+3XYMFNz+vD5XIpg6hr164pbVmtVmWmrWdAM1IDDaquXbvG0aNHKSsr6/P31NMPh8OhLFUIDQ1VBntP6v17sNlsFBQUKAExuIsdbNmyhZdeeolTp04BkJuby6lTp3A6nWRmZmKxWAgPD6ehoUFpMxAHQmImMABVV1fz29/+lm9961vKi3z37t2kpKT0K5TdW+/auz1sNhunT59m9erV/QqPD9eHQ4cOERkZid1uZ+3ataOu0lFeXo7FYmHmzJnKbf6y21Lwf7du3VLWxq1du1YJcmbNmsWePXuUNXEjlZuby+7du9Hr9cyZM4e0tDSOHj2qXGYODw/vkx+zd8F6gCVLlnD48GFUKhXLly9XyiUCQz4O3B/qx44dw2g0DpvA/ck+Paknr6dOpyMlJYX58+cP2V5qaioVFRVKfw8dOkR3dzcLFy7sE0TX1NSQl5eH0+mkoKBA2Q1sNpsHnUESRicrK6vfOr7B1pjFx8dz6dIlli37rHzdwoULycnJoaCgoM/lXa1Wi9ls7jPre/fuXUJCQliwYAHvvvvukP0ymUw0NTUpgWmPntdq70FUb3q9nq6uLkJCQvoMNHo/t+EGVT1B5FAFB3r6odFosFgsAHR1dQ3Ytslkorm5Wfn5yJEjLF++vM861x5arVZp22QysW7dOo4ePUp0dDQVFRVotVrlHK2trX5XN3gkRBAYoCIjI3nw4AHTpk3DYrFgtVrH1I5Op+szAhqNnkXMFRUVFBcX93kzGqv09PSnbkPwP55e9pCUlMTXv/71Ae/LzMwkMzOzz20Gg0EJvnoPMF566SXl+6ysLGWDRI+BLlP1DuJ6LkeB+1Lqzp07B+1z78c9+TfXc0mpt95t915/NFCfeg/uoqOj+5Vb7N3Wk9LT07lx44ZSt/vJD/IePTvuU1JSlDWL4J6deXIGU/C+7OxsysrKlM0LVVVVXLp0CVmW+5Tl7JGXl0d+fj4AO3bsIC4ujmvXrtHV1TXkLCC4B0gHDx7k1q1bZGVl9bss3HPMk4OoxYsX8/777xMWFjZgkDWaQVVMTAzg3khis9n6Vb/q3Y89e/YQFRU14DGTJk2iuLiY+fPnU15eTkVFhTKDv2DBAqZNm8apU6dobGzE4XD0mVgpLS0lIyMDg8GA1WqlsrJSec9oaGhQ+hhIRLJoL/PGmsDq6mru3r2L2Wxm7dq13Lx5U1nTsGTJEux2Ox9++CEOh4OQkBDWrl0LwJ49ezCZTLS2tjJnzhwyMjKwWCwcO3aMjRs39pkJtNlsHDx4EFmWmTJlSr9FsNXV1dy/f5+lS5dSVlZGe3s78+fPx2638/777yPLMikpKSxcuBCLxcKBAwcICQmhtbWVNWvWEBsbq8wExsbGcvnyZdavX9+nDwUFBahUKlpbWwkODlaeR3FxMbdu3SIiIgKr1ars7hQ8x9PJogVB8KyKigpqa2tZvHixr7sScAoLC8nLy/NYjfmqqiqqqqpYtGiRR9rzpOGSRYs1gQGqd1qGiooKUlNTlftKSkqYOnUqW7duJSQkhIcPHwLu6fRVq1axY8cOrly5MmT7paWlZGZmsm3bNu7evTvgMT3rV86ePavMrmi1WrZt28arr76qnBfAYrGwYcMGVq5cSWlpqXK72WzmzJkzA85ugPtS1SuvvEJ7ezsulwtwL/zdsWMHixYtorOzc7hflSAIwoRy+fJlzp8/z6xZs3zdlYC0YsUKjwWA4J5d9McAcCTEkD6AJSQkUFlZiSRJfRbAtra2KpfDoqOjlbUYQUFByuLt4dYdtbS00NDQwIMHD7Db7ZjN5n7T+T3rVxoaGigsLGT9+vW0tbVx8eJF1Gq1sjYDUP7gDAZDn3UaRUVFpKamDppaomcxsU6nw+FwoFKplPVHJpNp0IW/giAIE9W8efPEJXjBI8RMYACbNm0aBQUFpKWl9bk9MjKSxsZGwL1OoScAM5vNWK1WXC6XMqs2mPDwcHJycli/fj27du0acD1HD4PBoAR8H3/8MbNmzWLVqlUjSpq5cOFCXC6XkpvsSU+2odFolPWPPdv1BUEQBEEYPTGNEsCio6NxOBxMmTJFCfrAPUN38OBBysrKCA0NVbbPR0ZGUlBQQHt7+7CjyJ42bt68SUhIyIBl2G7fvk1dXR1Wq1VZ2J6SksLZs2cHXZT7JEmSWLFiBe+9956S1Hc4OTk55OfnExERIZLTCoIgCMIYiY0hQsAym80cP358wJQbwtPx9MaQty8Onz/r9xYFVrklQRAEfzfcxhAxEygEnLNnz9LY2IjFYhlVHjhh4ujJUxkeHo7D4WDZsmV9KnB42pkzZ5g1a5aSs2wwBw4cYOPGjXR0dHDs2DElBUZPKprbt29z7do1goKCWL9+PVqtlpqaGi5evEhOTg7Tp0/n+PHjLFu2DJ1OR2VlJbW1tSxcuNBrz00QhGeXWBMoBJznn3+ezZs3s3PnThITE33dHcFHsrOz2bFjB1u2bKGgoMCr60OXLl2qBIAFBQUDHlNRUUFCQgIqlQqj0ciGDRvYtm0b4N5oBe6NUK+99hrZ2dncunUL+KwwfUVFBZ2dnf0K0z98+DAgKxFMdLZFbw37NRrvvPOO8v0vfvEL6uvrATh16hQ1NTVKZYuBFBQUKK+xwezdu3dU/RmtwdovLCxUkjO3tLTw05/+VKmLDO6Sbe+88w579uxRKuDU1NTw3nvvUV5eDsDx48ex2WyAO9PEQOXghLERQaAgCAEtODiYtLQ0qqurAXeKpPz8fPbu3atsWCooKODEiRO8++67FBYWKo8tKysjPz+f3/72t9TU1ADQ2dnJnj172L9/P8XFxcrje3bMl5WVcejQIdrb+15mqaioUDZpqdVqDAYDLpeLrq4ugoODsdlsSumuSZMmKecbaWF6YWKLioqiqakJq9WK0+mksrIScG/ui4uL65PYv62trV/VDH9ks9lobW1VNieeO3eu38D94sWLrF+/ng0bNnDhwgVg6IGRwWDAYDCIvwkPEZeDBUEIeCEhIUoptYEK2QOkpaUxZcoU3nvvPTo7OzEajVy+fJldu3Zht9s5cOAA27dvVz50ly9f3u88MTExxMbGDlhVo62tjbCwMOXnkpISLly4wJQpU5TyWT0bmbRarRKgTtTC9MLoJCYmUltbS3BwMLNmzaK6upp58+bhcrmUlFs9if0vXrxIbW0tkiQpm/w+/vhjpURbT97VGzduUFpaSlhYmJJpoby8nMrKSurr69m4cSN6vb5fgv+TJ0+Sm5uLXq/n7bff5pvf/CZFRUXo9XoyMzMpKCigo6MDlUrVpzzdk6qqqvqUUlu/fj1Hjhzpc0x3d7dSI7jnb3i4gVFaWhoVFRVKtRRh7EQQ6GXDLYgXi+EF4el1dHSQmJjYp5C90+nsEzj11NmNjIyko6ODoKAg9Ho9kiSh0+mUS67p6enU19eze/duVq5cSVxc3Ij60LsuK8CMGTOYMWMGJ06c4OHDhyQlJWG32wGw2+3KzMaThenv3LmjFKaPiYkJ2ML0wugkJSVx5coVdDodM2bMoLKykubm5gGTGmdkZBAZGdkny8OUKVOYOnUq+fn5SgnAoqIi3njjDTo6OvpcQu3u7mbXrl3Kzz3LFvLz81m4cCHJyclUV1cjSRLx8fE0NjZSXV2trMHumZF8//33sVgsg9aObmtrG7C+9WB6UpeNZGD06NGjEbcrDE5cDhYEIaB1dHRQXV2trMfrKWS/adOmPnU/W1tbAWhsbMRkMqFWq3E4HMiyjNVqRa1WK8cuXLhQmXF5ksvlGjAoCwsLUxKz974/KCgIWZbRaDTY7XZkWaa6uloJLnsK0+t0OqKjo9Fqtf0K0/fMlAgTV2RkJK2trTQ1NREdHU10dDQlJSUjXvfcEyz2JNZ3OBxKftfQ0NA+ifWTk5OV79va2jh69CgFBQXK7HTPcoWeUmgVFRV0d3djNBpxOp0UFhZy/PhxGhoahq07PFy+2IEKFzw5MLJYLMrAqKdNMTDyDDETGKBkWeYnP/kJX/3qV9Hr9Zw/f55Hjx5RW1tLQkICkydPZv78+eTn55OYmMjzzz8PwKNHj3jnnXf4/ve/7+NnIAhP59atW9TU1CBJEmvXrlU+TAYqZA/udUbXrl0jOjpayWE5a9Ys9uzZgyRJyixHVVUVly5dQpZlcnNz+5138uTJ5Ofns2bNmj6zHKmpqVRUVBAbG0tFRQWXL19GkiSMRqNySTovL4/8/HwkSepzGW0iFqYXRq9nAADuTUFHjhzhtdde63ecJEnKrHLv23rTaDRKUNfV1dVn41TvwKsnwX9sbCy//vWvAffAxWq1otPpmDRpEp988gnBwcEA3L17l5CQEBYsWMC777475PMxmUzKppDBGI1G2tvb0Wq16PV65XHr1q3j6NGjREdHU1FRIQZGXiKCwAD16NEjoqOjuXv3LjNmzOC5554DYM+ePezYsUM5LigoiLq6OuXnO3fuEBsbO+79FZ5tnl72kJSUxNe//vUB78vKylICqN4WL16slCHskZmZqZRY7DFp0qR+6WZ6Ln8BzJ8/n/nz5/drPz09nRs3buByuUhPTyc9Pb3fMdOmTWPatGkD9rnHqlWrlO+rqqpISUkZUfUdIfBFRUUpQWBSUhIOh2PAy6lxcXGcPn0alUo1ZM3a3Nxc9uzZM2Ty/sES/AcFBREZGanMuvWs7YuLi+PatWt0dXUNOws4adIkiouLB/x76bFw4UJ+97vf4XA4+rz2hxoYVVRUMHPmzCHPLYyMSBbtZd5aE1hQUEBOTg6XLl3qM6PwZBD4/vvvExQUxOLFiwkNDVXWcPQ+RhCe5Olk0b5WUFDA3Llz+wWBgjBWI0kBo7v4Ra/3w98VFhaSl5c34NrGsbBarRw7dowNGzZ4pL2JTiSLnqCam5uJj4/HbrcrO6kGIssy06ZN486dOyQnJxMTEyMW1ArPnN4zeYLgCSLAG5mezRyeotfrRQDoQWJjSACqra2lqamJPXv20NzczIMHD4Y8PiUlhcrKSsrLy5k+ffo49VIQBEEQBH8mZgIDUFlZGZs3byYhIYG2tjbOnDkz4DqjHmq1GrVaTW1tbZ/dkoIgCIIgPLtEEOhl3sgD+PjxYyWRbVhYGB0dHUpeqMFMnjy5zz+vl2oAAAKiSURBVAYRQRAEQRCebWJjiCAI/Uy0jSGCIAjPouE2hog1gYIgCIIgCM8gEQQKgiAIgiA8g0QQKAiCIAiC8AwSQaAgCIIgCMIzSKzw9rbbHw19f9ay8emHIAiCIAhCL2ImUBAEQRAE4RkkgkBBEARBEIRnkLgcHICqq6s5dOgQkZGR2O121q5d67Hi3L3t3buXV1991ePtCoIgCILge2ImMEBlZ2fz6quv8txzz1FcXOzr7giCIAiCEGDETGCAs1qtBAcHA1BeXk5lZSX19fVs3LiR9vZ2Lly4gMViYenSpaSkpFBeXk5ZWRkul4vu7m62bduGVquloaGBkydPArB69WqioqJwuVwcPXqU5uZmcnJyyM3N9eVTFQRBEATBg0QQGKBu375NbW0tHR0d7Ny5U7m9u7ubXbt2AWA0Gtm6dSvNzc1cuXKFlJQU5fYVK1Zw4cIFampqSE1N5ezZs6xbtw6TyaS0ZTab2bRpEzqdjn379okgUBAEQRAmEBEEBqisrCyWLl1KQ0MDhYWFrF+/HoDk5GTlmMrKSkpKSpBlGZXqsyv/ERERABgMBux2O+AO+HoHgADBwcEYDAYAJEny6vMRBEEQBGF8iSDQ27ycB9BgMGCxWJSfewd7Z8+eZefOnTQ2NnL16lXl9oECOoPBQEdHB6GhoUMeJwiCIAjCxCCCwAB1+/Zt6urqsFqtrFixYsBjEhISOHbsGEajsU9wOJAlS5Zw+PBhVCoVy5cvJzY21hvdFgRBEATBT0gPH7fJvW+IDgsi2KD1VX8EQfADFpuD+pbufrfHRgRj0ImxoyAIQiCorGsf9L4fPLwrUsQIgiAIgiA8i0QQKAiCIAiC8AwSQaAgCIIgCMIzSASBgiAIgiAIzyARBAqCIAiCIDyD/n9DpzLgZNvLnAAAAABJRU5ErkJggg==;" vertex="1" parent="1">
          <mxGeometry x="114" y="-288" width="641" height="903" as="geometry" />
        </mxCell>
      </root>
    </mxGraphModel>
  </diagram>
</mxfile>
